<?xml version="1.0" standalone="no"?>
<!DOCTYPE svg PUBLIC "-//W3C//DTD SVG 1.1//EN" "http://www.w3.org/Graphics/SVG/1.1/DTD/svg11.dtd" >
<svg xmlns="http://www.w3.org/2000/svg">
<metadata></metadata>
<defs>
<font id="kirvythin" horiz-adv-x="1476" >
<font-face units-per-em="2048" ascent="1638" descent="-410" />
<missing-glyph horiz-adv-x="544" />
<glyph horiz-adv-x="0" />
<glyph horiz-adv-x="682" />
<glyph unicode=" "  horiz-adv-x="544" />
<glyph unicode="&#x09;" horiz-adv-x="544" />
<glyph unicode="&#xa0;" horiz-adv-x="544" />
<glyph unicode="!" horiz-adv-x="395" d="M440 101q0 33 18 51.5t48 18.5q29 0 46 -18.5t17 -51.5t-17 -51.5t-48 -18.5q-29 0 -46.5 19t-17.5 51zM484 672v903h41v-903h-41z" />
<glyph unicode="&#x22;" horiz-adv-x="530" d="M174 1307v268h41v-268h-41zM343 1307v268h41v-268h-41z" />
<glyph unicode="#" horiz-adv-x="1323" d="M143 31l184 555h-167v39h180l132 399h-173v39h186l170 512h41l-170 -512h517l170 512h41l-170 -512h182v-39h-195l-132 -399h187v-39h-200l-184 -555h-42l185 555h-517l-184 -555h-41zM381 625h517l132 399h-517z" />
<glyph unicode="$" horiz-adv-x="1067" d="M139 298l34 23l11 -16q24 -34 48 -58t62 -48.5t94 -39t128 -18.5l33 -1v660l-23 6q-159 46 -235 96q-65 43 -97 100q-37 66 -37 152q0 153 94 239q93 87 269 97l29 1v84h41v-84l26 -3q85 -11 159 -57t128 -123l11 -17l-33 -24l-12 17q-96 136 -244 161l-35 6v-620l22 -6 q173 -49 247 -98q63 -42 95 -98q37 -65 37 -150q0 -78 -26 -147q-27 -71 -80 -122q-97 -95 -267 -109l-28 -2v-68h-41v68l-30 1q-132 6 -222 49q-82 41 -146 132zM198 1154q0 -142 116 -219q62 -42 195 -81l40 -12v609l-33 -3q-153 -11 -235.5 -85.5t-82.5 -208.5zM590 139 l33 4q150 14 238.5 104t88.5 232q0 138 -114 214q-67 45 -207 85l-39 11v-650z" />
<glyph unicode="%" horiz-adv-x="1216" d="M133 1313q0 101 67.5 171t161.5 70t161.5 -70t67.5 -171t-67.5 -171.5t-161.5 -70.5t-161.5 70.5t-67.5 171.5zM168 31l892 1544h42l-892 -1544h-42zM169 1313q0 -85 56.5 -145.5t136.5 -60.5t136.5 60.5t56.5 145.5q0 84 -56 144.5t-137 60.5t-137 -60.5t-56 -144.5z M693 273q0 101 67 171.5t161 70.5t161.5 -70.5t67.5 -171.5t-67.5 -171.5t-161.5 -70.5t-161 70.5t-67 171.5zM729 273q0 -85 56 -145.5t136 -60.5t136.5 60.5t56.5 145.5t-56.5 145.5t-136.5 60.5t-136 -60.5t-56 -145.5z" />
<glyph unicode="&#x26;" horiz-adv-x="1288" d="M117 331q-28 175 102 342q84 107 225 188l25 14l-12 26q-23 49 -38 89q-91 230 -69 376q15 99 81 152q70 56 195 56q137 0 222 -71q79 -66 96 -171q20 -126 -54 -243q-80 -127 -233 -178q-54 -18 -105 -40l-30 -13l15 -29q64 -123 149 -250q109 -161 233 -298l25 -28 l22 30q8 11 10 14q152 216 158 593h40q-3 -184 -42 -336q-42 -164 -123 -280q-3 -5 -9.5 -14t-10.5 -13l-17 -22l19 -19q140 -138 250 -185l-12 -39q-116 48 -263 193l-21 21l-21 -20q-157 -145 -389 -145q-177 0 -289 86q-108 82 -129 214zM156 337q20 -124 123.5 -195.5 t255.5 -71.5q215 0 360 133l23 21l-21 23q-129 140 -244 310q-90 134 -152 254l-15 29l-28 -16q-127 -73 -207 -176q-121 -154 -95 -311zM389 1360q-25 -164 102 -439l13 -28l28 13q51 23 112 43q95 31 159.5 95t89 137t12.5 145q-16 97 -91.5 152.5t-187.5 55.5 q-211 0 -237 -174z" />
<glyph unicode="'" horiz-adv-x="460" d="M167 1330q62 94 62 224v17h41v-17q0 -142 -73 -252z" />
<glyph unicode="(" horiz-adv-x="686" d="M164 671q0 372 128 634q59 121 134 189t156 79v-39q-66 -11 -124 -62q-74 -64 -132 -184q-124 -254 -124 -617t124 -617q57 -118 132 -183q60 -53 124 -63v-39q-81 11 -156 79t-134 189q-128 262 -128 634z" />
<glyph unicode=")" horiz-adv-x="663" d="M129 -192q64 11 124 63q75 65 132 183q124 254 124 617t-124 617q-58 120 -132 184q-59 51 -124 62v39q81 -11 156 -79t134 -189q128 -262 128 -634t-128 -634q-59 -121 -134 -189t-156 -79v39z" />
<glyph unicode="*" horiz-adv-x="980" d="M137 1156v38h343l-261 346l29 22l269 -356l270 356l29 -22l-261 -346h343v-38h-343l261 -346l-29 -22l-270 356l-269 -356l-29 22l261 346h-343z" />
<glyph unicode="+" horiz-adv-x="1165" d="M141 586v41h453v553h41v-553h452v-41h-452v-553h-41v553h-453z" />
<glyph unicode="," horiz-adv-x="419" d="M243 -219q83 59 83 178v144h41v-144q0 -112 -67 -183q-18 -18 -42 -34z" />
<glyph unicode="-" horiz-adv-x="788" d="M166 586v41h501v-41h-501z" />
<glyph unicode="." horiz-adv-x="411" d="M236 103q0 33 17.5 51.5t47.5 18.5q29 0 46 -18.5t17 -51.5t-17 -51.5t-48 -18.5q-29 0 -46 19t-17 51z" />
<glyph unicode="/" horiz-adv-x="1036" d="M248 31l512 1544h43l-512 -1544h-43z" />
<glyph unicode="0" horiz-adv-x="1169" d="M154 803q0 234 31 381q35 166 143 273q120 118 292 118q171 0 291 -118q108 -107 143 -273q32 -147 32 -381t-31 -381q-35 -165 -144 -273q-120 -118 -291 -118q-172 0 -292 118q-108 107 -143 273q-31 147 -31 381zM194 802.5q0 -226.5 31 -372.5q11 -53 32 -102.5 t55 -97t77 -82t102.5 -56t128.5 -21.5t128.5 21.5t102.5 56t77 82t55 97t32 102.5q31 146 31 372.5t-31 372.5q-14 67 -44 128t-77 114.5t-118 85.5t-156 32t-156 -32t-118 -85.5t-77 -114.5t-44 -128q-31 -146 -31 -372.5z" />
<glyph unicode="1" horiz-adv-x="667" d="M125 1217v41h22q69 0 202 142q59 63 95 119q18 28 29 56h49v-1544h-41v1462l-55 -67q-14 -18 -47 -54q-61 -64 -120 -107q-68 -48 -112 -48h-22z" />
<glyph unicode="2" horiz-adv-x="1019" d="M141 31v20q0 274 143 463q39 51 95 103t92 79t110 80q43 31 61.5 44.5t56 42.5t55 47t44.5 47t40.5 54t28 57.5t20.5 68t6 74.5v1v1q0 10 -2.5 29t-14 59.5t-31.5 75.5q-88 157 -298 157q-157 0 -272 -87q-40 -31 -70 -67l-35 21q33 41 76 75q126 98 301 98 q237 0 335 -181q21 -39 34 -85.5t15.5 -66.5t2.5 -28q0 -157 -103 -279q-28 -33 -69 -69t-71 -58t-87 -63q-54 -38 -84 -60.5t-79 -64t-78 -74.5t-65.5 -83.5t-57.5 -101t-37 -117t-20 -140.5l-2 -32h745v-40h-785z" />
<glyph unicode="3" horiz-adv-x="1083" d="M132 1362l11 18q38 56 95 101q130 99 302 99q175 0 289 -119q107 -112 107 -262q0 -158 -121 -259q-39 -33 -93 -58l-68 -32l71 -25q86 -31 150 -84q133 -111 133 -282q0 -78 -30.5 -152.5t-86.5 -132.5q-124 -130 -315 -130q-189 0 -330 108q-48 37 -86 85l36 21 q34 -42 79 -76q129 -97 301 -97q116 0 207.5 55.5t137.5 140t46 178.5q0 149 -118 250q-131 110 -389 116v42q213 8 328 105q107 91 107 227q0 86 -41.5 162.5t-124.5 127t-189 50.5q-70 0 -133 -18.5t-102 -42.5t-70 -53t-42.5 -44.5t-14.5 -21.5l-11 -18z" />
<glyph unicode="4" horiz-adv-x="1144" d="M135 679l700 896h55v-916h187v-41h-187v-587h-41v587h-713zM171 659h678v867z" />
<glyph unicode="5" horiz-adv-x="1081" d="M138 332l38 16l8 -19q49 -117 149.5 -187t221.5 -70q169 0 287.5 127t118.5 305t-118.5 305.5t-287.5 127.5q-171 0 -289 -129l-25 -27l-58 2l33 792h691v-41h-652l-29 -701l53 44q48 40 100 63q85 38 176 38q185 0 316 -139q130 -138 130 -335q0 -196 -130 -334 q-131 -139 -316 -139q-132 0 -243.5 77t-165.5 206z" />
<glyph unicode="6" horiz-adv-x="1148" d="M180.5 770q-0.5 71 0 102.5t1.5 95t5 98t10 88.5t17 89t25.5 76.5t35 73.5t46.5 59q113 118 323 118q108 0 201 -52q90 -50 151 -139l12 -16l-33 -23l-12 16q-57 82 -140.5 128t-178.5 46q-192 0 -294 -106q-48 -49 -78 -122t-40.5 -152t-15 -170t0.5 -176l2 -94l54 77 q19 29 41 52q128 140 311 140t311 -140q129 -140 129 -336t-128 -336q-127 -137 -312 -139q-186 2 -311 139q-46 50 -72 101.5t-43.5 152t-17.5 251.5q0 27 -0.5 98zM226 503q0 -179 116.5 -307t282.5 -128q109 0 201.5 59t145.5 159t53 217q0 179 -117 307.5t-283 128.5 t-282.5 -128.5t-116.5 -307.5z" />
<glyph unicode="7" horiz-adv-x="1179" d="M141 1535v40h958v-57q-196 -263 -366 -546q-363 -605 -381 -941h-40q9 185 121 451q96 229 266 512q136 227 327 492l35 49h-920z" />
<glyph unicode="8" horiz-adv-x="1103" d="M141 452q0 173 130 297q52 49 112 78l54 26l-53 28q-45 24 -83 59q-118 109 -118 263q0 155 118 264q117 108 285 108q167 0 284 -108q119 -110 119 -264q0 -153 -119 -263q-37 -34 -84 -59l-53 -29l54 -26q62 -31 110 -76q130 -124 130 -298t-130 -298 q-131 -123 -313 -123t-313 123q-130 124 -130 298zM182 452q0 -158 118 -269t284 -111t284 111t118 269t-118 268.5t-284 110.5t-284 -110.5t-118 -268.5zM224 1203q0 -138 106.5 -234.5t255.5 -96.5t255.5 96.5t106.5 234.5t-106.5 234.5t-255.5 96.5t-255.5 -96.5 t-106.5 -234.5z" />
<glyph unicode="9" horiz-adv-x="1148" d="M145 1095q0 193 129 335q128 140 311 140t311 -140q46 -50 72 -101.5t43.5 -152t17.5 -251.5q0 -27 0.5 -98t0 -102t-1.5 -95t-5 -98.5t-10 -88.5t-17 -88.5t-25.5 -76t-35 -73.5t-46.5 -59q-113 -118 -323 -118q-108 0 -201 52q-90 50 -151 139l-12 16l33 23l12 -17 q57 -82 140.5 -127.5t178.5 -45.5q192 0 294 106q48 49 78 122t40.5 152t15 170t-0.5 176l-2 94l-54 -78q-17 -25 -41 -51q-128 -140 -311 -140q-184 0 -311 139q-129 140 -129 337zM186 1095q0 -179 116.5 -307.5t282.5 -128.5t282.5 128.5t116.5 307.5t-116.5 307 t-282.5 128t-282.5 -128t-116.5 -307z" />
<glyph unicode=":" horiz-adv-x="417" d="M236 103q0 33 17.5 51.5t47.5 18.5q29 0 46 -18.5t17 -51.5t-17 -51.5t-48 -18.5q-29 0 -46 19t-17 51zM236 905q0 33 17.5 51.5t47.5 18.5q29 0 46 -18.5t17 -51.5t-17 -51.5t-48 -18.5q-29 0 -46 19t-17 51z" />
<glyph unicode=";" horiz-adv-x="442" d="M243 -219q83 59 83 178v143h41v-143q0 -112 -67 -183q-18 -18 -42 -34zM282 905q0 33 17.5 51.5t47.5 18.5q29 0 46.5 -18.5t17.5 -51.5t-17 -51.5t-48 -18.5q-29 0 -46.5 19t-17.5 51z" />
<glyph unicode="&#x3c;" horiz-adv-x="1191" d="M135 613v26l952 571l19 -32l-918 -552l918 -551l-19 -33z" />
<glyph unicode="=" horiz-adv-x="1206" d="M166 357v41h946v-41h-946zM166 830v41h946v-41h-946z" />
<glyph unicode="&#x3e;" horiz-adv-x="1193" d="M151 75l918 551l-918 552l19 32l952 -571v-26l-952 -571z" />
<glyph unicode="?" horiz-adv-x="997" d="M452 1366l11 16q64 93 154.5 143t192.5 50q220 0 326 -100q101 -95 101 -254q0 -188 -85 -293q-34 -40 -75 -67t-99 -56q-82 -41 -118 -78.5t-36 -108.5v-19h-38v19q0 39 10.5 70.5t23.5 51.5t41 40.5t45.5 30t54.5 28.5q44 22 70 37.5t62.5 47.5t56 68.5t34.5 95.5 t15 133q0 155 -101 235.5t-288 80.5q-92 0 -174.5 -46.5t-140.5 -130.5l-11 -16zM756 98q0 31 17.5 49t45.5 18t44.5 -17.5t16.5 -49.5q0 -31 -17 -49t-46 -18q-27 0 -44 18t-17 49z" />
<glyph unicode="@" horiz-adv-x="1892" d="M147 616q0 198 67 382q66 179 182 313q114 133 271 211q159 78 333 78t333 -78q157 -78 271 -211q117 -135 182 -314q66 -181 66 -381q0 -66 -21 -165.5t-59 -186.5q-46 -104 -106 -164q-72 -71 -160 -71q-84 0 -127 52q-32 40 -36 105l-4 69l-49 -50q-60 -60 -129 -94 q-87 -43 -185 -43q-99 0 -186 43t-151 118q-137 159 -137 385q0 225 137 384q64 75 151 118t186 43q98 0 185 -43t151 -118q60 -69 96 -161l38 -97l82 406l41 -9l-182 -897q-15 -87 24 -134q30 -37 95 -37q69 0 131 60q54 54 97 151q36 83 56.5 176t20.5 160q0 319 -165 571 q-113 172 -282.5 272t-363.5 100q-166 0 -316.5 -75.5t-259 -202t-172.5 -301t-64 -364.5t64 -364t172.5 -301t259 -202t316.5 -75q146 0 284 59q83 36 157 92l17 13l24 -33l-16 -12q-83 -62 -166 -98q-142 -62 -300 -62q-176 0 -333 77q-155 77 -271 212q-117 135 -182 312 q-67 184 -67 382zM543 614q0 -135 57 -251t157 -185t219 -69t219 69t157 185t57 251t-57 251t-157 184.5t-219 68.5t-219 -68.5t-157 -184.5t-57 -251z" />
<glyph unicode="A" horiz-adv-x="1327" d="M133 31l539 1544h51l538 -1544h-41l-220 630l-31 -15q-48 -24 -133 -24h-303q-47 0 -85.5 -14t-60 -35.5t-30.5 -34t-14 -23.5v-1l-169 -483h-41zM383 628l59 19q44 14 91 14h303q93 0 132 30l17 14l-288 825z" />
<glyph unicode="B" horiz-adv-x="1318" d="M182 31v1544h632q154 0 264 -109.5t110 -264.5q0 -102 -51 -188t-136 -136l-49 -29l50 -25q62 -32 108 -78q122 -122 122 -296q0 -173 -122 -295q-121 -121 -295 -123h-633zM223 72h497h94q156 0 266.5 110.5t110.5 266.5t-110.5 266.5t-266.5 110.5l-475 1q-44 0 -74 12 l-42 16v-783zM223 957q3 -35 25 -58q28 -31 91 -31h475q138 0 235.5 97.5t97.5 235.5t-97.5 235.5t-235.5 97.5h-591v-576v-1z" />
<glyph unicode="C" horiz-adv-x="1357" d="M154 803q0 154 46.5 294.5t133.5 249.5q84 106 198 166q116 62 244 62q147 0 281 -83q124 -78 213 -221l11 -17l-36 -22l-11 17q-83 134 -202.5 209t-255.5 75q-160 0 -294 -99.5t-210.5 -267t-76.5 -363.5t76.5 -363.5t210.5 -267t294 -99.5q136 0 255.5 74.5 t202.5 208.5l11 18l36 -22l-11 -18q-88 -141 -213 -220q-134 -83 -281 -83q-129 0 -244 61q-113 59 -198 167q-87 109 -133.5 249.5t-46.5 294.5z" />
<glyph unicode="D" horiz-adv-x="1327" d="M182 33v1542h442q126 0 241 -61q110 -59 196 -166q86 -108 132 -248t46 -294q0 -159 -47 -299t-131 -246q-87 -110 -196 -168q-114 -62 -242 -62zM223 74l401 -2q115 0 220 55.5t185 158.5q82 105 126 239t44 281q0 146 -45 280t-121 232.5t-183 157t-226 58.5h-401 v-1460z" />
<glyph unicode="E" horiz-adv-x="1177" d="M182 31v1544h895v-41h-854v-696l42 16q33 13 74 13h738v-41h-738q-63 0 -92 -32q-24 -26 -24 -63v-659h854v-41h-895z" />
<glyph unicode="F" horiz-adv-x="1198" d="M182 31v1544h947v-41h-906v-697l42 17q25 10 68 12h638v-41h-632q-63 0 -91 -31q-25 -27 -25 -67v-696h-41z" />
<glyph unicode="G" horiz-adv-x="1460" d="M154 803q0 154 46.5 294.5t133.5 249.5q84 107 197 166q116 62 243 62q155 0 292 -91q117 -78 200 -212l-36 -20q-82 133 -202 207.5t-254 74.5q-160 0 -293.5 -99.5t-209.5 -267.5t-76 -364t76 -364t209.5 -267.5t293.5 -99.5q96 0 193.5 52.5t175.5 141t131.5 214 t62.5 262.5l2 32h-32h-415q-94 0 -153 -56q-6 -5 -24 -27l-40 14q18 27 35 43q66 62 170 67q10 0 236 1h226h18q8 0 14 -6t6 -15q0 -153 -52 -294q-49 -134 -138 -243t-198 -168t-218 -59q-128 0 -243 61q-111 59 -197 167q-87 109 -133.5 249.5t-46.5 294.5zM1360 816z" />
<glyph unicode="H" horiz-adv-x="1280" d="M182 31v1544h41v-776l47 29q60 38 145 38h514q95 0 154 56q23 21 34 44l4 6v603h41v-1544h-41v861l-47 -28q-60 -38 -137 -39h-522q-95 0 -154 -56q-24 -22 -34 -43l-4 -7v-688h-41z" />
<glyph unicode="I" horiz-adv-x="389" d="M182 31v1544h41v-1544h-41z" />
<glyph unicode="J" horiz-adv-x="841" d="M129 32v41q153 10 278.5 111t196.5 264t71 352v775h41v-775q0 -154 -46.5 -294t-132.5 -248q-85 -106 -197 -166q-99 -52 -211 -60z" />
<glyph unicode="K" horiz-adv-x="1243" d="M182 31v1544h41v-1544h-41zM185 837l35 57q14 23 38 43v1l683 637h60l-716 -669q-41 -36 -41 -69q0 -35 34 -65l803 -741h-61l-766 708l-1 1q-20 17 -33 38z" />
<glyph unicode="L" horiz-adv-x="1206" d="M182 31v1544h41v-1503h31h874v-41h-946z" />
<glyph unicode="M" horiz-adv-x="1501" d="M182 31v1544h54l552 -1514l553 1514h54v-1544h-41v1459l-533 -1459h-66l-532 1459v-1459h-41z" />
<glyph unicode="N" horiz-adv-x="1267" d="M182 31v1544h61l841 -1544h-47l-814 1494v-1494h-41zM1043 31v1544h41v-1544h-41z" />
<glyph unicode="O" d="M154 803q0 154 46.5 294.5t133.5 249.5q84 107 197 166q116 62 243 62t243 -62q113 -59 197 -166q87 -109 133.5 -249.5t46.5 -294.5t-46.5 -294.5t-133.5 -249.5q-86 -108 -197 -167q-115 -61 -243 -61t-243 61q-111 59 -197 167q-87 109 -133.5 249.5t-46.5 294.5z M195 803q0 -196 76 -364t209.5 -267.5t293.5 -99.5t293.5 99.5t209.5 267.5t76 364q0 147 -45 281.5t-122 233t-184.5 157t-227.5 58.5t-227.5 -58.5t-184.5 -157t-122 -233t-45 -281.5z" />
<glyph unicode="P" horiz-adv-x="1257" d="M182 31v1544h632q154 0 263.5 -110.5t109.5 -265.5q0 -154 -109.5 -263.5t-264.5 -109.5l-475 -1q-62 0 -91 -32q-21 -22 -24 -57v-1v-704h-41zM223 837l42 17q27 10 66 12l482 1q137 0 235 97.5t98 234.5q0 138 -97.5 236.5t-235.5 98.5l-590 -1v-696z" />
<glyph unicode="Q" d="M154 803q0 154 46.5 294.5t133.5 249.5q84 107 197 166q116 62 243 62t243 -62q113 -59 197 -166q87 -109 133.5 -249.5t46.5 -294.5t-46.5 -294.5t-133.5 -249.5q-27 -35 -57 -63l-18 -18l13 -21q48 -74 129 -92l3 -42q-32 6 -53 14q-64 27 -107 88l-17 25l-26 -18 q-24 -17 -64 -39q-116 -62 -243 -62t-243 62q-113 59 -197 166q-87 109 -133.5 249.5t-46.5 294.5zM195 803q0 -196 76 -364t209.5 -267.5t293.5 -99.5q120 0 227.5 59t184.5 158t122 233.5t45 280.5t-45 280.5t-122 233.5t-184.5 158t-227.5 59t-227.5 -59t-184.5 -158 t-122 -233.5t-45 -280.5z" />
<glyph unicode="R" horiz-adv-x="1284" d="M182 31v1544h631q154 0 264 -110.5t110 -265.5q0 -135 -86.5 -238.5t-216.5 -128.5l-50 -9l31 -40q19 -24 32 -49l312 -703h-45l-308 693l-1 1q-24 42 -56.5 66.5t-49 29t-27.5 4.5h-384q-62 0 -91 -32q-21 -22 -24 -57v-1v-704h-41zM223 837l42 17q27 10 66 12l482 1 q137 0 235 97.5t98 234.5q0 138 -97.5 236t-235.5 98h-590v-696z" />
<glyph unicode="S" horiz-adv-x="1286" d="M136 246l32 24l13 -16q26 -33 50.5 -57t65.5 -49.5t90 -41.5t121.5 -26.5t162.5 -10.5q220 0 353.5 102t133.5 279q0 47 -13 87t-33 69.5t-57 56t-71.5 44.5t-91 37t-101.5 31.5t-116 29.5q-81 20 -130 33.5t-113.5 37t-108.5 49.5q-79 46 -120 110q-47 74 -47 168 q0 166 118 264q131 108 397 108q122 0 231 -53t186 -150l12 -14l-32 -24l-13 16q-70 89 -170.5 138t-213.5 49q-249 0 -370 -99q-103 -84 -103 -235q0 -42 8.5 -78t28.5 -65.5t42 -53t59.5 -44t70 -36t84.5 -31.5t92.5 -27t102.5 -26q82 -20 129 -33t111 -36t108 -49 q80 -46 120 -108q45 -69 45 -166q0 -87 -33 -162q-36 -80 -100 -135q-142 -122 -395 -122q-215 0 -341 55q-101 43 -182 146z" />
<glyph unicode="T" horiz-adv-x="1314" d="M129 1533v41h1124v-41h-557v-1502h-41v1502h-526z" />
<glyph unicode="U" horiz-adv-x="1236" d="M174 507v1068h41v-1068q0 -179 127.5 -306.5t306.5 -127.5t306.5 127.5t127.5 306.5v1068h41v-1068q0 -197 -139 -336t-336 -139t-336 139t-139 336z" />
<glyph unicode="V" horiz-adv-x="1339" d="M133 1575h44l528 -1513l527 1513h44l-539 -1544h-65z" />
<glyph unicode="W" horiz-adv-x="2039" d="M133 1575h38l525 -1498l366 1348h22l366 -1348l524 1498h39l-541 -1544h-47l-352 1296l-352 -1296h-48z" />
<glyph unicode="X" horiz-adv-x="1433" d="M157 1575h46l550 -741l550 741h46l-573 -772l574 -772h-47l-550 741l-550 -741h-45l572 772z" />
<glyph unicode="Y" horiz-adv-x="1441" d="M151 1575h48l560 -754l560 754h49l-554 -746l-1 -4q-34 -92 -34 -191v-603h-39v603q0 99 -34 191l-1 4z" />
<glyph unicode="Z" horiz-adv-x="1398" d="M131 31v42l1158 1461h-1118v41h1170v-42l-1158 -1461h1118v-41h-1170z" />
<glyph unicode="[" horiz-adv-x="468" d="M184 -252v1827h187v-41h-146v-1745h146v-41h-187z" />
<glyph unicode="\" horiz-adv-x="784" d="M137 1575h43l512 -1544h-43z" />
<glyph unicode="]" horiz-adv-x="473" d="M129 -211h145v1745h-145v41h186v-1827h-186v41z" />
<glyph unicode="^" horiz-adv-x="933" d="M157 1324l351 244l318 -244l-25 -32l-294 225l-326 -227z" />
<glyph unicode="_" horiz-adv-x="1189" d="M154 31v41h946v-41h-946z" />
<glyph unicode="`" horiz-adv-x="419" d="M172 1529l31 28q73 -109 73 -251v-18h-41v18q0 127 -63 223z" />
<glyph unicode="a" horiz-adv-x="1038" d="M137 347q0 132 117 225q115 91 276 91h248q46 0 72 24q29 28 31 84v68q0 116 -98.5 195.5t-234.5 79.5q-87 0 -163 -35t-122 -97l-12 -16l-33 25l12 16q51 69 135.5 108.5t182.5 39.5q155 0 263 -91q112 -94 112 -225v-492q0 -132 -117 -225q-115 -91 -276 -91t-276 91 q-117 93 -117 225zM179 347q0 -114 101 -193q102 -82 250 -82t250 82q101 79 101 193v302l-42 -17q-25 -10 -61 -10h-248q-148 0 -250 -82q-101 -79 -101 -193z" />
<glyph unicode="b" horiz-adv-x="1075" d="M182 31v1544h41v-342q0 -41 25 -68q28 -31 91 -31h83q229 0 390 -161q78 -78 120 -179t42 -212t-42 -211.5t-120 -178.5q-161 -161 -390 -161h-240zM223 72h199q139 0 256.5 68t186 185.5t68.5 256.5t-68.5 256.5t-186 186t-256.5 68.5h-83q-44 0 -74 12l-42 17v-1050z " />
<glyph unicode="c" horiz-adv-x="1038" d="M150 592q0 110 35 214.5t99 182.5q65 79 148 121q85 45 182 45q207 0 316 -147l12 -17l-33 -24l-12 16q-46 62 -121 96.5t-162 34.5q-178 0 -301 -152.5t-123 -369.5t123 -369t301 -152q87 0 162 34.5t121 96.5l12 17l33 -25l-12 -16q-52 -69 -134 -108.5t-182 -39.5 q-95 0 -182 45q-83 42 -148 121q-64 78 -99 182t-35 214z" />
<glyph unicode="d" horiz-adv-x="1064" d="M145 582q0 111 42 212t120 179q161 161 390 161h83q63 0 91 31q12 13 18.5 30t6.5 27v11v342h41v-1544h-240q-229 0 -390 161q-78 78 -120 178.5t-42 211.5zM186 582q0 -139 68.5 -256.5t186 -185.5t256.5 -68h199v1050l-42 -17q-30 -12 -74 -12h-83q-139 0 -256.5 -68.5 t-186 -186t-68.5 -256.5z" />
<glyph unicode="e" horiz-adv-x="1056" d="M150 593q0 233 135 396q65 79 148 121q87 45 181 45q158 0 253 -78q89 -74 89 -179q0 -113 -100 -191q-109 -85 -290 -85h-280q-35 0 -58 -21q-34 -32 -34 -75q0 -12 3 -25q27 -183 144 -306t274 -123q205 0 303 131l13 16l32 -24l-12 -17q-110 -147 -336 -147 q-194 0 -331 166q-92 113 -122 264v1v1q-12 46 -12 130zM190 638l49 18q9 3 21 5t20 2h8h278q168 0 265 76q83 65 83 159q0 89 -80 152.5t-219 63.5q-156 0 -272.5 -122t-144.5 -303z" />
<glyph unicode="f" horiz-adv-x="681" d="M176 31v1123q0 174 114 297q115 124 277 124h20v-41h-20q-142 0 -243 -106t-107 -256l-2 -47l44 17q30 12 73 12h204v-41h-204q-63 0 -91 -31q-24 -26 -24 -63v-988h-41z" />
<glyph unicode="g" horiz-adv-x="1064" d="M150 609q0 110 41.5 211t119.5 179t179 119.5t211 41.5l239 1v-1225q0 -132 -110 -224q-110 -91 -263 -91q-97 0 -181.5 39.5t-135.5 108.5l-12 16l33 25l12 -17q46 -62 121.5 -96.5t162.5 -34.5q136 0 234 79t98 195v31v1q-3 37 -24 59q-28 31 -91 31h-83 q-229 0 -390 161q-78 78 -119.5 179t-41.5 211zM190 609q0 -138 68.5 -255.5t186 -186t256.5 -68.5h83q42 0 74 -13l41 -16v1050l-198 -1q-139 0 -256.5 -68.5t-186 -186t-68.5 -255.5z" />
<glyph unicode="h" horiz-adv-x="1087" d="M182 31v1544h41v-320q0 -64 32 -93q26 -24 67 -24l251 1q64 0 130 -24q83 -30 147 -100q115 -123 115 -297v-687h-41v687q0 156 -102.5 268t-248.5 112l-246 -1h-1q-33 0 -60 11l-43 18v-1095h-41z" />
<glyph unicode="i" horiz-adv-x="382" d="M178 31v1124h41v-1124h-41zM178 1473v28q0 8 6.5 14t14.5 6t14 -6t6 -14v-28q0 -8 -6 -14.5t-14 -6.5t-14.5 6.5t-6.5 14.5z" />
<glyph unicode="j" horiz-adv-x="667" d="M109 -338h20q146 0 248 111.5t102 267.5v1165h41v-1165q0 -174 -114 -297t-277 -123h-20v41zM479 1473v28q0 8 6.5 14t14.5 6t14 -6t6 -14v-28q0 -8 -6 -14.5t-14 -6.5t-14.5 6.5t-6.5 14.5z" />
<glyph unicode="k" horiz-adv-x="1122" d="M182 31v1544h41v-980l705 560h67l-577 -458l36 -23q23 -14 36 -31l528 -612h-56l-506 589q-25 31 -64 33q-21 1 -42 -10l-3 -2l-124 -98v-512h-41z" />
<glyph unicode="l" horiz-adv-x="389" d="M182 31v1544h41v-1544h-41z" />
<glyph unicode="m" horiz-adv-x="1779" d="M170 31v703q0 174 114 297q115 124 277 124t277 -124q38 -43 66 -95l28 -53l27 53q28 52 66 95q115 124 278 124q162 0 276 -123q115 -123 115 -298v-703h-41v703q0 156 -102 268t-248 112t-248.5 -112t-102.5 -268v-703h-41v703q0 156 -102 268t-248 112t-248 -112 t-102 -268v-703h-41z" />
<glyph unicode="n" horiz-adv-x="1075" d="M170 31v703q0 174 114 297q115 124 277 124t277 -124q114 -123 114 -297v-703h-41v703q0 156 -102 268t-248 112t-248 -112t-102 -268v-703h-41z" />
<glyph unicode="o" horiz-adv-x="1212" d="M150 593q0 233 140 396q66 78 153 121q90 45 189 45t189 -45q87 -43 153 -121q140 -163 140 -396q0 -232 -140 -395q-66 -78 -153 -121q-90 -45 -189 -45t-189 45q-87 43 -153 121q-140 163 -140 395zM190 593q0 -139 58 -258.5t160.5 -190.5t223.5 -71t223 71t160 190.5 t58 258.5t-58 259t-160 191t-223 71t-223.5 -71t-160.5 -191t-58 -259z" />
<glyph unicode="p" horiz-adv-x="1073" d="M178 -379v1544h240q229 0 390 -161q78 -78 120 -178.5t42 -211.5t-42 -212t-120 -179q-161 -161 -390 -161h-83q-63 0 -91 -31q-12 -13 -18.5 -30t-6.5 -27v-11v-342h-41zM219 74l42 17q30 12 74 12h83q139 0 256.5 68.5t186 186t68.5 256.5t-68.5 256.5t-186 185.5 t-256.5 68h-199v-1050z" />
<glyph unicode="q" horiz-adv-x="1067" d="M150 614q0 229 161 390t390 161h240v-1544h-41v342q0 42 -24 68q-28 31 -92 31h-83q-229 0 -390 161q-78 78 -119.5 179t-41.5 212zM191 614q0 -139 68 -256.5t185.5 -186t256.5 -68.5h83q44 0 74 -12l42 -17v1050h-199q-104 0 -198.5 -40.5t-162.5 -108.5t-108.5 -162.5 t-40.5 -198.5z" />
<glyph unicode="r" horiz-adv-x="630" d="M170 31v703q0 174 114 297q101 110 247 123v-41q-136 -13 -228 -122.5t-92 -256.5v-703h-41z" />
<glyph unicode="s" horiz-adv-x="995" d="M148 194l32 25l12 -16q47 -62 120.5 -96.5t216.5 -34.5q149 0 240.5 71.5t91.5 195.5q0 109 -98 168q-30 18 -75 34.5t-71.5 24t-86.5 22.5q-59 15 -92 24t-78 26t-76 36q-119 72 -119 207q0 124 84 194q93 79 280 79q86 0 163 -38.5t131 -109.5l13 -16l-33 -25l-12 17 q-48 62 -117 97t-145 35q-153 0 -238.5 -59t-85.5 -174q0 -111 100 -172q63 -38 235 -82q64 -17 92.5 -24.5t74.5 -24.5t77 -36q118 -71 118 -203q0 -134 -95 -218q-101 -90 -278 -90q-151 0 -240 40q-74 33 -129 107z" />
<glyph unicode="t" horiz-adv-x="647" d="M174 453v1122h41v-471l42 17q30 12 74 12h205v-41h-205q-63 0 -92 -32q-24 -26 -24 -63v-544q0 -148 93 -257.5t228 -122.5v-41q-147 12 -248 123q-114 122 -114 298z" />
<glyph unicode="u" horiz-adv-x="1067" d="M168 452v703h41v-703q0 -156 102 -268t248 -112t248 112t102 268v703h41v-703q0 -174 -114 -297q-115 -124 -277 -124t-277 124q-114 123 -114 297z" />
<glyph unicode="v" horiz-adv-x="1107" d="M134 1155h44l402 -1078l401 1078h44l-419 -1124h-53z" />
<glyph unicode="w" horiz-adv-x="1705" d="M134 1155h44l400 -1073l289 932h53l289 -933l400 1074h44l-419 -1124h-52l-288 930l-289 -930h-52z" />
<glyph unicode="x" horiz-adv-x="1120" d="M158 1155h47l383 -530l383 530h47l-407 -562l407 -562h-47l-383 530l-383 -530h-46l406 562z" />
<glyph unicode="y" horiz-adv-x="1116" d="M134 1155h40l352 -942q15 -46 25 -84l25 -95l418 1121h40l-476 -1273q-41 -116 -134 -187q-99 -74 -216 -74h-19v37h19q106 0 192 65.5t124 173.5l6 17q8 24 8 59q0 48 -15 117q-4 17 -8.5 34.5t-8.5 30t-7.5 23l-5.5 16.5l-2 6z" />
<glyph unicode="z" horiz-adv-x="1089" d="M133 30v43l825 1040h-785v42h838v-42l-826 -1041h785v-42h-837z" />
<glyph unicode="{" horiz-adv-x="794" d="M129 648v56h58q88 5 137 47t72.5 136t27.5 264q2 107 9 176t27 119q54 132 220 129h29v-57l-30 1q-127 2 -167 -94q-14 -33 -21 -84t-8.5 -84.5t-2.5 -106.5q-5 -273 -65 -379q-27 -46 -60 -71l-32 -24l32 -25q33 -25 60 -71q60 -106 65 -378q1 -73 2.5 -106.5t8.5 -84.5 t21 -84q40 -96 167 -94h30v-56l-29 -1h-8q-160 0 -212 129q-32 80 -36 296q-4 170 -27 264t-72.5 135.5t-137.5 46.5z" />
<glyph unicode="|" horiz-adv-x="389" d="M184 -248v1823h41v-1823h-41z" />
<glyph unicode="}" horiz-adv-x="796" d="M131 -167h30q127 -2 167 94q13 33 20.5 85.5t8 82t2.5 107.5q5 272 65 378q26 45 61 71l32 25l-32 24q-35 26 -61 71q-60 106 -65 379q-3 165 -16 224q-6 28 -15 51q-40 96 -167 94l-30 -1v57h29q166 3 220 -129q20 -50 27 -119t9 -176q4 -170 27 -264t72 -136t137 -47h1 h58v-56l-58 -1q-88 -5 -137.5 -46.5t-72.5 -135.5t-27 -264q-4 -216 -36 -296q-52 -129 -213 -129h-7l-29 1v56z" />
<glyph unicode="~" horiz-adv-x="1089" d="M160 628l8 19q73 155 164 176q56 14 123 -23q40 -22 114 -80q2 -2 18.5 -15t21 -16.5t20 -15t22 -15.5t21.5 -13t23 -12t22 -8.5t24 -6.5t22.5 -1t23.5 3q86 20 165 190l9 19l37 -18l-8 -18q-43 -93 -95 -150q-46 -51 -99 -63q-16 -4 -35 -4q-49 0 -99 28.5t-119 83.5 q-4 3 -20 16t-21.5 17.5t-21 15.5t-23 15.5t-22 13t-24.5 11.5t-22.5 6t-24 3t-23.5 -3q-73 -17 -136 -153l-8 -19z" />
<glyph unicode="&#xa1;" horiz-adv-x="397" d="M147 1505q0 32 17.5 51t46.5 19q31 0 48.5 -18.5t17.5 -51.5t-17.5 -51.5t-46.5 -18.5q-30 0 -48 18.5t-18 51.5zM191 31v903h42v-903h-42z" />
<glyph unicode="&#xa2;" horiz-adv-x="989" d="M119 594q0 232 135 395q65 79 148 121q70 36 140 43l27 3v106h41v-107l27 -3q81 -10 149.5 -47.5t112.5 -96.5l13 -17l-33 -24l-13 16q-46 62 -120.5 96.5t-161.5 34.5q-117 0 -215 -71t-153.5 -190.5t-55.5 -258.5q0 -141 55.5 -261t153.5 -191t215 -71q86 0 161.5 35 t121.5 97l12 16l33 -25l-13 -16q-44 -59 -112.5 -96.5t-149.5 -47.5l-27 -3v-107h-41v106l-27 3q-73 8 -140 42q-83 42 -148 121q-135 164 -135 398z" />
<glyph unicode="&#xa3;" horiz-adv-x="1175" d="M131 31v41q82 13 126 116q62 146 70 511l1 32l-162 -1v41l162 1v30q0 233 32 391q29 145 89 233q55 79 136 111q64 26 163 26q104 0 193 -85q76 -71 130 -190l-38 -16q-53 116 -127 183t-158 67q-94 0 -158.5 -28.5t-107.5 -91.5q-113 -164 -113 -600v-30h455v-41h-455 l-1 -30q-7 -375 -73 -529q-11 -29 -27 -52l-31 -47l870 1v-43h-976z" />
<glyph unicode="&#xa4;" horiz-adv-x="1146" d="M158 1155l29 29l143 -143l22 21q108 105 254 105q144 0 254 -105l22 -21l142 143l29 -29l-145 -146l13 -21q70 -109 70 -242q0 -132 -68 -240l-13 -21l143 -144l-29 -29l-140 140l-21 -21q-109 -107 -257 -107q-147 0 -256 107l-22 21l-140 -140l-29 29l144 144l-13 21 q-68 108 -68 240q0 135 69 242l13 20zM262 746q0 -156 100 -268.5t244 -112.5t244 112.5t100 268.5t-100 268t-244 112t-244 -112t-100 -268z" />
<glyph unicode="&#xa5;" horiz-adv-x="1359" d="M133 1540l31 24l552 -743l551 743l31 -24l-528 -711l-1 -4q-11 -30 -20 -69l-9 -37h338v-39h-342v-30l-1 -125v-30h343v-39h-343v-425h-39v425h-346v39h346v30v125l-1 30h-345v39h341l-8 37q-9 39 -20 69l-2 4z" />
<glyph unicode="&#xa7;" horiz-adv-x="972" d="M141 187l34 24l11 -17q40 -58 102 -89.5t183 -31.5q128 0 204.5 67t76.5 182q0 127 -140 186l-7 3l-3 -1q-44 11 -177 57.5t-165 67.5q-103 69 -103 194q0 116 72 183q40 37 106 57l58 18l-48 36q-88 67 -88 184q0 116 72 183q81 75 242 75q75 0 141.5 -36.5 t113.5 -103.5l11 -17l-33 -24l-12 17q-41 58 -98.5 90.5t-122.5 32.5q-144 0 -214 -64q-59 -55 -59 -153q0 -37 9 -67t30.5 -52.5t43 -38.5t59 -31t66 -24t76.5 -23q145 -40 209 -81q102 -67 102 -190q0 -127 -81 -206q-34 -32 -82 -54l-44 -19l36 -32q71 -63 71 -167 q0 -126 -81 -205q-87 -85 -241 -85q-132 0 -200 34t-118 105zM198 829q0 -37 9 -67t30.5 -52.5t43 -38.5t59 -31t66 -24t76.5 -23q94 -27 123 -38l7 -3l7 1q107 12 170 78t63 169q0 36 -9 65.5t-30 51.5t-42.5 38t-59 30.5t-65 23.5t-75.5 22q-11 3 -47 14l-4 1h-49 q-144 0 -214 -64q-59 -55 -59 -153z" />
<glyph unicode="&#xab;" horiz-adv-x="903" d="M144 593l285 283v-58l-227 -224l227 -224v-59zM463 592l287 284v-58l-228 -224l228 -226v-58z" />
<glyph unicode="&#xad;" horiz-adv-x="788" d="M166 586v41h501v-41h-501z" />
<glyph unicode="&#xb5;" horiz-adv-x="1069" d="M184 31v1544h41v-1095l43 17q27 11 60 11h1h247q146 0 248 112t102 268v687h41v-687q0 -174 -114 -297q-115 -124 -277 -124h-251q-43 0 -69 -25q-31 -28 -31 -91v-320h-41z" />
<glyph unicode="&#xb6;" horiz-adv-x="1251" d="M133 1199q0 154 109.5 263.5t264.5 109.5l630 3v-1544h-40v704l-1 1q-3 36 -24 58q-28 29 -81 31l-32 1v-795h-41v794l-412 1q-154 0 -263.5 109t-109.5 264zM174 1199q0 -137 98 -234.5t235 -97.5l411 -1v667l-411 -1q-138 0 -235.5 -98t-97.5 -235zM959 867l30 -1 q39 -2 66 -12l42 -17v697l-138 -1v-666z" />
<glyph unicode="&#xbb;" horiz-adv-x="911" d="M162 310v58l228 226l-227 224v58l286 -284zM483 311v59l227 224l-227 224v58l285 -283z" />
<glyph unicode="&#xbf;" horiz-adv-x="1001" d="M141 385q0 187 86 293q52 63 173 122q82 41 118.5 78.5t36.5 108.5v20h38v-20q0 -33 -6 -59.5t-20.5 -48t-26.5 -35.5t-38 -30.5t-39.5 -24t-45.5 -23.5q-37 -19 -58.5 -31.5t-53.5 -35.5t-51 -49.5t-38 -64t-28 -88t-9 -112.5q0 -155 101.5 -235.5t288.5 -80.5 q92 0 174.5 46.5t140.5 130.5l11 15l31 -21l-10 -16q-64 -93 -154.5 -143t-192.5 -50q-221 0 -330 103q-98 92 -98 251zM499 1508q0 31 17 49t46 18q27 0 44 -18t17 -49t-17.5 -49.5t-45.5 -18.5t-44.5 18t-16.5 50z" />
<glyph unicode="&#xc0;" horiz-adv-x="1329" d="M133 31l539 1544h53l538 -1544h-42l-220 630l-31 -15q-48 -24 -133 -24h-303q-94 0 -151 -54q-28 -27 -38 -52v-1l-169 -484h-43zM385 630l59 19q41 13 90 13h303q93 0 131 29l17 14l-287 823zM534 1870l25 32l289 -221l-25 -32z" />
<glyph unicode="&#xc1;" horiz-adv-x="1329" d="M133 31l539 1544h53l538 -1544h-42l-220 630l-31 -15q-48 -24 -133 -24h-303q-94 0 -151 -54q-28 -27 -38 -52v-1l-169 -484h-43zM385 630l59 19q41 13 90 13h303q93 0 131 29l17 14l-287 823zM485 1681l288 221l25 -32l-288 -221z" />
<glyph unicode="&#xc2;" horiz-adv-x="1329" d="M133 31l539 1544h53l538 -1544h-42l-220 630l-31 -15q-48 -24 -133 -24h-303q-94 0 -151 -54q-28 -27 -38 -52v-1l-169 -484h-43zM355 1681l358 249l325 -248l-25 -33l-301 231l-334 -233zM385 630l59 19q41 13 90 13h303q93 0 131 29l17 14l-287 823z" />
<glyph unicode="&#xc3;" horiz-adv-x="1329" d="M133 31l539 1544h53l538 -1544h-42l-220 630l-31 -15q-48 -24 -133 -24h-303q-94 0 -151 -54q-28 -27 -38 -52v-1l-169 -484h-43zM385 630l59 19q41 13 90 13h303q93 0 131 29l17 14l-287 823zM468 1732l9 19q41 87 92 98q31 7 60.5 -7.5t72.5 -48.5q3 -3 12.5 -11.5 t15 -12.5t17 -12.5t18.5 -10t20.5 -5.5t21.5 1q42 10 81 94l8 19l37 -17l-8 -19q-49 -103 -108 -117q-7 -2 -21 -2q-41 0 -120 61q-1 1 -16.5 14.5t-24.5 20t-25.5 11.5t-31.5 2q-32 -8 -64 -76l-9 -18z" />
<glyph unicode="&#xc4;" horiz-adv-x="1331" d="M133 31l539 1544h53l538 -1544h-42l-220 630l-31 -15q-48 -24 -133 -24h-303q-94 0 -151 -54q-28 -27 -38 -52v-1l-169 -484h-43zM385 630l59 19q41 13 90 13h303q93 0 131 29l17 14l-287 823zM494 1710v28q0 8 6 14t14 6t14.5 -6t6.5 -14v-28q0 -8 -6.5 -14.5 t-14.5 -6.5t-14 6.5t-6 14.5zM862 1710v28q0 8 6.5 14t14.5 6t14 -6t6 -14v-28q0 -8 -6 -14.5t-14 -6.5t-14.5 6.5t-6.5 14.5z" />
<glyph unicode="&#xc5;" horiz-adv-x="1329" d="M133 31l539 1544h53l538 -1544h-42l-220 630l-31 -15q-48 -24 -133 -24h-303q-94 0 -151 -54q-28 -27 -38 -52v-1l-169 -484h-43zM385 630l59 19q41 13 90 13h303q93 0 131 29l17 14l-287 823zM555 1772q0 58 41.5 99.5t99.5 41.5q59 0 100.5 -41.5t41.5 -99.5 q0 -48 -29 -86t-75 -51l-37 -4h-5l-33 4q-46 13 -75 51t-29 86zM596 1772q0 -41 29.5 -71t70.5 -30t71 30t30 71t-30 70.5t-71 29.5t-70.5 -29.5t-29.5 -70.5z" />
<glyph unicode="&#xc6;" horiz-adv-x="1673" d="M133 32l539 1543h927v-41h-853v-696l42 16q32 13 73 13h738v-41h-738q-63 0 -92 -32q-23 -25 -23 -63v-659l853 1v-41l-894 -1v607l-40 -13q-44 -14 -108 -14h-25q-48 0 -86 -14t-59.5 -35.5t-30.5 -34t-14 -23.5l-1 -1l-164 -471h-44zM382 619l59 19q44 14 91 14h25 q61 0 95.5 12t45.5 26l7 9v846z" />
<glyph unicode="&#xc7;" horiz-adv-x="1357" d="M154 803q0 155 46.5 295.5t133.5 249.5q84 106 198 166q118 62 244 62q149 0 282 -84q125 -79 213 -220l11 -18l-36 -22l-11 18q-83 134 -203 209t-256 75q-120 0 -228 -59t-185 -157.5t-122 -233t-45 -281.5t45 -281.5t122 -233t185 -157.5t228 -59q136 0 255.5 74 t202.5 208l12 20l36 -22l-11 -18q-89 -143 -213 -221q-110 -70 -239 -81l-28 -2v-96l20 -7q33 -12 57 -43q38 -47 38 -115t-38 -115q-39 -50 -98 -50q-70 0 -110 66l-11 18l36 22l11 -18q28 -46 74 -46q43 0 68.5 38t25.5 85q0 48 -25.5 85.5t-68.5 37.5h-21v73v65l-28 3 q-96 10 -189 59q-114 60 -198 166q-87 109 -133.5 249.5t-46.5 295.5z" />
<glyph unicode="&#xc8;" horiz-adv-x="1175" d="M180 29v1545h895v-41h-854v-696l42 16q33 13 74 13h738v-41h-738q-63 0 -92 -32q-24 -26 -24 -63v-660l854 2v-41zM471 1902l25 33l288 -221l-24 -32z" />
<glyph unicode="&#xc9;" horiz-adv-x="1175" d="M180 29v1545h895v-41h-854v-696l42 16q33 13 74 13h738v-41h-738q-63 0 -92 -32q-24 -26 -24 -63v-660l854 2v-41zM471 1714l289 221l24 -33l-288 -221z" />
<glyph unicode="&#xca;" horiz-adv-x="1175" d="M180 29v1545h895v-41h-854v-696l42 16q33 13 74 13h738v-41h-738q-63 0 -92 -32q-24 -26 -24 -63v-660l854 2v-41zM286 1715l358 249l325 -249l-25 -32l-301 230l-333 -232z" />
<glyph unicode="&#xcb;" horiz-adv-x="1175" d="M180 29v1545h895v-41h-854v-696l42 16q33 13 74 13h738v-41h-738q-63 0 -92 -32q-24 -26 -24 -63v-660l854 2v-41zM428 1710v28q0 8 6.5 14t14.5 6t14 -6t6 -14v-28q0 -8 -6 -14.5t-14 -6.5t-14.5 6.5t-6.5 14.5zM797 1710v28q0 8 6 14t14 6t14.5 -6t6.5 -14v-28 q0 -8 -6.5 -14.5t-14.5 -6.5t-14 6.5t-6 14.5z" />
<glyph unicode="&#xcc;" horiz-adv-x="532" d="M125 1902l25 33l288 -221l-24 -33zM210 31v1544h41v-1544h-41z" />
<glyph unicode="&#xcd;" horiz-adv-x="526" d="M121 1714l288 221l25 -33l-288 -221zM257 31v1544h41v-1544h-41z" />
<glyph unicode="&#xce;" horiz-adv-x="878" d="M121 1715l358 249l325 -249l-25 -32l-301 230l-334 -232zM442 31v1544h41v-1544h-41z" />
<glyph unicode="&#xcf;" horiz-adv-x="595" d="M109 1710v28q0 8 6 14t14 6t14.5 -6t6.5 -14v-28q0 -8 -6.5 -14.5t-14.5 -6.5t-14 6.5t-6 14.5zM292 31v1544h41v-1544h-41zM477 1710v28q0 8 6.5 14t14.5 6t14 -6t6 -14v-28q0 -8 -6 -14.5t-14 -6.5t-14.5 6.5t-6.5 14.5z" />
<glyph unicode="&#xd1;" horiz-adv-x="1234" d="M180 31v1544h44l853 -1479v1479h38v-1544h-43l-854 1480v-1480h-38zM415 1702l9 18q41 87 92 98q31 7 60.5 -7.5t72.5 -48.5q3 -3 12.5 -11.5t15 -12.5t17 -12.5t18.5 -10t20.5 -5.5t21.5 1q42 10 81 95l8 18l37 -17l-8 -19q-48 -101 -108 -116q-10 -3 -21 -3 q-41 0 -120 61q-1 1 -16.5 14.5t-24.5 20t-25.5 11.5t-31.5 2q-33 -8 -64 -75l-9 -19z" />
<glyph unicode="&#xd2;" d="M154 803q0 154 46.5 294.5t133.5 249.5q84 107 197 166q116 62 243 62t243 -62q113 -59 197 -166q87 -109 133.5 -249.5t46.5 -294.5t-46.5 -294.5t-133.5 -249.5q-86 -108 -197 -167q-115 -61 -243 -61t-243 61q-111 59 -197 167q-87 109 -133.5 249.5t-46.5 294.5z M195 803q0 -196 76 -364t209.5 -267.5t293.5 -99.5t293.5 99.5t209.5 267.5t76 364t-76 364t-209.5 267.5t-293.5 99.5t-293.5 -99.5t-209.5 -267.5t-76 -364zM617 1902l25 33l289 -221l-25 -32z" />
<glyph unicode="&#xd3;" d="M154 803q0 154 46.5 294.5t133.5 249.5q84 107 197 166q116 62 243 62t243 -62q113 -59 197 -166q87 -109 133.5 -249.5t46.5 -294.5t-46.5 -294.5t-133.5 -249.5q-86 -108 -197 -167q-115 -61 -243 -61t-243 61q-111 59 -197 167q-87 109 -133.5 249.5t-46.5 294.5z M195 803q0 -196 76 -364t209.5 -267.5t293.5 -99.5t293.5 99.5t209.5 267.5t76 364t-76 364t-209.5 267.5t-293.5 99.5t-293.5 -99.5t-209.5 -267.5t-76 -364zM617 1714l289 221l25 -33l-289 -221z" />
<glyph unicode="&#xd4;" d="M154 803q0 154 46.5 294.5t133.5 249.5q84 107 197 166q116 62 243 62t243 -62q113 -59 197 -166q87 -109 133.5 -249.5t46.5 -294.5t-46.5 -294.5t-133.5 -249.5q-86 -108 -197 -167q-115 -61 -243 -61t-243 61q-111 59 -197 167q-87 109 -133.5 249.5t-46.5 294.5z M195 803q0 -196 76 -364t209.5 -267.5t293.5 -99.5t293.5 99.5t209.5 267.5t76 364t-76 364t-209.5 267.5t-293.5 99.5t-293.5 -99.5t-209.5 -267.5t-76 -364zM432 1715l358 249l325 -249l-25 -32l-301 230l-333 -232z" />
<glyph unicode="&#xd5;" d="M154 803q0 154 46.5 294.5t133.5 249.5q84 107 197 166q116 62 243 62t243 -62q113 -59 197 -166q87 -109 133.5 -249.5t46.5 -294.5t-46.5 -294.5t-133.5 -249.5q-86 -108 -197 -167q-115 -61 -243 -61t-243 61q-111 59 -197 167q-87 109 -133.5 249.5t-46.5 294.5z M195 803q0 -196 76 -364t209.5 -267.5t293.5 -99.5t293.5 99.5t209.5 267.5t76 364t-76 364t-209.5 267.5t-293.5 99.5t-293.5 -99.5t-209.5 -267.5t-76 -364zM541 1702l9 18q41 87 92 98q31 7 60.5 -7.5t72.5 -48.5q3 -2 13 -11t15 -13t17 -12.5t19 -10t20.5 -5.5t21.5 1 q40 10 80 95l9 18l37 -17l-9 -19q-48 -101 -108 -116q-10 -3 -21 -3q-41 0 -120 61q-1 1 -16.5 14.5t-24.5 20t-25.5 11.5t-31.5 2q-33 -8 -64 -75l-9 -19z" />
<glyph unicode="&#xd6;" d="M154 803q0 154 46.5 294.5t133.5 249.5q84 107 197 166q116 62 243 62t243 -62q113 -59 197 -166q87 -109 133.5 -249.5t46.5 -294.5t-46.5 -294.5t-133.5 -249.5q-86 -108 -197 -167q-115 -61 -243 -61t-243 61q-111 59 -197 167q-87 109 -133.5 249.5t-46.5 294.5z M195 803q0 -196 76 -364t209.5 -267.5t293.5 -99.5t293.5 99.5t209.5 267.5t76 364t-76 364t-209.5 267.5t-293.5 99.5t-293.5 -99.5t-209.5 -267.5t-76 -364zM569 1710v28q0 8 6.5 14t14.5 6t14 -6t6 -14v-28q0 -8 -6 -14.5t-14 -6.5t-14.5 6.5t-6.5 14.5zM938 1710v28 q0 8 6 14t14 6t14.5 -6t6.5 -14v-28q0 -8 -6.5 -14.5t-14.5 -6.5t-14 6.5t-6 14.5z" />
<glyph unicode="&#xd7;" horiz-adv-x="350" />
<glyph unicode="&#xd8;" horiz-adv-x="1484" d="M161 803q0 154 47 294.5t134 249.5q86 108 197 167q115 61 243 61t243 -61q74 -38 139 -102l25 -24l139 187h52l-164 -220l14 -18q83 -108 127.5 -245.5t44.5 -288.5q0 -154 -46.5 -294.5t-133.5 -249.5q-86 -108 -197 -167q-115 -61 -243 -61t-243 61q-79 42 -142 105 l-25 25l-143 -191h-51l167 223l-14 19q-82 108 -126 244.5t-44 285.5zM203 803q0 -274 142 -480l25 -35l794 1066l-19 18q-159 162 -363 162q-160 0 -293.5 -99.5t-209.5 -267.5t-76 -364zM397 256l18 -19q160 -165 367 -165q160 0 293.5 99.5t209.5 267.5t76 364 q0 277 -145 484l-25 35z" />
<glyph unicode="&#xd9;" horiz-adv-x="1236" d="M174 507v1068h41v-1068q0 -179 127.5 -306.5t306.5 -127.5t306.5 127.5t127.5 306.5v1068h41v-1068q0 -197 -139 -336t-336 -139t-336 139t-139 336zM493 1902l24 33l289 -221l-25 -32z" />
<glyph unicode="&#xda;" horiz-adv-x="1236" d="M174 507v1068h41v-1068q0 -179 127.5 -306.5t306.5 -127.5t306.5 127.5t127.5 306.5v1068h41v-1068q0 -197 -139 -336t-336 -139t-336 139t-139 336zM493 1714l288 221l25 -33l-289 -221z" />
<glyph unicode="&#xdb;" horiz-adv-x="1236" d="M174 507v1068h41v-1068q0 -179 127.5 -306.5t306.5 -127.5t306.5 127.5t127.5 306.5v1068h41v-1068q0 -197 -139 -336t-336 -139t-336 139t-139 336zM308 1715l358 249l325 -249l-25 -32l-301 230l-334 -232z" />
<glyph unicode="&#xdc;" horiz-adv-x="1236" d="M174 507v1068h41v-1068q0 -179 127.5 -306.5t306.5 -127.5t306.5 127.5t127.5 306.5v1068h41v-1068q0 -197 -139 -336t-336 -139t-336 139t-139 336zM444 1710v28q0 8 6.5 14t14.5 6t14 -6t6 -14v-28q0 -8 -6 -14.5t-14 -6.5t-14.5 6.5t-6.5 14.5zM813 1710v28 q0 8 6.5 14t14.5 6t14 -6t6 -14v-28q0 -8 -6 -14.5t-14 -6.5t-14.5 6.5t-6.5 14.5z" />
<glyph unicode="&#xdf;" horiz-adv-x="1157" d="M176 1199q0 161 97 264q103 109 277 109q171 0 272 -110q94 -102 94 -263q0 -140 -85 -210q-46 -38 -162 -73q-61 -18 -81 -30q-19 -11 -24 -29l-6 -23l21 -11q12 -7 34 -12q11 -2 78 -12q166 -21 241 -69q131 -84 131 -282q0 -84 -36 -162q-34 -75 -93 -133 q-60 -58 -135.5 -90t-152.5 -32q-172 0 -259 76l36 24q18 -14 33 -21q76 -38 190 -38q149 0 262.5 113.5t113.5 262.5q0 177 -112 248q-32 20 -76.5 34t-69.5 17.5t-78 10.5q-80 11 -108 21q-56 20 -56 67q0 48 45 75q26 16 91 34q32 9 51 16t48.5 20.5t47 30t35.5 41 t26.5 59t8.5 77.5q0 62 -18 118.5t-54.5 106t-102 79t-150.5 29.5q-149 0 -241 -92t-92 -241l1 -1168h-41z" />
<glyph unicode="&#xe0;" horiz-adv-x="1036" d="M135 347q0 132 117 225q115 91 276 91h250q45 0 70 24q29 28 31 84v68q0 116 -98.5 195.5t-234.5 79.5q-87 0 -163 -35t-122 -97l-12 -16l-33 25l12 16q51 69 135.5 108.5t182.5 39.5q153 0 263 -91q111 -93 111 -225v-11l1 -49q0 -1 -0.5 -4t-0.5 -5v-423 q0 -133 -116 -225q-115 -91 -276 -91t-276 91q-117 93 -117 225zM176 347q0 -113 102 -193q102 -82 250 -82t250 82q101 79 101 193v302l-42 -17q-25 -10 -61 -10h-248q-148 0 -250 -82q-102 -80 -102 -193zM371 1530l25 33l289 -221l-25 -33z" />
<glyph unicode="&#xe1;" horiz-adv-x="1036" d="M135 347q0 132 117 225q115 91 276 91h250q45 0 70 24q29 28 31 84v68q0 116 -98.5 195.5t-234.5 79.5q-87 0 -163 -35t-122 -97l-12 -16l-33 25l12 16q51 69 135.5 108.5t182.5 39.5q153 0 263 -91q111 -93 111 -225v-11l1 -49q0 -1 -0.5 -4t-0.5 -5v-423 q0 -133 -116 -225q-115 -91 -276 -91t-276 91q-117 93 -117 225zM176 347q0 -113 102 -193q102 -82 250 -82t250 82q101 79 101 193v302l-42 -17q-25 -10 -61 -10h-248q-148 0 -250 -82q-102 -80 -102 -193zM371 1342l289 221l25 -33l-289 -221z" />
<glyph unicode="&#xe2;" horiz-adv-x="1052" d="M147 347q0 132 117 225q115 91 276 91h251q44 0 69 24q29 28 31 84v68q0 116 -98.5 195.5t-234.5 79.5q-87 0 -163 -35t-122 -97l-12 -16l-33 25l12 16q51 69 135.5 108.5t182.5 39.5q154 0 264 -91q111 -93 111 -225v-11v-49v-9v-423q0 -132 -117 -225 q-115 -91 -276 -91t-276 91q-117 93 -117 225zM189 347q0 -114 101 -193q102 -82 250 -82t250 82q101 79 101 193v302l-42 -17q-25 -10 -60 -10h-1h-248q-148 0 -250 -82q-101 -79 -101 -193zM337 1417l243 169l243 -169l-23 -34l-220 148l-219 -148z" />
<glyph unicode="&#xe3;" horiz-adv-x="1036" d="M135 347q0 132 117 225q115 91 276 91h250q45 0 70 24q29 28 31 84v68q0 116 -98.5 195.5t-234.5 79.5q-87 0 -163 -35t-122 -97l-12 -16l-33 25l12 16q51 69 135.5 108.5t182.5 39.5q153 0 263 -91q111 -93 111 -225v-11l1 -49q0 -1 -0.5 -4t-0.5 -5v-423 q0 -133 -116 -225q-115 -91 -276 -91t-276 91q-117 93 -117 225zM176 347q0 -113 102 -193q102 -82 250 -82t250 82q101 79 101 193v302l-42 -17q-25 -10 -61 -10h-248q-148 0 -250 -82q-102 -80 -102 -193zM308 1447l9 19q41 87 92 98q31 7 60 -7.5t72 -48.5q3 -2 13 -11 t15 -13t17 -12.5t19 -10t20.5 -5.5t21.5 1q42 10 81 94l8 19l37 -17l-8 -19q-49 -103 -108 -117q-7 -2 -21 -2q-41 0 -120 61q-1 1 -16.5 14.5t-24.5 20t-25.5 11.5t-31.5 2q-34 -8 -65 -76l-8 -18z" />
<glyph unicode="&#xe4;" horiz-adv-x="1036" d="M135 347q0 132 117 225q115 91 276 91h250q45 0 70 24q29 28 31 84v68q0 116 -98.5 195.5t-234.5 79.5q-87 0 -163 -35t-122 -97l-12 -16l-33 25l12 16q51 69 135.5 108.5t182.5 39.5q153 0 263 -91q111 -93 111 -225v-11l1 -49q0 -1 -0.5 -4t-0.5 -5v-423 q0 -133 -116 -225q-115 -91 -276 -91t-276 91q-117 93 -117 225zM176 347q0 -113 102 -193q102 -82 250 -82t250 82q101 79 101 193v302l-42 -17q-25 -10 -61 -10h-248q-148 0 -250 -82q-102 -80 -102 -193zM348 1431v28q0 8 6 14.5t14 6.5t14.5 -6.5t6.5 -14.5v-28 q0 -8 -6.5 -14.5t-14.5 -6.5t-14 6.5t-6 14.5zM716 1431v28q0 8 6.5 14.5t14.5 6.5t14 -6.5t6 -14.5v-28q0 -8 -6 -14.5t-14 -6.5t-14.5 6.5t-6.5 14.5z" />
<glyph unicode="&#xe5;" horiz-adv-x="1036" d="M135 347q0 132 117 225q115 91 276 91h250q45 0 70 24q29 28 31 84v68q0 116 -98.5 195.5t-234.5 79.5q-87 0 -163 -35t-122 -97l-12 -16l-33 25l12 16q51 69 135.5 108.5t182.5 39.5q153 0 263 -91q111 -93 111 -225v-11l1 -49q0 -1 -0.5 -4t-0.5 -5v-423 q0 -133 -116 -225q-115 -91 -276 -91t-276 91q-117 93 -117 225zM176 347q0 -113 102 -193q102 -82 250 -82t250 82q101 79 101 193v302l-42 -17q-25 -10 -61 -10h-248q-148 0 -250 -82q-102 -80 -102 -193zM413 1427q0 59 41.5 100.5t100.5 41.5q58 0 99.5 -41.5 t41.5 -100.5t-41 -100t-100 -41t-100.5 41.5t-41.5 99.5zM454 1427q0 -41 30 -70.5t71 -29.5t70.5 29.5t29.5 70.5t-29.5 71t-70.5 30t-71 -30t-30 -71z" />
<glyph unicode="&#xe6;" horiz-adv-x="1746" d="M137 347q0 132 117 225q115 91 275 91l13 -1q14 -1 33 -2t45 -1.5t53 -1t55 1.5t51.5 5t42.5 9t28 15q29 29 31 83v68q0 116 -98.5 195.5t-234.5 79.5q-87 0 -163 -35t-122 -97l-12 -16l-33 25l12 16q51 69 135.5 108.5t182.5 39.5q155 0 263 -91q71 -60 97 -136l21 -62 l34 56q19 32 47 67q65 79 148 121q87 45 182 45q157 0 252 -78q88 -71 88 -179q0 -113 -99 -190q-109 -85 -290 -85h-278h-6q-32 0 -54 -21q-7 -7 -12 -14.5t-8.5 -15t-6 -15t-3.5 -14.5t-1.5 -13t0 -11.5t0.5 -9v-5.5l1 -3q27 -183 143.5 -305.5t273.5 -122.5 q205 0 303 131l12 16l33 -24l-12 -17q-111 -147 -336 -147q-95 0 -180 42.5t-151 123.5q-23 29 -46 66l-34 56l-22 -61q-28 -79 -101 -137q-115 -91 -276 -91t-276 91q-117 93 -117 225zM179 347q0 -114 101 -193q102 -82 250 -82t250 82q101 80 101 193l-1 61 q-2 62 -3.5 125.5t-1.5 67.5l1 44l-42 -15q-22 -8 -56 -8h-248q-148 0 -250 -82q-101 -79 -101 -193zM916 638l48 18q21 8 48 8h279q168 0 265 76q83 65 83 158q0 89 -80 152.5t-219 63.5q-156 0 -272.5 -122t-144.5 -302z" />
<glyph unicode="&#xe7;" horiz-adv-x="1038" d="M150 592q0 234 134 397q65 79 148 121q87 45 183 45q97 0 180.5 -39t134.5 -108l12 -17l-33 -24l-12 16q-46 62 -121 96.5t-162 34.5q-117 0 -215 -71t-153.5 -191t-55.5 -260q0 -139 55.5 -258.5t153.5 -191t215 -71.5q87 0 162.5 35t121.5 97l11 16l33 -25l-12 -16 q-47 -62 -120.5 -100.5t-160.5 -45.5l-28 -2v-95l20 -7q32 -12 56 -42q38 -48 38 -114t-38 -114q-41 -50 -97 -50q-67 0 -108 66l-10 17l34 22l11 -18q28 -46 73 -46q43 0 68.5 38t25.5 85t-25.5 84.5t-68.5 37.5h-20v137l-27 4q-63 10 -121 40q-83 42 -148 121 q-134 162 -134 396z" />
<glyph unicode="&#xe8;" horiz-adv-x="1052" d="M147 594q0 232 135 395q65 79 148 121q87 45 182 45q157 0 252 -78q89 -72 89 -179q0 -112 -100 -190q-109 -85 -289 -85h-279h-5q-35 0 -56 -22q-41 -42 -29 -100q27 -183 144 -305.5t274 -122.5q204 0 302 131l13 16l32 -24l-12 -17q-111 -147 -335 -147 q-95 0 -180.5 42.5t-151.5 123.5q-92 112 -121 263l-7 42q-6 43 -6 91zM188 638l49 18q21 8 47 8h1h279q167 0 264 76q84 66 84 158q0 89 -80.5 152.5t-219.5 63.5q-156 0 -272 -121.5t-144 -302.5zM403 1530l25 33l289 -221l-25 -33z" />
<glyph unicode="&#xe9;" horiz-adv-x="1052" d="M147 594q0 232 135 395q65 79 148 121q87 45 182 45q157 0 252 -78q89 -72 89 -179q0 -112 -100 -190q-109 -85 -289 -85h-279h-5q-35 0 -56 -22q-41 -42 -29 -100q27 -183 144 -305.5t274 -122.5q204 0 302 131l13 16l32 -24l-12 -17q-111 -147 -335 -147 q-95 0 -180.5 42.5t-151.5 123.5q-92 112 -121 263l-7 42q-6 43 -6 91zM188 638l49 18q21 8 47 8h1h279q167 0 264 76q84 66 84 158q0 89 -80.5 152.5t-219.5 63.5q-156 0 -272 -121.5t-144 -302.5zM403 1342l289 221l25 -33l-289 -221z" />
<glyph unicode="&#xea;" horiz-adv-x="1054" d="M160 594q0 232 135 395q65 79 148 121q87 45 182 45q157 0 252 -78q88 -71 88 -179q0 -113 -99 -190q-109 -85 -290 -85h-279h-5q-34 0 -55 -22q-41 -43 -30 -100q27 -183 144 -305.5t274 -122.5q205 0 303 131l12 16l33 -24l-13 -17q-111 -147 -335 -147 q-95 0 -180 42.5t-151 123.5q-93 114 -122 263l-6 42q-6 43 -6 91zM200 638l49 18q21 8 47 8h1h279q167 0 264 76q84 66 84 158q0 89 -80 152.5t-219 63.5q-156 0 -272.5 -122t-144.5 -302zM378 1419l243 168l243 -168l-23 -34l-220 147l-219 -147z" />
<glyph unicode="&#xeb;" horiz-adv-x="1054" d="M150 594q0 233 134 395q65 79 148 121q87 45 182 45q157 0 252 -78q89 -72 89 -179q0 -112 -100 -190q-109 -85 -289 -85h-279h-5q-35 0 -56 -22q-41 -42 -29 -100q27 -183 144 -305.5t274 -122.5q204 0 302 131l13 16l32 -24l-12 -17q-111 -147 -335 -147 q-95 0 -180.5 42.5t-151.5 123.5q-92 112 -121 263l-7 42q-5 36 -5 91zM190 638l49 18q21 8 47 8h1h279q167 0 264 76q84 66 84 158q0 89 -80.5 152.5t-219.5 63.5q-156 0 -272 -121.5t-144 -302.5zM412 1431v28q0 8 6 14.5t14 6.5t14 -6.5t6 -14.5v-28q0 -8 -6 -14.5 t-14 -6.5t-14 6.5t-6 14.5zM780 1431v28q0 8 6.5 14.5t14.5 6.5t14 -6.5t6 -14.5v-28q0 -8 -6 -14.5t-14 -6.5t-14.5 6.5t-6.5 14.5z" />
<glyph unicode="&#xec;" horiz-adv-x="544" d="M131 1530l25 33l289 -221l-25 -33zM251 31v1124h41v-1124h-41z" />
<glyph unicode="&#xed;" horiz-adv-x="542" d="M125 1342l289 221l24 -33l-288 -221zM284 31v1124h41v-1124h-41z" />
<glyph unicode="&#xee;" horiz-adv-x="706" d="M129 1417l242 169l244 -169l-24 -34l-219 148l-220 -148zM351 31v1124h41v-1124h-41z" />
<glyph unicode="&#xef;" horiz-adv-x="618" d="M117 1431v28q0 8 6 14.5t14 6.5t14.5 -6.5t6.5 -14.5v-28q0 -8 -6.5 -14.5t-14.5 -6.5t-14 6.5t-6 14.5zM302 31v1124h41v-1124h-41zM485 1431v28q0 8 6.5 14.5t14.5 6.5t14 -6.5t6 -14.5v-28q0 -8 -6 -14.5t-14 -6.5t-14.5 6.5t-6.5 14.5z" />
<glyph unicode="&#xf0;" horiz-adv-x="350" />
<glyph unicode="&#xf1;" horiz-adv-x="1075" d="M170 31v703q0 174 114 297q115 124 277 124q163 0 277 -123q114 -122 114 -298v-703h-41v703q0 156 -102 268t-248 112t-248 -112t-102 -268v-703h-41zM337 1447l9 19q41 87 92 98q31 7 60.5 -7.5t72.5 -48.5q3 -3 12.5 -11.5t15 -12.5t17 -12.5t18.5 -10t20.5 -5.5 t21.5 1q42 10 81 94l8 19l38 -17l-9 -19q-49 -103 -108 -117q-7 -2 -21 -2q-41 0 -120 61q-1 1 -16.5 14.5t-24.5 20t-25.5 11.5t-31.5 2q-32 -8 -64 -76l-9 -18z" />
<glyph unicode="&#xf2;" horiz-adv-x="1198" d="M147 586q0 228 139 390q69 80 151 120q90 44 186 44q97 0 187 -44q84 -41 151 -119q138 -161 138 -391t-138 -391q-67 -78 -151 -119q-90 -44 -187 -44q-96 0 -186 44q-84 41 -151 119q-139 162 -139 391zM188 586q0 -137 57.5 -255t158 -188t219.5 -70t219.5 70t158 188 t57.5 255t-57.5 255t-158 188t-219.5 70t-219.5 -70t-158 -188t-57.5 -255zM467 1530l25 33l288 -221l-25 -33z" />
<glyph unicode="&#xf3;" horiz-adv-x="1198" d="M147 586q0 228 139 390q69 80 151 120q90 44 186 44q97 0 187 -44q84 -41 151 -119q138 -161 138 -391t-138 -391q-67 -78 -151 -119q-90 -44 -187 -44q-96 0 -186 44q-84 41 -151 119q-139 162 -139 391zM188 586q0 -137 57.5 -255t158 -188t219.5 -70t219.5 70t158 188 t57.5 255t-57.5 255t-158 188t-219.5 70t-219.5 -70t-158 -188t-57.5 -255zM446 1342l289 221l25 -33l-289 -221z" />
<glyph unicode="&#xf4;" horiz-adv-x="1214" d="M160 586q0 229 138 390q69 80 151 120q90 44 187 44q96 0 186 -44q84 -41 151 -119q139 -162 139 -391t-139 -391q-67 -78 -151 -119q-90 -44 -186 -44q-97 0 -187 44q-84 41 -151 119q-138 161 -138 391zM201 586q0 -137 57.5 -255t158 -188t219.5 -70t219.5 70t158 188 t57.5 255t-57.5 255t-158 188t-219.5 70t-219.5 -70t-158 -188t-57.5 -255zM393 1419l242 168l244 -168l-24 -34l-219 147l-220 -147z" />
<glyph unicode="&#xf5;" horiz-adv-x="1198" d="M147 586q0 228 139 390q69 80 151 120q90 44 186 44q97 0 187 -44q84 -41 151 -119q138 -161 138 -391t-138 -391q-67 -78 -151 -119q-90 -44 -187 -44q-96 0 -186 44q-84 41 -151 119q-139 162 -139 391zM188 586q0 -137 57.5 -255t158 -188t219.5 -70t219.5 70t158 188 t57.5 255t-57.5 255t-158 188t-219.5 70t-219.5 -70t-158 -188t-57.5 -255zM391 1447l8 19q41 86 93 98q31 7 60 -7.5t72 -48.5q3 -2 13 -11t15 -13t17 -12.5t19 -10t20.5 -5.5t21.5 1q41 10 80 94l9 19l37 -17l-9 -19q-49 -103 -108 -117q-7 -2 -20 -2q-41 0 -120 61 q-1 1 -16.5 14.5t-24.5 20t-25.5 11.5t-31.5 2q-34 -9 -65 -75l-8 -19z" />
<glyph unicode="&#xf6;" horiz-adv-x="1198" d="M147 586q0 228 139 390q69 80 151 120q90 44 186 44q97 0 187 -44q84 -41 151 -119q138 -161 138 -391t-138 -391q-67 -78 -151 -119q-90 -44 -187 -44q-96 0 -186 44q-84 41 -151 119q-139 162 -139 391zM188 586q0 -137 57.5 -255t158 -188t219.5 -70t219.5 70t158 188 t57.5 255t-57.5 255t-158 188t-219.5 70t-219.5 -70t-158 -188t-57.5 -255zM419 1431v28q0 8 6 14.5t14 6.5t14.5 -6.5t6.5 -14.5v-28q0 -8 -6.5 -14.5t-14.5 -6.5t-14 6.5t-6 14.5zM787 1431v28q0 8 6.5 14.5t14.5 6.5t14 -6.5t6 -14.5v-28q0 -8 -6 -14.5t-14 -6.5 t-14.5 6.5t-6.5 14.5z" />
<glyph unicode="&#xf7;" horiz-adv-x="1181" d="M152 600v39h925v-39h-925zM544 99q0 32 17.5 50t45.5 18t45 -18t17 -50t-16.5 -50t-46.5 -18q-27 0 -44.5 18.5t-17.5 49.5zM544 1122q0 32 17.5 50t45.5 18t45 -18t17 -50t-16.5 -50t-46.5 -18q-27 0 -44.5 18.5t-17.5 49.5z" />
<glyph unicode="&#xf8;" horiz-adv-x="1206" d="M154 586q0 229 138 390q69 80 151 120q90 44 187 44q96 0 186 -44q45 -22 86 -56l25 -20l100 135h51l-122 -165l15 -18q134 -160 134 -386q0 -230 -138 -391q-67 -78 -151 -119q-90 -44 -186 -44q-97 0 -187 44q-43 21 -86 56l-25 20l-91 -121h-51l113 151l-16 19 q-133 159 -133 385zM195 586q0 -193 107 -338l25 -33l575 772l-22 18q-113 94 -250 94q-119 0 -219.5 -70t-158 -188t-57.5 -255zM356 186l24 -20q113 -93 250 -93q119 0 219.5 70t158 188t57.5 255q0 193 -109 339l-25 33z" />
<glyph unicode="&#xf9;" horiz-adv-x="1067" d="M168 452v703h41v-703q0 -156 102 -268t248 -112t248 112t102 268v703h41v-703q0 -174 -114 -297q-115 -124 -277 -124t-277 124q-114 123 -114 297zM402 1530l25 33l289 -221l-25 -33z" />
<glyph unicode="&#xfa;" horiz-adv-x="1067" d="M168 452v703h41v-703q0 -156 102 -268t248 -112t248 112t102 268v703h41v-703q0 -174 -114 -297q-115 -124 -277 -124t-277 124q-114 123 -114 297zM402 1342l289 221l25 -33l-289 -221z" />
<glyph unicode="&#xfb;" horiz-adv-x="1079" d="M176 452v703h41v-703q0 -156 102 -268t248 -112t248.5 112t102.5 268v703h40v-703q0 -174 -114 -297q-115 -124 -277 -124t-277 124q-114 123 -114 297zM324 1417l243 169l243 -169l-23 -34l-220 148l-219 -148z" />
<glyph unicode="&#xfc;" horiz-adv-x="1067" d="M168 452v703h41v-703q0 -156 102 -268t248 -112t248 112t102 268v703h41v-703q0 -174 -114 -297q-115 -124 -277 -124t-277 124q-114 123 -114 297zM354 1431v28q0 8 6.5 14.5t14.5 6.5t14 -6.5t6 -14.5v-28q0 -8 -6 -14.5t-14 -6.5t-14.5 6.5t-6.5 14.5zM723 1431v28 q0 8 6 14.5t14 6.5t14.5 -6.5t6.5 -14.5v-28q0 -8 -6.5 -14.5t-14.5 -6.5t-14 6.5t-6 14.5z" />
<glyph unicode="&#x152;" horiz-adv-x="1986" d="M154 799q0 154 46.5 294.5t132.5 248.5q85 106 197 166q115 61 242 61q116 0 218 -49l43 -21v75h895v-41h-854v-696l42 16q32 13 74 13h738v-41h-738q-63 0 -92 -32q-24 -26 -24 -63v-660l854 2v-41l-895 -2v70l-43 -21q-102 -49 -218 -49q-126 0 -242 62 q-112 60 -197 166q-86 108 -132.5 248t-46.5 294zM195 799q0 -195 75.5 -362.5t209 -267t292.5 -99.5q129 0 246 70l15 9v1300l-15 9q-117 70 -246 70q-159 0 -292.5 -99.5t-209 -267t-75.5 -362.5z" />
<glyph unicode="&#x153;" horiz-adv-x="1925" d="M150 586q0 229 138 390q69 80 151 120q90 44 186 44q97 0 187 -44q82 -40 151 -120q55 -64 88 -142l30 -68l27 69q34 85 90 154q65 79 148 121q87 45 182 45q156 0 251 -78q89 -72 89 -179q0 -113 -99 -190q-109 -85 -290 -85h-282h-6q-30 0 -51 -22q-41 -43 -30 -100 q27 -183 144 -305.5t274 -122.5q205 0 303 131l12 16l33 -24l-13 -17q-111 -147 -335 -147q-95 0 -180 42.5t-151 123.5q-52 64 -86 146l-29 69l-28 -69q-37 -86 -91 -149q-67 -78 -151 -119q-90 -44 -187 -44q-96 0 -186 44q-84 41 -151 119q-138 161 -138 391zM190 586 q0 -137 57.5 -255t158 -188t219.5 -70t219.5 70t158 188t57.5 255q0 25 -1 38q-8 129 -67 238t-156 173t-211 64q-119 0 -219.5 -70t-158 -188t-57.5 -255zM1103 638l49 18q21 8 47 8h1h279q167 0 264 76q84 66 84 158q0 89 -80 152.5t-219 63.5q-156 0 -272.5 -122 t-144.5 -302zM1191 623h4h-4z" />
<glyph unicode="&#x2000;" horiz-adv-x="982" />
<glyph unicode="&#x2001;" horiz-adv-x="1964" />
<glyph unicode="&#x2002;" horiz-adv-x="982" />
<glyph unicode="&#x2003;" horiz-adv-x="1964" />
<glyph unicode="&#x2004;" horiz-adv-x="654" />
<glyph unicode="&#x2005;" horiz-adv-x="491" />
<glyph unicode="&#x2006;" horiz-adv-x="327" />
<glyph unicode="&#x2007;" horiz-adv-x="327" />
<glyph unicode="&#x2008;" horiz-adv-x="245" />
<glyph unicode="&#x2009;" horiz-adv-x="392" />
<glyph unicode="&#x200a;" horiz-adv-x="109" />
<glyph unicode="&#x2010;" horiz-adv-x="788" d="M166 586v41h501v-41h-501z" />
<glyph unicode="&#x2011;" horiz-adv-x="788" d="M166 586v41h501v-41h-501z" />
<glyph unicode="&#x2012;" horiz-adv-x="788" d="M166 586v41h501v-41h-501z" />
<glyph unicode="&#x2013;" horiz-adv-x="1311" d="M166 586v41h1024v-41h-1024z" />
<glyph unicode="&#x2014;" horiz-adv-x="2335" d="M166 586v41h2048v-41h-2048z" />
<glyph unicode="&#x202f;" horiz-adv-x="392" />
<glyph unicode="&#x205f;" horiz-adv-x="491" />
<glyph unicode="&#x20ac;" horiz-adv-x="1490" d="M141 657v41h169l-2 33q-3 36 -3 73q0 33 1 50l2 33h-167v41h172l4 26q35 227 168 393q86 107 198 166q116 62 243 62q149 0 281 -83q126 -80 213 -220l11 -18l-36 -22l-11 18q-82 134 -202 208.5t-256 74.5q-137 0 -257 -75t-200 -204t-108 -289l-7 -37h536v-41h-540 l-2 -29q-1 -18 -1 -54q0 -40 3 -77l2 -29h538v-41h-532l8 -38q50 -236 204.5 -390t355.5 -154q136 0 256 75.5t203 209.5l10 16l36 -22l-11 -18q-87 -140 -213 -220q-132 -83 -281 -83q-127 0 -243 62q-112 59 -198 166q-125 155 -165 370l-4 26h-175z" />
<glyph unicode="&#x25fc;" horiz-adv-x="1157" d="M0 0v1157h1157v-1157h-1157z" />
</font>
</defs>
</svg>
