<?xml version="1.0" standalone="no"?>
<!DOCTYPE svg PUBLIC "-//W3C//DTD SVG 1.1//EN" "http://www.w3.org/Graphics/SVG/1.1/DTD/svg11.dtd" >
<svg xmlns="http://www.w3.org/2000/svg">
<metadata></metadata>
<defs>
<font id="kirvylight" horiz-adv-x="1554" >
<font-face units-per-em="2048" ascent="1638" descent="-410" />
<missing-glyph horiz-adv-x="573" />
<glyph horiz-adv-x="0" />
<glyph horiz-adv-x="682" />
<glyph unicode=" "  horiz-adv-x="573" />
<glyph unicode="&#x09;" horiz-adv-x="573" />
<glyph unicode="&#xa0;" horiz-adv-x="573" />
<glyph unicode="!" horiz-adv-x="417" d="M410 101q0 44 27 72.5t69 28.5t68 -28.5t26 -72.5t-26 -72.5t-70 -28.5q-42 0 -68 28.5t-26 72.5zM454 642v964h102v-964h-102z" />
<glyph unicode="&#x22;" horiz-adv-x="559" d="M143 1276v330h103v-330h-103zM312 1276v330h103v-330h-103z" />
<glyph unicode="#" horiz-adv-x="1392" d="M100 0l184 556h-155v100h189l112 338h-161v100h194l170 512h105l-169 -512h452l169 512h107l-170 -512h170v-100h-204l-112 -338h176v-100h-209l-184 -556h-107l185 556h-452l-184 -556h-106zM423 656h453l112 338h-453z" />
<glyph unicode="$" horiz-adv-x="1124" d="M96 305l84 59l30 -42q23 -33 44 -54t56 -44t86.5 -35.5t121.5 -16.5v605q-166 48 -244 99q-67 44 -106 111q-41 73 -41 167q0 166 103 261q102 95 288 105v86h102v-87q91 -11 170.5 -61.5t137.5 -132.5l29 -42l-84 -59l-29 42q-43 61 -101 99.5t-123 49.5v-560 q178 -51 256 -102q70 -46 105 -109q41 -71 41 -165q0 -83 -29 -158q-31 -78 -87 -133q-107 -104 -286 -118v-70h-102v70q-145 6 -235 51q-88 43 -157 143zM229 1154q0 -125 102 -193q57 -38 187 -77v534q-289 -20 -289 -264zM620 173q140 13 219.5 94.5t79.5 211.5 q0 64 -24 108.5t-76 79.5q-65 42 -199 81v-575z" />
<glyph unicode="%" horiz-adv-x="1282" d="M102 1313q0 112 76.5 192t183.5 80t183.5 -80t76.5 -192q0 -113 -76.5 -193t-183.5 -80t-183.5 80t-76.5 193zM115 0l927 1606h113l-927 -1606h-113zM200 1313q0 -73 47.5 -124.5t114.5 -51.5t114.5 51.5t47.5 124.5t-47.5 124t-114.5 51t-114.5 -51t-47.5 -124zM662 273 q0 113 76 193t183 80t183.5 -80t76.5 -193q0 -112 -76.5 -192t-183.5 -80t-183 79.5t-76 192.5zM759 273q0 -73 47.5 -124t114.5 -51t114.5 51t47.5 124t-47.5 124t-114.5 51t-114.5 -51t-47.5 -124z" />
<glyph unicode="&#x26;" horiz-adv-x="1357" d="M87 326q-15 91 13 185.5t95 180.5q87 112 234 196q-26 58 -39 90q-95 238 -71 393q17 110 93 171q78 63 214 63q146 0 241 -78q89 -72 107 -190q22 -139 -58 -265q-85 -135 -249 -190q-52 -17 -103 -39q67 -128 148 -247q105 -156 230 -294l9 12q152 217 152 607h102 q0 -204 -43 -374q-44 -171 -128 -291q-7 -10 -21 -28q158 -155 266 -189l-30 -96q-134 41 -305 210q-165 -153 -409 -153q-184 0 -307 92q-118 89 -141 234zM187 342q18 -112 111.5 -176.5t236.5 -64.5q203 0 339 125q-124 134 -246 314q-87 129 -154 257 q-123 -70 -199 -168q-111 -142 -88 -287zM420 1356q-23 -157 99 -422q59 25 116 44q130 43 192.5 142.5t46.5 200.5q-13 85 -79 133.5t-169 48.5q-59 0 -100 -13t-62 -37t-30.5 -46t-13.5 -51z" />
<glyph unicode="'" horiz-adv-x="485" d="M125 1325q7 7 21 28t33.5 79t19.5 122v48h102v-48q0 -52 -10 -101t-23.5 -82t-29.5 -60.5t-24 -38.5t-12 -15l-76 69z" />
<glyph unicode="(" horiz-adv-x="722" d="M133 671q0 376 131 647q68 139 158 213.5t191 74.5v-100q-69 0 -135 -57q-69 -62 -124 -174q-121 -248 -121 -604q0 -355 121 -603q55 -112 124 -174q66 -57 135 -57v-100q-101 0 -191 74t-158 213q-131 271 -131 647z" />
<glyph unicode=")" horiz-adv-x="700" d="M98 -163q69 0 135 57q69 62 124 174q121 248 121 603q0 356 -121 604q-55 112 -124 174q-66 57 -135 57v100q101 0 191 -74.5t158 -213.5q131 -271 131 -647t-131 -647q-68 -139 -158 -213t-191 -74v100z" />
<glyph unicode="*" horiz-adv-x="1034" d="M106 1126v98h312l-242 322l78 59l263 -348l264 348l78 -59l-242 -322h311v-98h-311l242 -322l-78 -60l-264 349l-263 -349l-78 60l242 322h-312z" />
<glyph unicode="+" horiz-adv-x="1226" d="M111 555v103h452v552h103v-552h452v-103h-452v-552h-103v552h-452z" />
<glyph unicode="," horiz-adv-x="442" d="M205 -206q3 1 11 5t22 17t26.5 30t21.5 47t9 66v174h103v-174q0 -126 -76 -204q-30 -31 -81 -57z" />
<glyph unicode="-" horiz-adv-x="831" d="M135 555v103h563v-103h-563z" />
<glyph unicode="." horiz-adv-x="434" d="M205 103q0 44 27 72.5t69 28.5t68 -28.5t26 -72.5t-26 -72t-70 -28q-42 0 -68 28t-26 72z" />
<glyph unicode="/" horiz-adv-x="1091" d="M206 0l532 1606h108l-533 -1606h-107z" />
<glyph unicode="0" horiz-adv-x="1232" d="M123 802.5q0 235.5 32 387.5q37 175 152 289q129 127 313 127t313 -127q115 -114 152 -289q32 -152 32 -387.5t-32 -387.5q-36 -174 -152 -288q-129 -127 -313 -127t-313 127q-116 114 -152 288q-32 152 -32 387.5zM225 803q0 -225 30 -366q13 -64 41.5 -121t72 -106.5 t108.5 -78.5t143 -29t143 29t108.5 78.5t72 106.5t41.5 121q30 141 30 366t-30 366q-13 64 -41.5 121t-72 106.5t-108.5 78.5t-143 29t-143 -29t-108.5 -78.5t-72 -106.5t-41.5 -121q-30 -141 -30 -366z" />
<glyph unicode="1" horiz-adv-x="704" d="M94 1187v102h53q20 0 69.5 33.5t110.5 98.5q54 57 91 115q32 49 32 70h102v-1606h-102v1407q-40 -48 -48 -56q-68 -71 -125 -111q-75 -53 -130 -53h-53z" />
<glyph unicode="2" horiz-adv-x="1075" d="M111 0v51q0 283 149 481q40 54 97.5 107t95 81.5t110.5 80.5q48 34 70.5 50.5t61 47.5t57.5 51.5t44.5 53t37 61.5t20.5 67t9 79q0 8 -2.5 26t-13.5 55.5t-29 69.5q-80 141 -271 141q-146 0 -254 -81q-24 -18 -44 -39t-28 -33l-8 -11l-87 52q3 6 12.5 19.5t34.5 40 t55 49.5q136 105 319 105q142 0 229.5 -57t132.5 -140q23 -42 37 -92t16 -71.5t2 -31.5v-1q0 -170 -109 -298q-29 -35 -72.5 -73t-71.5 -58t-89 -64l-58.5 -42t-55.5 -41.5t-56 -46.5t-51 -48.5t-49 -54.5t-41.5 -59t-37.5 -68.5t-28 -75t-21 -86t-10 -95.5h742v-102h-845z " />
<glyph unicode="3" horiz-adv-x="1140" d="M90 1352l26 44q3 6 12.5 19.5t35 40t55.5 49.5q139 106 321 106q187 0 311 -129q55 -57 85.5 -131t30.5 -152q0 -170 -132 -282q-42 -37 -100 -63q92 -33 160 -90q143 -121 143 -305q0 -84 -32.5 -164.5t-92.5 -142.5q-133 -139 -337 -139q-199 0 -349 115q-33 25 -61 55 t-38 44t-12 19l88 53q29 -47 89 -93q120 -90 283 -90q108 0 192 51t126 128.5t42 163.5q0 137 -107 227q-129 109 -400 109v102q224 0 340 98q95 80 95 204q0 78 -37.5 147.5t-113.5 115.5t-173 46q-66 0 -125 -17.5t-95 -40t-64.5 -49t-39 -40t-12.5 -18.5l-26 -44z" />
<glyph unicode="4" horiz-adv-x="1206" d="M104 689l716 917h101v-917h187v-102h-187v-587h-103v587h-713zM234 689h584v748z" />
<glyph unicode="5" horiz-adv-x="1138" d="M98 349l95 39l19 -47q45 -109 138.5 -174t204.5 -65q155 0 265 118t110 284t-110 284t-265 118q-156 0 -266 -119l-35 -37l-103 4l35 851h752v-102h-654l-24 -603q55 45 106 68q91 41 189 41q198 0 338 -149q67 -71 103 -163.5t36 -192.5q0 -207 -139 -355 q-140 -149 -338 -149q-142 0 -261 82.5t-176 219.5z" />
<glyph unicode="6" horiz-adv-x="1210" d="M150 896.5q0 37.5 2.5 108t7.5 111.5t16 100t27 99t40 82.5t56 75.5q123 128 345 128q115 0 215 -56q98 -55 163 -148l28 -42l-83 -58l-29 42q-52 76 -129.5 118t-164.5 42q-179 0 -272 -96q-43 -45 -71 -113.5t-38.5 -145t-14.5 -165t0 -174.5q23 34 43 55 q137 149 334 149t334 -149q136 -147 136 -357q0 -209 -136 -356q-138 -150 -334 -150t-334 150q-73 78 -106.5 190t-33.5 335q0 31 -0.5 109t-0.5 115.5zM257 503q0 -167 108 -286t260 -119t260.5 119t108.5 286t-108.5 286t-260.5 119t-260 -119t-108 -286z" />
<glyph unicode="7" horiz-adv-x="1243" d="M111 1504v102h1018v-99q-180 -238 -369 -551q-378 -627 -378 -956h-101q0 198 124 494q99 235 268 516q153 255 328 494h-890z" />
<glyph unicode="8" horiz-adv-x="1163" d="M111 452q0 189 139 320q52 49 119 82q-47 25 -88 63q-129 118 -129 286t129 286q128 117 305 117t305 -117q129 -118 129 -286t-129 -286q-43 -40 -90 -64q65 -31 117 -81q140 -132 140 -320q0 -91 -36.5 -174t-103.5 -147q-137 -131 -334 -131t-334 131q-67 64 -103 147 t-36 174zM213 452q0 -145 108.5 -247.5t262.5 -102.5t263 102.5t109 247.5t-109 247t-263 102t-262.5 -102t-108.5 -247zM254 1203q0 -124 97.5 -212t234.5 -88t234 88t97 212t-97 212t-234 88t-234.5 -88t-97.5 -212z" />
<glyph unicode="9" horiz-adv-x="1210" d="M115 1095q0 209 136 356q138 150 334 150t334 -150q73 -78 106.5 -190.5t33.5 -335.5q0 -31 0.5 -109t0.5 -115.5t-2.5 -108t-7.5 -111t-16 -99.5t-27 -99t-40 -82.5t-56 -75.5q-123 -128 -345 -128q-115 0 -215 56q-98 55 -163 148l-28 42l83 58l29 -42 q52 -76 129.5 -118.5t164.5 -42.5q178 0 272 97q43 45 71 113.5t38.5 145t14.5 165t0 174.5q-23 -34 -43 -55q-138 -150 -334 -150t-334 150q-136 147 -136 357zM216 1095q0 -167 108.5 -286t260.5 -119t260 119t108 286t-108 285.5t-260 118.5t-260.5 -118.5t-108.5 -285.5 z" />
<glyph unicode=":" horiz-adv-x="440" d="M205 103q0 44 27 72.5t69 28.5t68 -28.5t26 -72.5t-26 -72t-70 -28q-42 0 -68 28t-26 72zM205 905q0 44 27 72t69 28t68 -28t26 -72t-26 -72.5t-70 -28.5q-42 0 -68 28.5t-26 72.5z" />
<glyph unicode=";" horiz-adv-x="466" d="M205 -206q3 1 11 5t22 17t26.5 30t21.5 47t9 66v174h103v-174q0 -126 -76 -204q-30 -31 -81 -57zM251 905q0 44 27 72t69 28t68.5 -28t26.5 -72t-26 -72.5t-70 -28.5q-42 0 -68.5 28.5t-26.5 72.5z" />
<glyph unicode="&#x3c;" horiz-adv-x="1255" d="M104 596v61l993 595l51 -85l-901 -541l901 -540l-51 -86z" />
<glyph unicode="=" horiz-adv-x="1269" d="M135 327v102h1008v-102h-1008zM135 800v102h1008v-102h-1008z" />
<glyph unicode="&#x3e;" horiz-adv-x="1257" d="M109 86l901 540l-901 541l51 85l993 -595v-61l-993 -596z" />
<glyph unicode="?" horiz-adv-x="1050" d="M410 1358l28 41q68 99 165.5 153t206.5 54q231 0 351 -112q107 -101 107 -273q0 -199 -92 -312q-55 -68 -184 -131q-78 -39 -107.5 -69t-29.5 -91v-50h-100v50q0 44 12.5 80.5t28 59.5t46.5 46.5t50 34t56 28.5q33 16 49 25t44 27.5t42.5 34.5t33.5 43t28.5 57.5t16.5 73 t7 93.5q0 285 -359 285q-84 0 -160 -43t-130 -121l-28 -41zM725 98q0 43 26.5 70.5t67.5 27.5q40 0 65.5 -27t25.5 -71q0 -43 -25 -70.5t-68 -27.5q-40 0 -66 28t-26 70z" />
<glyph unicode="@" horiz-adv-x="1992" d="M117 616q0 206 68 393q65 179 188 322q121 140 280 219q165 81 347 81q181 0 346 -81q161 -80 281 -219q121 -141 187 -322q69 -190 69 -393q0 -71 -21.5 -172.5t-61.5 -192.5q-49 -111 -112 -173q-82 -80 -182 -80q-98 0 -150 63q-40 49 -44 123q-61 -63 -137 -100 q-96 -47 -199 -47t-199 47q-93 46 -161 125q-145 168 -145 405t145 405q68 79 161 125t199 46t199 -46q91 -46 160 -125q65 -76 102 -171l67 334l101 -21l-188 -927q-5 -12 -2 -50t20 -58q21 -26 71 -26q58 0 110 51q50 49 90 141q35 79 54.5 170t19.5 154q0 185 -62 354 t-166.5 291.5t-249 195t-302.5 72.5q-211 0 -391 -122.5t-285 -333t-105 -457.5q0 -185 62 -354t166.5 -291t249.5 -194.5t303 -72.5q140 0 271 57q79 34 152 89l41 31l61 -82l-40 -31q-80 -61 -173 -101q-151 -65 -312 -65q-182 0 -347 81q-159 79 -280 219 q-123 143 -188 322q-68 187 -68 392zM573 614q0 -196 118.5 -335t284.5 -139t284 139t118 335t-118 335t-284 139t-284.5 -139t-118.5 -335z" />
<glyph unicode="A" horiz-adv-x="1398" d="M90 0l560 1605h95l560 -1605h-107l-215 618q-54 -27 -147 -27h-303q-34 0 -63 -8.5t-45.5 -20t-29.5 -25.5t-17 -21.5t-6 -12.5l-176 -503h-106zM432 677q48 15 101 15h303q83 0 113 23l-252 722z" />
<glyph unicode="B" horiz-adv-x="1388" d="M152 0v1606h662q167 0 286 -119t119 -286q0 -111 -55.5 -204.5t-147.5 -146.5q64 -32 116 -84q131 -131 131 -317t-131 -317q-132 -132 -318 -132h-662zM254 103h466h94q143 0 244.5 101.5t101.5 244.5t-101.5 244.5t-244.5 101.5l-475 1q-50 0 -85 14v-707zM254 959 q2 -24 16 -39q20 -21 69 -21h475q125 0 213.5 88.5t88.5 213.5t-88.5 213.5t-213.5 88.5h-560v-544z" />
<glyph unicode="C" horiz-adv-x="1429" d="M123 803q0 159 48 304.5t139 258.5q91 114 207 175q124 65 259 65q157 0 297 -88q133 -84 223 -231l27 -44l-88 -54l-27 44q-79 128 -192 198.5t-240 70.5q-149 0 -275.5 -93.5t-200.5 -254.5t-74 -351t74 -351t200.5 -255t275.5 -94q127 0 240 70.5t192 198.5l27 44 l88 -54l-27 -44q-89 -146 -223 -230q-140 -88 -297 -88q-135 0 -259 65q-117 61 -207 174q-91 113 -139 259t-48 305z" />
<glyph unicode="D" horiz-adv-x="1398" d="M152 3v1603h472q133 0 255 -65q117 -62 206 -174q90 -112 137.5 -257t47.5 -304q0 -162 -49 -308q-49 -145 -136 -256q-88 -112 -205 -176q-122 -66 -256 -66h-1zM254 104l370 -2q107 0 205 52.5t175 150.5q79 101 121.5 230.5t42.5 270.5q0 189 -73 349.5t-198 254 t-273 93.5h-370v-1399z" />
<glyph unicode="E" horiz-adv-x="1241" d="M152 0v1606h955l1 -103h-854v-620q35 14 85 14h768v-102h-768q-51 0 -70 -22q-15 -17 -15 -42v-628l853 -1l1 -102h-956z" />
<glyph unicode="F" horiz-adv-x="1261" d="M152 0v1606h1007v-103h-905v-621q33 13 70 14v1h678v-103h-663q-49 0 -69 -21q-8 -8 -12 -19.5t-4 -19.5v-8v1v-727h-102z" />
<glyph unicode="G" horiz-adv-x="1538" d="M123 803q0 159 48.5 304.5t138.5 258.5q89 114 206 175q122 65 258 65q166 0 309 -96q137 -92 226 -249l-90 -50q-77 137 -195 214.5t-250 77.5q-149 0 -275 -94t-199.5 -255t-73.5 -351t73.5 -351t199.5 -255t275 -94q88 0 179.5 49.5t166.5 133.5t126.5 205t60.5 253 l-413 -1q-84 0 -134 -48q-10 -9 -17.5 -19.5t-10.5 -16.5l-3 -6l-97 36q26 51 57 81q74 70 190 75l481 1q21 0 36 -15t15 -36q0 -158 -54 -305q-51 -139 -143 -251q-93 -114 -208 -176.5t-232 -62.5q-136 0 -258 65q-117 61 -206 175q-90 113 -138.5 258.5t-48.5 304.5z" />
<glyph unicode="H" horiz-adv-x="1347" d="M152 0v1606h102v-752q71 43 161 43h514q83 0 133 47q19 17 28 36v626h102v-1606h-102v837q-64 -39 -152 -42h-523q-82 0 -133 -48q-19 -17 -28 -36v-711h-102z" />
<glyph unicode="I" horiz-adv-x="409" d="M152 0v1606h102v-1606h-102z" />
<glyph unicode="J" horiz-adv-x="886" d="M98 0v102q148 0 274 93.5t199.5 254.5t73.5 350v806h102v-806q0 -158 -48 -303.5t-138 -257.5q-89 -112 -206 -174q-122 -65 -257 -65z" />
<glyph unicode="K" horiz-adv-x="1308" d="M152 0v1606h102v-696q18 29 44 51l691 645h150l-774 -723q-30 -26 -30 -46q0 -22 24 -42l861 -795h-152l-774 716q-26 22 -40 46v-762h-102z" />
<glyph unicode="L" horiz-adv-x="1269" d="M152 0v1606h102v-1504h905v-102h-1007z" />
<glyph unicode="M" horiz-adv-x="1581" d="M152 0v1606h105l531 -1456l531 1456h106v-1606h-102v1316l-480 -1316h-109l-480 1316v-1316h-102z" />
<glyph unicode="N" horiz-adv-x="1335" d="M152 0v1606h109l817 -1499v1499h102v-1606h-161l-765 1405v-1405h-102z" />
<glyph unicode="O" d="M123 803q0 159 48.5 304.5t138.5 258.5q88 112 206 174q122 65 258 65q135 0 257 -65q120 -63 207 -174q90 -113 138.5 -258.5t48.5 -304.5t-48.5 -305t-138.5 -259q-87 -111 -207 -174q-122 -65 -257 -65q-136 0 -258 65q-118 62 -206 174q-90 113 -138.5 259t-48.5 305 zM226 803q0 -190 73.5 -351t199.5 -255t275 -94t275 94t199.5 255t73.5 351t-73.5 351t-199.5 255t-275 94t-275 -94t-199.5 -255t-73.5 -351z" />
<glyph unicode="P" horiz-adv-x="1325" d="M152 0v1606h662q167 0 285 -119.5t118 -287.5q0 -167 -118.5 -285.5t-285.5 -118.5l-475 -1q-50 0 -69 -22q-12 -13 -15 -38v-734h-102zM254 882q30 12 76 14l483 1q125 0 213.5 88.5t88.5 213.5t-89 214.5t-213 89.5h-559v-621z" />
<glyph unicode="Q" d="M123 803q0 159 48.5 304.5t138.5 258.5q89 114 206 175q122 65 258 65q135 0 257 -65q118 -62 207 -175q90 -113 138.5 -258.5t48.5 -304.5t-48.5 -304.5t-138.5 -258.5q-28 -36 -60 -66q15 -23 34 -40t34 -25t32 -12t22.5 -4.5t10.5 -0.5h-1l6 -102h-6q-45 0 -91 19 q-73 31 -120 98q-32 -23 -68 -42q-122 -65 -257 -65q-136 0 -258 65q-117 61 -206 175q-90 113 -138.5 258.5t-48.5 304.5zM226 803q0 -190 73.5 -351t199.5 -255t275 -94t275 94t199.5 255t73.5 351t-73.5 351t-199.5 255t-275 94t-275 -94t-199.5 -255t-73.5 -351z" />
<glyph unicode="R" horiz-adv-x="1353" d="M152 0v1606h661q167 0 285.5 -119.5t118.5 -287.5q0 -147 -93.5 -258.5t-234.5 -138.5q21 -26 36 -55l331 -747h-112l-315 710q-21 37 -49 58t-39.5 23.5t-18.5 2.5h-384q-50 0 -69 -22q-12 -13 -15 -38v-734h-102zM254 882q30 12 76 14l483 1q125 0 213.5 88.5 t88.5 213.5t-89 214.5t-213 89.5h-559v-621z" />
<glyph unicode="S" horiz-adv-x="1355" d="M92 252l82 61l31 -40q32 -41 62.5 -67t82.5 -53t132 -40t189 -13q211 0 333.5 94t122.5 256q0 49 -13 88t-43.5 69.5t-65 53t-92.5 43.5t-110.5 36t-134.5 35q-83 20 -131.5 33.5t-115 37.5t-113.5 52q-87 51 -131 120q-51 80 -51 185q0 183 128 288q141 115 417 115 q129 0 244.5 -56.5t196.5 -158.5l32 -39l-82 -61l-31 40q-66 83 -160.5 129t-199.5 46q-240 0 -350 -91q-92 -75 -92 -212q0 -50 13 -89.5t44 -71t65.5 -54.5t93.5 -44.5t112 -36.5t136 -35q84 -21 130 -33.5t112.5 -36.5t113.5 -51q84 -49 130 -119q51 -78 51 -182 q0 -94 -36 -175q-35 -81 -108 -145q-151 -130 -415 -130q-219 0 -353 58q-109 47 -195 155z" />
<glyph unicode="T" horiz-adv-x="1384" d="M98 1503v102h1186v-102h-558v-1503h-102v1503h-526z" />
<glyph unicode="U" horiz-adv-x="1302" d="M143 507v1099h103v-1099q0 -167 118 -285t285 -118t285.5 118.5t118.5 284.5v1099h102v-1099q0 -210 -148 -358t-358 -148q-209 0 -357 148q-149 149 -149 358z" />
<glyph unicode="V" horiz-adv-x="1411" d="M90 1606h109l506 -1451l505 1451h109l-560 -1606h-108z" />
<glyph unicode="W" horiz-adv-x="2148" d="M90 1606h103l499 -1425l346 1275h69l347 -1275l498 1425h104l-562 -1606h-92l-329 1210l-329 -1210h-92z" />
<glyph unicode="X" horiz-adv-x="1509" d="M96 1606h123l534 -720l534 720h124l-597 -803l597 -803h-124l-534 720l-534 -720h-122l595 803z" />
<glyph unicode="Y" horiz-adv-x="1519" d="M90 1606h125l544 -734l545 734h125l-588 -792q-31 -83 -31 -180v-634h-101v634q0 102 -31 180z" />
<glyph unicode="Z" horiz-adv-x="1472" d="M100 0v83l1125 1420h-1084v103h1231v-84l-1125 -1419h1085v-103h-1232z" />
<glyph unicode="[" horiz-adv-x="495" d="M154 -283v1889h247v-103h-145v-1683h145v-103h-247z" />
<glyph unicode="\" horiz-adv-x="827" d="M94 1606h108l532 -1606h-107z" />
<glyph unicode="]" horiz-adv-x="499" d="M98 -180h146v1683h-146v103h248v-1889h-248v103z" />
<glyph unicode="^" horiz-adv-x="983" d="M115 1331l394 275l360 -276l-63 -81l-300 230l-333 -232z" />
<glyph unicode="_" horiz-adv-x="1253" d="M123 0v102h1007v-102h-1007z" />
<glyph unicode="`" horiz-adv-x="442" d="M131 1533l76 69q4 -4 12 -14.5t24.5 -38.5t29.5 -60.5t23.5 -81.5t10.5 -101v-49h-103v49q0 64 -19 121.5t-33 78.5t-21 28v-1z" />
<glyph unicode="a" horiz-adv-x="1093" d="M106 347q0 146 129 249q123 98 295 98h248q32 -2 51 16q21 19 22 62v67q0 101 -89 172.5t-214 71.5q-80 0 -149 -31.5t-111 -87.5l-31 -41l-82 61l30 41q56 75 147.5 118t195.5 43q164 0 283 -99q122 -102 122 -248v-492q0 -147 -128 -249q-123 -98 -295 -98t-295 98 q-129 103 -129 249zM209 347q0 -98 90 -169q93 -75 231 -75t231 75q90 71 90 169v257q-35 -13 -63 -13h-11h-247q-136 0 -231 -76q-90 -71 -90 -168z" />
<glyph unicode="b" horiz-adv-x="1132" d="M152 0v1606h102v-374q-1 -27 16 -46q20 -21 69 -21h83q117 0 223 -44t189 -127t127 -189t44 -223t-44 -222.5t-127 -188.5t-189 -127t-223 -44h-270zM254 103h168q130 0 240.5 64t175 174.5t64.5 240.5t-64.5 240.5t-175 175t-240.5 64.5h-83q-47 0 -85 15v-974z" />
<glyph unicode="c" horiz-adv-x="1093" d="M119 592q0 115 37 225t105 192q69 84 157 129q93 48 196 48q110 0 197.5 -42t143.5 -118l30 -41l-82 -61l-30 41q-41 55 -110 86.5t-149 31.5q-107 0 -197.5 -64.5t-143 -177.5t-52.5 -249t52.5 -249t143 -177t197.5 -64q80 0 149 31.5t110 87.5l30 41l82 -62l-30 -41 q-56 -75 -145 -117t-196 -42q-103 0 -196 48q-88 45 -157 129q-68 82 -105 191t-37 224z" />
<glyph unicode="d" horiz-adv-x="1122" d="M115 582q0 117 44 223.5t126 188.5q83 83 189 127t223 44h83q50 0 69 21q8 8 12 19.5t4 18.5v8v374h103v-1606h-271q-117 0 -223 44t-189 127q-170 170 -170 411zM217 583q0 -130 64.5 -240.5t175 -175t240.5 -64.5h168v974q-37 -15 -85 -15h-83q-130 0 -240.5 -64 t-175 -174.5t-64.5 -240.5z" />
<glyph unicode="e" horiz-adv-x="1114" d="M119 593q0 244 142 415q68 83 158 129q95 49 195 49q169 0 273 -85q99 -82 99 -203q0 -61 -29 -117.5t-82 -97.5q-117 -92 -309 -92h-280q-24 0 -37 -12q-14 -13 -19 -31t-4 -30l2 -12q25 -173 134 -288t253 -115q191 0 279 118l30 41l82 -61l-30 -41 q-118 -160 -361 -160q-102 0 -193 45.5t-162 131.5q-97 119 -128 278q-13 53 -13 138zM228 685q12 4 27 6.5t24 2.5h9h278q157 0 246 69q72 56 72 135q0 74 -69.5 129.5t-199.5 55.5q-143 0 -252 -113t-135 -285z" />
<glyph unicode="f" horiz-adv-x="718" d="M145 0v1154q0 186 123 318q125 134 299 134h51v-103h-51q-128 0 -220.5 -96.5t-98.5 -235.5q37 14 84 14h235v-102h-235q-50 0 -69 -22q-15 -17 -15 -43v-1018h-103z" />
<glyph unicode="g" horiz-adv-x="1122" d="M119 609q0 116 44 222.5t126 188.5t189 126.5t223 44.5l270 1v-1256q0 -145 -122 -247q-118 -98 -282 -98q-104 0 -194.5 42t-146.5 117l-31 41l82 62l31 -42q41 -55 110 -86.5t149 -31.5q125 0 213.5 71.5t88.5 171.5v30q-3 26 -16 40q-19 21 -69 21h-83 q-117 0 -223.5 44t-188.5 126t-126 188.5t-44 223.5zM221 609q0 -130 64.5 -240.5t175 -175t240.5 -64.5h83q50 0 85 -14v974h-168q-130 0 -241 -64.5t-175 -175t-64 -240.5z" />
<glyph unicode="h" horiz-adv-x="1144" d="M152 0v1606h102v-351q0 -49 22 -70q8 -8 19.5 -12t18.5 -4h8h251q176 0 300 -133q122 -131 122 -318v-718h-102v718q0 145 -94 247t-226 102h-246q-42 0 -73 13v-1080h-102z" />
<glyph unicode="i" horiz-adv-x="403" d="M147 0v1186h103v-1186h-103zM147 1473v28q0 21 15.5 36t36.5 15t36 -15t15 -36v-28q0 -21 -15 -36.5t-36 -15.5t-36.5 15.5t-15.5 36.5z" />
<glyph unicode="j" horiz-adv-x="704" d="M78 -308h51q132 0 226 102t94 247v1196h102v-1196q0 -186 -122 -317q-125 -134 -300 -134h-51v102zM449 1473v28q0 21 15 36t36 15t36 -15t15 -36v-28q0 -21 -15 -36.5t-36 -15.5t-36 15.5t-15 36.5z" />
<glyph unicode="k" horiz-adv-x="1181" d="M152 0v1606h102v-947l664 527h165l-612 -486q27 -17 43 -37l571 -663h-137l-513 597l-1 1q-23 23 -44 24q-15 0 -26 -6l-110 -88v-528h-102z" />
<glyph unicode="l" horiz-adv-x="409" d="M152 0v1606h102v-1606h-102z" />
<glyph unicode="m" horiz-adv-x="1873" d="M139 0v734q0 187 122 318q125 134 300 134t300 -134q43 -48 71 -102q28 54 71 102q125 134 300 134q174 0 299 -134q122 -131 122 -318v-734h-102v734q0 145 -93.5 247t-225.5 102t-226 -102t-94 -247v-734h-102v734q0 145 -94 247t-226 102t-225.5 -102t-93.5 -247v-734 h-103z" />
<glyph unicode="n" horiz-adv-x="1132" d="M139 0v734q0 187 122 318q125 134 300 134t300 -134q122 -131 122 -318v-734h-102v734q0 145 -94 247t-226 102t-225.5 -102t-93.5 -247v-734h-103z" />
<glyph unicode="o" horiz-adv-x="1277" d="M119 593q0 244 147 416q71 83 163 128q96 48 203 48q106 0 202 -48q92 -45 163 -128q148 -173 148 -416q0 -242 -148 -415q-72 -84 -163 -129q-96 -48 -202 -48q-107 0 -203 48q-91 45 -163 129q-147 172 -147 415zM221 593q0 -133 55 -245.5t150 -178t206 -65.5 t205.5 65.5t149.5 178t55 245.5q0 203 -120.5 346.5t-289.5 143.5q-83 0 -159 -39t-131.5 -104.5t-88 -156.5t-32.5 -190z" />
<glyph unicode="p" horiz-adv-x="1130" d="M147 -410v1606h271q117 0 223 -44t189 -127q170 -170 170 -411q0 -117 -44 -223.5t-126 -188.5q-83 -83 -189 -127t-223 -44h-83q-49 0 -69 -21q-8 -8 -12 -19.5t-4 -18.5v-8v-374h-103zM250 119q38 15 85 15h83q130 0 240.5 64.5t175 175t64.5 240.5t-64.5 240.5 t-175 175t-240.5 64.5h-168v-975z" />
<glyph unicode="q" horiz-adv-x="1124" d="M119 614q0 241 170 411q83 83 189 127t223 44h271v-1606h-103v374q1 28 -16 46q-19 21 -69 21h-83q-117 0 -223 44t-189 127q-82 82 -126 188.5t-44 223.5zM221 614q0 -130 64.5 -240.5t175 -175t240.5 -64.5h83q48 0 85 -15v975h-168q-130 0 -240.5 -64.5t-175 -175 t-64.5 -240.5z" />
<glyph unicode="r" horiz-adv-x="665" d="M139 0v734q0 186 123 318q125 134 300 134v-103q-132 0 -226 -102t-94 -247v-734h-103z" />
<glyph unicode="s" horiz-adv-x="1048" d="M104 200l82 62l31 -41q21 -28 41.5 -46t55 -36t88.5 -27t127 -9q140 0 220.5 63.5t80.5 172.5q0 92 -83 142q-56 34 -225 77q-62 16 -93.5 24.5t-79 27t-81.5 38.5q-134 81 -134 233q0 138 95 218q103 86 300 86q94 0 177.5 -42t141.5 -118l31 -40l-81 -63l-31 41 q-44 57 -106 88.5t-132 31.5q-293 0 -293 -202q0 -95 85 -145q59 -36 227 -79q183 -47 252 -89q133 -80 133 -229q0 -148 -105 -241q-110 -98 -299 -98q-156 0 -252 43q-77 35 -141 116z" />
<glyph unicode="t" horiz-adv-x="681" d="M143 453v1153h103v-457q38 15 85 15h235v-103h-235q-50 0 -69 -22q-16 -18 -16 -42v-544q0 -145 93.5 -247.5t226.5 -102.5v-103q-175 0 -300 134q-123 132 -123 319z" />
<glyph unicode="u" horiz-adv-x="1124" d="M137 452v734h103v-734q0 -145 93.5 -247.5t225.5 -102.5t226 102.5t94 247.5v734h102v-734q0 -187 -122 -318q-125 -134 -300 -134t-300 134q-122 131 -122 318z" />
<glyph unicode="v" horiz-adv-x="1167" d="M90 1186h109l381 -1021l380 1021h109l-441 -1186h-96z" />
<glyph unicode="w" horiz-adv-x="1796" d="M90 1186h109l376 -1009l270 868h98l269 -868l376 1009h110l-443 -1186h-95l-266 857l-266 -857h-96z" />
<glyph unicode="x" horiz-adv-x="1179" d="M98 1186h122l368 -509l368 509h122l-429 -593l430 -593h-123l-368 509l-368 -509h-121l428 593z" />
<glyph unicode="y" horiz-adv-x="1175" d="M90 1186h106l358 -963q8 -17 27 -87l392 1050h105l-491 -1314q-42 -123 -145 -202q-106 -80 -234 -80h-49v99h49q95 0 173.5 59.5t112.5 156.5l1 1l5 18q8 21 8 53q0 44 -15 107q-6 26 -13.5 52t-12.5 40l-5 13z" />
<glyph unicode="z" horiz-adv-x="1148" d="M102 0v84l793 999h-753v102h899v-83l-793 -1000h753v-102h-899z" />
<glyph unicode="{" horiz-adv-x="837" d="M98 617v117l88 1q58 3 94 20.5t62 64t37 125.5t14 206q1 76 3 116.5t10.5 96.5t24.5 94q62 151 249 148l59 -1v-118l-61 1q-44 1 -73.5 -10.5t-42 -26.5t-21.5 -38q-26 -65 -30 -264q-3 -150 -19 -242t-50 -151q-25 -46 -69 -80q44 -34 69 -80q34 -59 50 -151.5 t19 -242.5q4 -199 30 -264q14 -36 43.5 -55.5t93.5 -18.5l61 1v-118l-59 -1q-2 0 -4 -0.5t-4 -0.5q-180 0 -241 149q-16 38 -24.5 94t-10.5 96t-3 116q-3 127 -14 206t-37 125.5t-62 64.5t-94 21h-88z" />
<glyph unicode="|" horiz-adv-x="409" d="M154 -279v1885h102v-1885h-102z" />
<glyph unicode="}" horiz-adv-x="839" d="M100 -135l61 -1q64 -1 94 18.5t44 55.5q26 65 30 264q3 150 19 242.5t50 151.5q26 47 68 80q-42 33 -68 80q-34 59 -50 151t-19 242q-4 199 -30 264q-14 36 -44 56t-94 19l-61 -1v118l59 1q187 3 249 -148q16 -38 24.5 -93.5t11 -98t3.5 -115.5q3 -127 14 -206t37 -125.5 t62 -64t94 -20.5l87 -1v-117h-87q-58 -3 -94 -21t-62 -64.5t-37 -125.5t-14 -206q-1 -73 -3.5 -115.5t-11 -97.5t-24.5 -93q-61 -149 -241 -149q-1 0 -3.5 0.5t-4.5 0.5l-59 1v118z" />
<glyph unicode="~" horiz-adv-x="1148" d="M119 614l22 46q79 168 184 193q67 16 145 -26q40 -22 118 -83q44 -35 69 -52.5t61 -32.5t62 -9q71 16 145 173l21 46l93 -43l-22 -46q-49 -103 -99 -158q-52 -57 -115 -72q-23 -5 -42 -5q-31 0 -62 9.5t-65 30.5t-53 35t-57 44q-42 34 -65 50t-55.5 30.5t-55.5 9.5 q-57 -14 -115 -138l-21 -46z" />
<glyph unicode="&#xa1;" horiz-adv-x="419" d="M117 1505q0 44 26 72.5t68 28.5q44 0 70 -28.5t26 -72.5t-26 -72.5t-68 -28.5t-69 28.5t-27 72.5zM161 0v964h102v-964h-102z" />
<glyph unicode="&#xa2;" horiz-adv-x="1042" d="M88 592v2q0 244 142 415q68 83 158 129q68 35 151 45v109h102v-110q87 -11 161 -51.5t122 -104.5l31 -41l-83 -61l-30 41q-41 56 -109.5 87t-148.5 31q-107 0 -197.5 -65.5t-143.5 -178t-53 -245.5v-2q0 -133 53 -246t143.5 -178.5t197.5 -65.5q80 0 148.5 31.5 t109.5 87.5l30 41l83 -62l-31 -41q-48 -64 -122 -104.5t-161 -51.5v-110h-102v109q-81 9 -151 46q-90 46 -158 129q-142 171 -142 415z" />
<glyph unicode="&#xa3;" horiz-adv-x="1239" d="M100 0v101q44 0 74 20.5t55 78.5q59 139 67 500h-160v102h161q0 236 33 397q32 155 93 244q60 86 150 122q75 29 175 29q115 0 214 -93q90 -84 150 -230l-95 -39q-50 122 -121.5 190.5t-147.5 68.5q-89 0 -145 -24.5t-95 -81.5q-108 -157 -108 -583l455 1v-102l-456 -1 q-7 -379 -76 -540q-14 -33 -29 -56l843 1l1 -105h-1038z" />
<glyph unicode="&#xa4;" horiz-adv-x="1208" d="M115 1155l72 72l143 -143q117 114 276 114q157 0 276 -114l142 143l73 -72l-150 -150q75 -115 75 -259q0 -141 -73 -257l148 -148l-73 -72l-140 140q-118 -116 -278 -116t-278 116l-140 -140l-72 72l148 148q-73 116 -73 257q0 142 74 258zM293 746q0 -145 91.5 -248 t221.5 -103t221.5 103t91.5 248t-91.5 247.5t-221.5 102.5t-221.5 -102.5t-91.5 -247.5z" />
<glyph unicode="&#xa5;" horiz-adv-x="1431" d="M90 1547l81 60l545 -734l545 734l80 -60l-543 -733q-9 -22 -19 -64h329v-101h-342v-124h342v-100h-342v-425h-101v425h-346v100h346v124h-346v101h334q-10 42 -19 64z" />
<glyph unicode="&#xa7;" horiz-adv-x="1026" d="M98 195l84 59l30 -42q25 -35 48 -55.5t77 -37t134 -16.5q118 0 184 58t66 161q0 60 -30 96.5t-91 61.5q-5 -1 -79.5 22.5t-162 55.5t-115.5 51q-117 77 -117 220q0 129 82 205q47 44 118 65q-100 77 -100 208q0 129 82 205q91 83 263 83q82 0 155.5 -40t124.5 -113 l29 -42l-84 -58l-29 42q-75 109 -196 109q-132 0 -193 -56q-49 -45 -49 -130q0 -37 12.5 -66t31.5 -48.5t56 -37t70.5 -28.5t90.5 -27q155 -42 218 -84q116 -77 116 -216t-91 -228q-38 -37 -91 -60q82 -73 82 -190q0 -138 -91 -227q-97 -94 -262 -94q-138 0 -214 38 t-129 114zM228 829q0 -37 13 -66t31.5 -48t56 -36.5t70.5 -28.5t91 -27q92 -26 126 -39q98 11 151.5 67.5t53.5 148.5q0 45 -16 76.5t-55 54.5t-77 37t-110 34q-32 8 -48 13h-44q-132 0 -193 -56q-50 -45 -50 -130z" />
<glyph unicode="&#xab;" horiz-adv-x="903" d="M100 593l360 357v-145l-214 -211l213 -211l1 -145zM419 592l361 358v-145l-214 -211l215 -213l-1 -143z" />
<glyph unicode="&#xad;" horiz-adv-x="831" d="M135 555v103h563v-103h-563z" />
<glyph unicode="&#xb5;" horiz-adv-x="1126" d="M154 0v1606h102v-1080q31 13 73 13h247q132 0 225.5 102t93.5 247v718h102v-718q0 -187 -122 -318q-125 -134 -300 -134q-250 1 -251 1q-28 0 -46 -17q-22 -22 -22 -69v-351h-102z" />
<glyph unicode="&#xb6;" horiz-adv-x="1318" d="M102 1199q0 167 119 285.5t286 118.5l661 3v-1606h-102v734q-2 24 -16 39q-18 19 -60 21v-794h-103v795h-381q-167 0 -285.5 118.5t-118.5 285.5zM205 1199q0 -125 88.5 -213.5t213.5 -88.5h380v605l-380 -1q-125 0 -213.5 -88.5t-88.5 -213.5zM990 896q46 -2 76 -14v621 h-76v-607z" />
<glyph unicode="&#xbb;" horiz-adv-x="911" d="M131 381l215 213l-214 211v145l361 -358l-361 -354zM452 238l1 145l213 211l-214 211v145l360 -357z" />
<glyph unicode="&#xbf;" horiz-adv-x="1054" d="M111 385q0 199 92 312q55 68 184 131q79 39 108 68.5t29 90.5v50h100v-50q0 -54 -15.5 -95t-49.5 -71t-57.5 -44.5t-70.5 -37.5q-33 -16 -49 -25t-44 -27.5t-42.5 -34.5t-33.5 -43t-28.5 -57.5t-16.5 -73t-7 -93.5q0 -285 359 -285q84 0 160 42.5t130 120.5l28 41l82 -56 l-28 -41q-68 -99 -165.5 -153t-206.5 -54q-232 0 -352 112q-106 100 -106 273zM468 1508q0 43 25.5 70.5t68.5 27.5q40 0 65.5 -28t25.5 -70q0 -43 -26 -70.5t-67 -27.5t-66.5 27.5t-25.5 70.5z" />
<glyph unicode="&#xc0;" horiz-adv-x="1400" d="M90 0l561 1606h95l561 -1606h-108l-216 618q-52 -26 -146 -26h-303q-81 0 -130 -47q-18 -17 -30 -41l-176 -504h-108zM434 678q47 15 100 15h303q81 0 112 23l-251 719zM491 1864l62 81l338 -258l-63 -81z" />
<glyph unicode="&#xc1;" horiz-adv-x="1400" d="M90 0l561 1606h95l561 -1606h-108l-216 618q-52 -26 -146 -26h-303q-81 0 -130 -47q-18 -17 -30 -41l-176 -504h-108zM434 678q47 15 100 15h303q81 0 112 23l-251 719zM442 1687l337 258l62 -81l-337 -258z" />
<glyph unicode="&#xc2;" horiz-adv-x="1400" d="M90 0l561 1606h95l561 -1606h-108l-216 618q-52 -26 -146 -26h-303q-81 0 -130 -47q-18 -17 -30 -41l-176 -504h-108zM312 1689l402 279l367 -281l-62 -81l-308 236l-340 -237zM434 678q47 15 100 15h303q81 0 112 23l-251 719z" />
<glyph unicode="&#xc3;" horiz-adv-x="1400" d="M90 0l561 1606h95l561 -1606h-108l-216 618q-52 -26 -146 -26h-303q-81 0 -130 -47q-18 -17 -30 -41l-176 -504h-108zM427 1718l22 46q46 99 113 115q29 7 60.5 -3t50 -22.5t48.5 -36.5q62 -49 79 -45q26 4 60 77l22 47l92 -44l-21 -46q-55 -116 -129 -134q-14 -3 -28 -3 q-57 0 -139 67q-59 46 -72 43q-2 0 -6.5 -3t-15 -17t-21.5 -38l-22 -47zM434 678q47 15 100 15h303q81 0 112 23l-251 719z" />
<glyph unicode="&#xc4;" horiz-adv-x="1402" d="M90 0l561 1606h95l561 -1606h-108l-216 618q-52 -26 -146 -26h-303q-81 0 -130 -47q-18 -17 -30 -41l-176 -504h-108zM434 678q47 15 100 15h303q81 0 112 23l-251 719zM463 1710v28q0 21 15 36t36 15t36 -15t15 -36v-28q0 -21 -15 -36t-36 -15t-36 15t-15 36zM832 1710 v28q0 21 15 36t36 15t36 -15t15 -36v-28q0 -21 -15 -36t-36 -15t-36 15t-15 36z" />
<glyph unicode="&#xc5;" horiz-adv-x="1400" d="M90 0l561 1606q-55 15 -91 61t-36 105q0 71 50.5 121.5t121.5 50.5t121.5 -50.5t50.5 -121.5q0 -59 -35.5 -105t-90.5 -61h4l561 -1606h-108l-216 618q-52 -26 -146 -26h-303q-81 0 -130 -47q-18 -17 -30 -41l-176 -504h-108zM434 678q47 15 100 15h303q81 0 112 23 l-251 719zM627 1772q0 -29 20.5 -49.5t48.5 -20.5t49 21t21 49t-20.5 48.5t-49.5 20.5q-28 0 -48.5 -20.5t-20.5 -48.5z" />
<glyph unicode="&#xc6;" horiz-adv-x="1763" d="M90 2l560 1604h980v-103h-853v-620q38 15 84 15h769v-103h-769q-50 0 -69 -22q-15 -17 -15 -42v-628l853 1v-102l-956 -2v596q-51 -16 -117 -16h-25q-34 0 -63 -8.5t-45.5 -20t-29.5 -25.5t-17.5 -21.5t-6.5 -12.5l-172 -490h-108zM431 668q47 15 101 15h25q39 0 68.5 7 t37.5 12t11 8v654z" />
<glyph unicode="&#xc7;" horiz-adv-x="1429" d="M123 803q0 160 48 305.5t139 258.5q89 112 208 174q124 65 258 65q158 0 298 -88q134 -84 223 -230l27 -44l-88 -54l-27 44q-79 128 -192 198.5t-241 70.5q-149 0 -275.5 -94t-200.5 -255t-74 -351t74 -351t200.5 -255t275.5 -94q128 0 241 70.5t192 198.5l27 44l88 -54 l-27 -44q-90 -147 -223 -231q-117 -74 -253 -86v-46q42 -16 71 -52q45 -56 45 -134t-45 -134q-49 -62 -122 -62q-41 0 -77 21.5t-59 59.5l-27 44l88 54l27 -44q19 -32 48 -32q26 0 44.5 27.5t18.5 65.5t-18.5 65.5t-44.5 27.5h-52v103v37q-103 10 -200 62q-117 62 -208 175 t-139 258.5t-48 305.5z" />
<glyph unicode="&#xc8;" horiz-adv-x="1239" d="M150 -1v1606h956v-102l-854 -1v-620q37 15 85 15h769v-103h-769q-51 0 -70 -22q-15 -17 -15 -42v-629l854 1v-102zM428 1897l62 81l338 -258l-63 -82z" />
<glyph unicode="&#xc9;" horiz-adv-x="1239" d="M150 -1v1606h956v-102l-854 -1v-620q37 15 85 15h769v-103h-769q-51 0 -70 -22q-15 -17 -15 -42v-629l854 1v-102zM428 1720l337 258l63 -81l-338 -259z" />
<glyph unicode="&#xca;" horiz-adv-x="1239" d="M150 -1v1606h956v-102l-854 -1v-620q37 15 85 15h769v-103h-769q-51 0 -70 -22q-15 -17 -15 -42v-629l854 1v-102zM243 1722l402 280l367 -281l-62 -81l-308 235l-340 -237z" />
<glyph unicode="&#xcb;" horiz-adv-x="1239" d="M150 -1v1606h956v-102l-854 -1v-620q37 15 85 15h769v-103h-769q-51 0 -70 -22q-15 -17 -15 -42v-629l854 1v-102zM397 1710v28q0 21 15.5 36t36.5 15t36 -15t15 -36v-28q0 -21 -15 -36t-36 -15t-36.5 15t-15.5 36zM766 1710v28q0 21 15 36t36 15t36 -15t15 -36v-28 q0 -21 -15 -36t-36 -15t-36 15t-15 36z" />
<glyph unicode="&#xcc;" horiz-adv-x="561" d="M82 1897l62 81l337 -258l-62 -82zM179 0v1606h103v-1606h-103z" />
<glyph unicode="&#xcd;" horiz-adv-x="555" d="M78 1720l337 258l62 -81l-337 -259zM226 0v1606h103v-1606h-103z" />
<glyph unicode="&#xce;" horiz-adv-x="925" d="M78 1722l402 280l367 -281l-63 -81l-307 235l-341 -237zM411 0v1606h102v-1606h-102z" />
<glyph unicode="&#xcf;" horiz-adv-x="628" d="M78 1710v28q0 21 15 36t36 15t36 -15t15 -36v-28q0 -21 -15 -36t-36 -15t-36 15t-15 36zM261 0v1606h103v-1606h-103zM446 1710v28q0 21 15.5 36t36.5 15t36 -15t15 -36v-28q0 -21 -15 -36t-36 -15t-36.5 15t-15.5 36z" />
<glyph unicode="&#xd1;" horiz-adv-x="1300" d="M150 0v1606h92l805 -1395v1395h99v-1606h-92l-805 1396v-1396h-99zM374 1687l22 46q46 99 113 115q29 7 60.5 -3t50 -22.5t48.5 -36.5q62 -49 79 -45q25 4 60 78l22 46l92 -43l-21 -47q-54 -115 -129 -133q-18 -4 -28 -4q-56 0 -139 68q-58 45 -72 42q-2 0 -6.5 -3 t-15 -17t-21.5 -38l-22 -46z" />
<glyph unicode="&#xd2;" d="M123 803q0 159 48.5 304.5t138.5 258.5q89 114 206 175q122 65 258 65q135 0 257 -65q118 -62 207 -175q91 -113 139 -258.5t48 -304.5t-48 -305t-139 -259q-87 -111 -207 -174q-122 -65 -257 -65q-136 0 -258 65q-118 62 -206 174q-91 113 -139 259t-48 305zM226 803 q0 -190 73.5 -351t199.5 -255t275 -94t275 94t199.5 255t73.5 351t-73.5 351t-199.5 255t-275 94t-275 -94t-199.5 -255t-73.5 -351zM574 1897l62 81l338 -258l-63 -82z" />
<glyph unicode="&#xd3;" d="M123 803q0 159 48.5 304.5t138.5 258.5q89 114 206 175q122 65 258 65q135 0 257 -65q118 -62 207 -175q91 -113 139 -258.5t48 -304.5t-48 -305t-139 -259q-87 -111 -207 -174q-122 -65 -257 -65q-136 0 -258 65q-118 62 -206 174q-91 113 -139 259t-48 305zM226 803 q0 -190 73.5 -351t199.5 -255t275 -94t275 94t199.5 255t73.5 351t-73.5 351t-199.5 255t-275 94t-275 -94t-199.5 -255t-73.5 -351zM574 1720l337 258l63 -81l-338 -259z" />
<glyph unicode="&#xd4;" d="M123 803q0 159 48.5 304.5t138.5 258.5q89 114 206 175q122 65 258 65q135 0 257 -65q118 -62 207 -175q91 -113 139 -258.5t48 -304.5t-48 -305t-139 -259q-87 -111 -207 -174q-122 -65 -257 -65q-136 0 -258 65q-118 62 -206 174q-91 113 -139 259t-48 305zM226 803 q0 -190 73.5 -351t199.5 -255t275 -94t275 94t199.5 255t73.5 351t-73.5 351t-199.5 255t-275 94t-275 -94t-199.5 -255t-73.5 -351zM390 1722l401 280l367 -281l-62 -81l-308 235l-340 -237z" />
<glyph unicode="&#xd5;" d="M123 803q0 159 48.5 304.5t138.5 258.5q89 114 206 175q122 65 258 65q135 0 257 -65q118 -62 207 -175q91 -113 139 -258.5t48 -304.5t-48 -305t-139 -259q-87 -111 -207 -174q-122 -65 -257 -65q-136 0 -258 65q-118 62 -206 174q-91 113 -139 259t-48 305zM226 803 q0 -190 73.5 -351t199.5 -255t275 -94t275 94t199.5 255t73.5 351t-73.5 351t-199.5 255t-275 94t-275 -94t-199.5 -255t-73.5 -351zM500 1687l22 46q46 99 113 115q29 7 60.5 -3t50 -22.5t48.5 -36.5q62 -49 80 -45q24 4 59 78l22 46l93 -43l-22 -47q-54 -115 -129 -133 q-18 -4 -28 -4q-56 0 -139 68q-57 45 -71 42q-2 0 -6.5 -3t-15.5 -17t-22 -38l-22 -46z" />
<glyph unicode="&#xd6;" d="M123 803q0 159 48.5 304.5t138.5 258.5q89 114 206 175q122 65 258 65q135 0 257 -65q118 -62 207 -175q91 -113 139 -258.5t48 -304.5t-48 -305t-139 -259q-87 -111 -207 -174q-122 -65 -257 -65q-136 0 -258 65q-118 62 -206 174q-91 113 -139 259t-48 305zM226 803 q0 -190 73.5 -351t199.5 -255t275 -94t275 94t199.5 255t73.5 351t-73.5 351t-199.5 255t-275 94t-275 -94t-199.5 -255t-73.5 -351zM538 1710v28q0 21 15.5 36t36.5 15t36 -15t15 -36v-28q0 -21 -15 -36t-36 -15t-36.5 15t-15.5 36zM907 1710v28q0 21 15 36t36 15t36 -15 t15 -36v-28q0 -21 -15 -36t-36 -15t-36 15t-15 36z" />
<glyph unicode="&#xd7;" horiz-adv-x="350" />
<glyph unicode="&#xd8;" horiz-adv-x="1564" d="M117 0l189 254q-175 231 -175 549q0 159 48 305t139 259t206 174q122 65 258 65q135 0 257 -65q81 -44 146 -107l128 172h128l-186 -250q86 -112 132 -255t46 -298q0 -159 -48 -305t-139 -259q-90 -113 -207 -174q-122 -65 -257 -65q-136 0 -258 65q-81 42 -149 110 l-130 -175h-128zM233 803q0 -263 138 -463l752 1011q-150 152 -341 152q-149 0 -275.5 -94t-200 -255t-73.5 -351zM438 258q150 -155 344 -155q149 0 275 94t199.5 255t73.5 351q0 269 -139 467z" />
<glyph unicode="&#xd9;" horiz-adv-x="1302" d="M143 507v1099h103v-1099q0 -167 118 -285t285 -118t285.5 118.5t118.5 284.5v1099h102v-1099q0 -210 -148 -358t-358 -148q-209 0 -357 148q-149 149 -149 358zM449 1897l63 81l337 -258l-62 -82z" />
<glyph unicode="&#xda;" horiz-adv-x="1302" d="M143 507v1099h103v-1099q0 -167 118 -285t285 -118t285.5 118.5t118.5 284.5v1099h102v-1099q0 -210 -148 -358t-358 -148q-209 0 -357 148q-149 149 -149 358zM449 1720l338 258l62 -81l-337 -259z" />
<glyph unicode="&#xdb;" horiz-adv-x="1302" d="M143 507v1099h103v-1099q0 -167 118 -285t285 -118t285.5 118.5t118.5 284.5v1099h102v-1099q0 -210 -148 -358t-358 -148q-209 0 -357 148q-149 149 -149 358zM265 1722l402 280l367 -281l-63 -81l-307 235l-341 -237z" />
<glyph unicode="&#xdc;" horiz-adv-x="1302" d="M143 507v1099h103v-1099q0 -167 118 -285t285 -118t285.5 118.5t118.5 284.5v1099h102v-1099q0 -210 -148 -358t-358 -148q-209 0 -357 148q-149 149 -149 358zM414 1710v28q0 21 15 36t36 15t36 -15t15 -36v-28q0 -21 -15 -36t-36 -15t-36 15t-15 36zM782 1710v28 q0 21 15.5 36t36.5 15t36 -15t15 -36v-28q0 -21 -15 -36t-36 -15t-36.5 15t-15.5 36z" />
<glyph unicode="&#xdf;" horiz-adv-x="1218" d="M145 1199q0 171 106 285q111 119 299 119q186 0 295 -120q101 -112 101 -284q0 -155 -96 -234q-24 -21 -59.5 -38t-53 -22.5t-59.5 -18.5q-64 -20 -74 -26q-8 -5 -10 -10q13 -6 26 -9q12 -3 75 -12q54 -7 85 -12t81 -21t87 -40q146 -92 146 -308q0 -88 -39 -175 q-37 -82 -100 -142q-65 -62 -145.5 -96.5t-163.5 -34.5q-62 0 -116 11t-85 24.5t-57 32.5t-33.5 27.5t-13.5 16.5l84 58q1 0 0 1q12 -16 45 -33q68 -35 176 -35q136 0 240.5 104.5t104.5 240.5q0 159 -98 222q-63 39 -211 58q-83 11 -115 22q-76 28 -76 96q0 64 61 101 q34 20 97 37q40 11 60 18.5t50.5 24t45.5 37t27 55t12 80.5q0 58 -16 109.5t-49 96t-92 70.5t-137 26q-137 0 -219.5 -82.5t-82.5 -219.5l1 -1199h-102z" />
<glyph unicode="&#xe0;" horiz-adv-x="1091" d="M104 347q0 146 129 249q123 98 295 98h248h5h-1q28 -2 47 16t21 62v67q0 101 -88.5 172.5t-213.5 71.5q-80 0 -149 -31.5t-111 -87.5l-31 -41l-82 61l30 42q56 75 147.5 117.5t195.5 42.5q164 0 283 -99q122 -102 122 -248v-9v-51v-9v-423q0 -147 -128 -249 q-123 -98 -295 -98t-295 98q-129 103 -129 249zM207 347q0 -98 90 -169q93 -75 231 -75t231 75q89 71 89 169v257q-41 -16 -73 -13h-247q-138 0 -231 -75q-90 -71 -90 -169zM328 1524l62 82l338 -259l-63 -81z" />
<glyph unicode="&#xe1;" horiz-adv-x="1091" d="M104 347q0 146 129 249q123 98 295 98h248h5h-1q28 -2 47 16t21 62v67q0 101 -88.5 172.5t-213.5 71.5q-80 0 -149 -31.5t-111 -87.5l-31 -41l-82 61l30 42q56 75 147.5 117.5t195.5 42.5q164 0 283 -99q122 -102 122 -248v-9v-51v-9v-423q0 -147 -128 -249 q-123 -98 -295 -98t-295 98q-129 103 -129 249zM207 347q0 -98 90 -169q93 -75 231 -75t231 75q89 71 89 169v257q-41 -16 -73 -13h-247q-138 0 -231 -75q-90 -71 -90 -169zM328 1347l337 259l63 -82l-338 -258z" />
<glyph unicode="&#xe2;" horiz-adv-x="1110" d="M117 347q0 147 128 249q123 98 295 98h249h4h-1q28 -2 47 16q21 19 22 62v67q0 101 -89 172.5t-214 71.5q-80 0 -149 -31.5t-111 -87.5l-31 -41l-82 61l31 42q56 75 147 117.5t195 42.5q164 0 283 -99q122 -102 122 -248v-9h1v-51q0 -1 -0.5 -4t-0.5 -5v-423 q0 -147 -128 -249q-123 -98 -295 -98t-295 98q-128 102 -128 249zM219 347q0 -98 90 -169q93 -75 231 -75t231 75q90 71 90 169v257q-41 -16 -74 -13h-247q-138 0 -231 -75q-90 -71 -90 -169zM294 1425l286 198l286 -198l-58 -84l-228 153l-227 -153z" />
<glyph unicode="&#xe3;" horiz-adv-x="1091" d="M104 347q0 146 129 249q123 98 295 98h248h5h-1q28 -2 47 16t21 62v67q0 101 -88.5 172.5t-213.5 71.5q-80 0 -149 -31.5t-111 -87.5l-31 -41l-82 61l30 42q56 75 147.5 117.5t195.5 42.5q164 0 283 -99q122 -102 122 -248v-9v-51v-9v-423q0 -147 -128 -249 q-123 -98 -295 -98t-295 98q-129 103 -129 249zM207 347q0 -98 90 -169q93 -75 231 -75t231 75q89 71 89 169v257q-41 -16 -73 -13h-247q-138 0 -231 -75q-90 -71 -90 -169zM267 1433l22 46q46 99 113 115q29 7 60.5 -3t50 -22.5t48.5 -36.5q62 -49 79 -45q26 4 60 77l22 47 l92 -44l-21 -46q-55 -116 -129 -134q-14 -3 -28 -3q-57 0 -139 67q-59 46 -72 43q-2 0 -6.5 -3t-15 -17t-21.5 -38l-22 -47z" />
<glyph unicode="&#xe4;" horiz-adv-x="1091" d="M104 347q0 146 129 249q123 98 295 98h248h5h-1q28 -2 47 16t21 62v67q0 101 -88.5 172.5t-213.5 71.5q-80 0 -149 -31.5t-111 -87.5l-31 -41l-82 61l30 42q56 75 147.5 117.5t195.5 42.5q164 0 283 -99q122 -102 122 -248v-9v-51v-9v-423q0 -147 -128 -249 q-123 -98 -295 -98t-295 98q-129 103 -129 249zM207 347q0 -98 90 -169q93 -75 231 -75t231 75q89 71 89 169v257q-41 -16 -73 -13h-247q-138 0 -231 -75q-90 -71 -90 -169zM317 1431v28q0 21 15 36t36 15t36.5 -15t15.5 -36v-28q0 -21 -15.5 -36t-36.5 -15t-36 15t-15 36z M686 1431v28q0 21 15 36t36 15t36 -15t15 -36v-28q0 -21 -15 -36t-36 -15t-36 15t-15 36z" />
<glyph unicode="&#xe5;" horiz-adv-x="1091" d="M104 347q0 146 129 249q123 98 295 98h248h5h-1q28 -2 47 16t21 62v67q0 101 -88.5 172.5t-213.5 71.5q-80 0 -149 -31.5t-111 -87.5l-31 -41l-82 61l30 42q56 75 147.5 117.5t195.5 42.5q164 0 283 -99q122 -102 122 -248v-9v-51v-9v-423q0 -147 -128 -249 q-123 -98 -295 -98t-295 98q-129 103 -129 249zM207 347q0 -98 90 -169q93 -75 231 -75t231 75q89 71 89 169v257q-41 -16 -73 -13h-247q-138 0 -231 -75q-90 -71 -90 -169zM383 1427q0 71 50.5 121.5t121.5 50.5t121.5 -50.5t50.5 -121.5t-50.5 -121.5t-121.5 -50.5 t-121.5 50.5t-50.5 121.5zM485 1427q0 -28 20.5 -48.5t49.5 -20.5t49 20t20 49t-20.5 49.5t-48.5 20.5q-29 0 -49.5 -20.5t-20.5 -49.5z" />
<glyph unicode="&#xe6;" horiz-adv-x="1839" d="M106 347q0 146 129 249q123 98 295 98q271 -11 299 16q20 20 21 62v67q0 101 -88.5 172.5t-213.5 71.5q-80 0 -149 -31.5t-111 -87.5l-31 -41l-82 61l30 42q56 75 147.5 117.5t195.5 42.5q164 0 283 -99q78 -65 106 -149q25 42 49 71q68 83 158 129q93 48 195 48h1h1 q166 0 270 -85q100 -83 100 -203q0 -61 -29 -117.5t-82 -97.5q-115 -91 -309 -91h-284q-20 0 -33 -12q-13 -13 -18.5 -31.5t-3.5 -30.5l1 -12q25 -172 134 -287t253 -115q190 0 278 118l31 41l82 -61l-31 -41q-118 -160 -360 -160q-101 0 -192.5 46t-162.5 132 q-26 32 -49 70q-31 -87 -111 -151q-123 -98 -295 -98t-295 98q-129 103 -129 249zM209 347q0 -98 90 -169q93 -75 231 -75t231 75q89 71 89 169q-5 252 -5 255q-39 -14 -68 -11h-247q-138 0 -231 -75q-90 -71 -90 -169zM954 685q24 9 59 9h278q156 0 246 70q72 56 72 134 q0 74 -69.5 129.5t-199.5 55.5q-143 0 -251 -113.5t-135 -284.5z" />
<glyph unicode="&#xe7;" horiz-adv-x="1093" d="M119 592v2q0 244 142 415q69 84 157 129q93 48 196 48h1q104 0 194.5 -42.5t145.5 -117.5l30 -41l-82 -61l-30 41q-41 55 -110 86.5t-149 31.5q-107 0 -197.5 -65.5t-143 -178t-52.5 -245.5v-2q0 -133 52.5 -246t143 -178.5t197.5 -65.5q80 0 149 31.5t110 87.5l30 41 l82 -62l-30 -41q-51 -68 -130.5 -109t-172.5 -49v-45q41 -16 69 -51q45 -56 45 -133t-45 -133q-48 -61 -121 -61q-84 0 -134 80l-27 43l88 54l26 -44q19 -31 47 -31q26 0 45 27.5t19 64.5t-19 64t-45 27h-51l1 142q-71 11 -132 43q-88 45 -157 129q-142 171 -142 415z" />
<glyph unicode="&#xe8;" horiz-adv-x="1110" d="M117 594q0 244 142 415q69 84 157 129q93 48 195 48h1h1q167 0 271 -85q99 -82 99 -203q0 -61 -29 -117.5t-82 -97.5q-115 -91 -308 -91h-285q-22 0 -33 -12q-14 -14 -19 -32.5t-3 -29.5l1 -11q25 -173 134.5 -288t253.5 -115q190 0 278 118l30 41l82 -61l-30 -41 q-118 -160 -360 -160q-101 0 -192.5 46t-162.5 132q-98 119 -128 277l-7 43q-6 46 -6 95zM226 685q24 9 59 9h279q155 0 245 70q72 56 72 134q0 74 -69.5 129.5t-199.5 55.5q-143 0 -251 -113.5t-135 -284.5zM360 1524l63 82l337 -259l-62 -81z" />
<glyph unicode="&#xe9;" horiz-adv-x="1110" d="M117 594q0 244 142 415q69 84 157 129q93 48 195 48h1h1q167 0 271 -85q99 -82 99 -203q0 -61 -29 -117.5t-82 -97.5q-115 -91 -308 -91h-285q-22 0 -33 -12q-14 -14 -19 -32.5t-3 -29.5l1 -11q25 -173 134.5 -288t253.5 -115q190 0 278 118l30 41l82 -61l-30 -41 q-118 -160 -360 -160q-101 0 -192.5 46t-162.5 132q-98 119 -128 277l-7 43q-6 46 -6 95zM226 685q24 9 59 9h279q155 0 245 70q72 56 72 134q0 74 -69.5 129.5t-199.5 55.5q-143 0 -251 -113.5t-135 -284.5zM360 1347l338 259l62 -82l-337 -258z" />
<glyph unicode="&#xea;" horiz-adv-x="1112" d="M129 594q0 244 142 415q69 84 157 129q93 48 195 48h1h1h1q166 0 270 -85q100 -83 100 -203q0 -61 -29 -117.5t-82 -97.5q-115 -91 -309 -91h-284q-22 0 -33 -12q-14 -14 -19 -32.5t-4 -29.5l2 -11q25 -173 134 -288t253 -115q190 0 278 118l31 41l82 -61l-31 -41 q-118 -160 -360 -160q-101 0 -192.5 46t-162.5 132q-98 119 -128 277l-7 43q-6 46 -6 95zM238 685q24 9 60 9h278q155 0 245 70q72 56 72 134q0 74 -69 129.5t-199 55.5q-143 0 -252 -113.5t-135 -284.5zM335 1426l286 199v-1l286 -198l-58 -84l-228 153l-227 -153z" />
<glyph unicode="&#xeb;" horiz-adv-x="1112" d="M119 594q0 244 142 415q69 84 157 129q93 48 195 48h1h1q167 0 271 -85q99 -82 99 -203q0 -61 -29 -117.5t-82 -97.5q-115 -91 -308 -91h-285q-22 0 -33 -12q-14 -14 -19 -32.5t-3 -29.5l1 -11q25 -173 134.5 -288t253.5 -115q190 0 278 118l30 41l82 -61l-30 -41 q-118 -160 -360 -160q-101 0 -192.5 46t-162.5 132q-98 119 -128 277l-7 43q-6 46 -6 95zM228 685q24 9 60 9h278q155 0 245 70q72 56 72 134q0 74 -69.5 129.5t-199.5 55.5q-143 0 -251 -113.5t-135 -284.5zM381 1431v28q0 21 15 36t36 15t36 -15t15 -36v-28q0 -21 -15 -36 t-36 -15t-36 15t-15 36zM749 1431v28q0 21 15.5 36t36.5 15t36 -15t15 -36v-28q0 -21 -15 -36t-36 -15t-36.5 15t-15.5 36z" />
<glyph unicode="&#xec;" horiz-adv-x="575" d="M88 1524l62 82l338 -259l-63 -81zM220 0v1186h103v-1186h-103z" />
<glyph unicode="&#xed;" horiz-adv-x="571" d="M82 1347l337 259l62 -82l-337 -258zM253 0v1186h102v-1186h-102z" />
<glyph unicode="&#xee;" horiz-adv-x="745" d="M86 1425l285 198h1l286 -198l-59 -84l-227 153l-227 -153zM321 0v1186h102v-1186h-102z" />
<glyph unicode="&#xef;" horiz-adv-x="651" d="M86 1431v28q0 21 15 36t36 15t36 -15t15 -36v-28q0 -21 -15 -36t-36 -15t-36 15t-15 36zM272 0v1186h102v-1186h-102zM455 1431v28q0 21 15 36t36 15t36 -15t15 -36v-28q0 -21 -15 -36t-36 -15t-36 15t-15 36z" />
<glyph unicode="&#xf0;" horiz-adv-x="350" />
<glyph unicode="&#xf1;" horiz-adv-x="1132" d="M139 0v734q0 187 122 318q125 134 300 134t300 -134q122 -131 122 -318v-734h-102v734q0 145 -94 247t-226 102t-225.5 -102t-93.5 -247v-734h-103zM296 1433l22 46q46 99 113 115q29 7 60.5 -3t50 -22.5t48.5 -36.5q62 -49 79 -45q26 4 60 77l22 47l92 -44l-21 -46 q-55 -116 -129 -134q-13 -3 -28 -3q-57 0 -139 67q-59 46 -72 43q-2 0 -6.5 -3t-15 -17t-21.5 -38l-22 -47z" />
<glyph unicode="&#xf2;" horiz-adv-x="1261" d="M117 586q0 240 145 410q69 81 161 127q96 47 200 47t200 -47q92 -46 161 -127q146 -171 146 -410t-146 -410q-69 -81 -161 -127q-98 -48 -200 -48t-200 48q-92 46 -161 127q-145 170 -145 410zM219 586q0 -131 54 -242t147 -175.5t203 -64.5q167 0 286 141.5t119 340.5 t-119 340.5t-286 141.5q-110 0 -203 -64.5t-147 -175.5t-54 -242zM424 1524l62 82l337 -259l-62 -81z" />
<glyph unicode="&#xf3;" horiz-adv-x="1261" d="M117 586q0 240 145 410q69 81 161 127q96 47 200 47t200 -47q92 -46 161 -127q146 -171 146 -410t-146 -410q-69 -81 -161 -127q-98 -48 -200 -48t-200 48q-92 46 -161 127q-145 170 -145 410zM219 586q0 -131 54 -242t147 -175.5t203 -64.5q167 0 286 141.5t119 340.5 t-119 340.5t-286 141.5q-110 0 -203 -64.5t-147 -175.5t-54 -242zM403 1347l338 259l62 -82l-337 -258z" />
<glyph unicode="&#xf4;" horiz-adv-x="1280" d="M129 586q0 239 146 410q69 81 161 127q96 47 200 47t200 -47q92 -46 161 -127q145 -170 145 -410t-145 -410q-69 -81 -161 -127q-98 -48 -200 -48t-200 48q-92 46 -161 127q-146 171 -146 410zM231 586q0 -199 119 -340.5t286 -141.5q110 0 203 64.5t147 175.5t54 242 t-54 242t-147 175.5t-203 64.5q-167 0 -286 -141.5t-119 -340.5zM350 1426l285 199l1 -1l286 -198l-59 -84l-227 153l-228 -153z" />
<glyph unicode="&#xf5;" horiz-adv-x="1261" d="M117 586q0 240 145 410q69 81 161 127q96 47 200 47t200 -47q92 -46 161 -127q146 -171 146 -410t-146 -410q-69 -81 -161 -127q-98 -48 -200 -48t-200 48q-92 46 -161 127q-145 170 -145 410zM219 586q0 -131 54 -242t147 -175.5t203 -64.5q167 0 286 141.5t119 340.5 t-119 340.5t-286 141.5q-110 0 -203 -64.5t-147 -175.5t-54 -242zM350 1433l22 46q46 99 113 115q29 7 60 -3t49 -22t49 -37q62 -49 80 -45q26 4 60 77l21 47l93 -44l-22 -46q-55 -116 -129 -134q-14 -3 -27 -3q-57 0 -139 67q-59 46 -72 43q-2 0 -6.5 -3t-15.5 -17t-22 -38 l-21 -47z" />
<glyph unicode="&#xf6;" horiz-adv-x="1261" d="M117 586q0 240 145 410q69 81 161 127q96 47 200 47t200 -47q92 -46 161 -127q146 -171 146 -410t-146 -410q-69 -81 -161 -127q-98 -48 -200 -48t-200 48q-92 46 -161 127q-145 170 -145 410zM219 586q0 -131 54 -242t147 -175.5t203 -64.5q167 0 286 141.5t119 340.5 t-119 340.5t-286 141.5q-110 0 -203 -64.5t-147 -175.5t-54 -242zM388 1431v28q0 21 15 36t36 15t36 -15t15 -36v-28q0 -21 -15 -36t-36 -15t-36 15t-15 36zM757 1431v28q0 21 15 36t36 15t36 -15t15 -36v-28q0 -21 -15 -36t-36 -15t-36 15t-15 36z" />
<glyph unicode="&#xf7;" horiz-adv-x="1245" d="M121 569v100h987v-100h-987zM513 99q0 43 26.5 70.5t67.5 27.5t67 -27.5t26 -70.5t-25.5 -71t-68.5 -28q-41 0 -67 28.5t-26 70.5zM513 1122q0 43 26.5 71t67.5 28t67 -27.5t26 -71.5q0 -43 -25.5 -70.5t-68.5 -27.5q-41 0 -67 28t-26 70z" />
<glyph unicode="&#xf8;" horiz-adv-x="1269" d="M123 586q0 239 146 410q69 81 161 127q96 47 200 47t200 -47q45 -22 91 -59l91 122h128l-145 -195q141 -169 141 -405q0 -240 -145 -410q-69 -81 -161 -127q-98 -48 -200 -48t-200 48q-52 25 -93 59l-81 -108h-127l135 181q-141 169 -141 405zM225 586q0 -182 102 -320 l533 716q-104 86 -230 86q-167 0 -286 -141.5t-119 -340.5zM398 191q104 -87 232 -87q110 0 203 64.5t147 175.5t54 242q0 183 -103 320z" />
<glyph unicode="&#xf9;" horiz-adv-x="1124" d="M137 452v734h103v-734q0 -145 93.5 -247.5t225.5 -102.5t226 102.5t94 247.5v734h102v-734q0 -187 -122 -318q-125 -134 -300 -134t-300 134q-122 131 -122 318zM359 1524l63 82l337 -259l-62 -81z" />
<glyph unicode="&#xfa;" horiz-adv-x="1124" d="M137 452v734h103v-734q0 -145 93.5 -247.5t225.5 -102.5t226 102.5t94 247.5v734h102v-734q0 -187 -122 -318q-125 -134 -300 -134t-300 134q-122 131 -122 318zM359 1347l338 259l62 -82l-337 -258z" />
<glyph unicode="&#xfb;" horiz-adv-x="1136" d="M145 452v734h103v-734q0 -145 93.5 -247.5t225.5 -102.5t226 102.5t94 247.5v734h102v-734q0 -187 -122 -318q-125 -134 -300 -134q-174 0 -299 134q-123 132 -123 318zM281 1425l286 198l286 -198l-58 -84l-228 153l-227 -153z" />
<glyph unicode="&#xfc;" horiz-adv-x="1124" d="M137 452v734h103v-734q0 -145 93.5 -247.5t225.5 -102.5t226 102.5t94 247.5v734h102v-734q0 -187 -122 -318q-125 -134 -300 -134t-300 134q-122 131 -122 318zM324 1431v28q0 21 15 36t36 15t36 -15t15 -36v-28q0 -21 -15 -36t-36 -15t-36 15t-15 36zM692 1431v28 q0 21 15 36t36 15t36.5 -15t15.5 -36v-28q0 -21 -15.5 -36t-36.5 -15t-36 15t-15 36z" />
<glyph unicode="&#x152;" horiz-adv-x="2093" d="M123 799q0 159 48 304t138 258q89 112 206 174q122 65 257 65q119 0 231 -52v57h956v-102l-854 -1v-620q37 15 85 15h769v-103h-769q-50 0 -69 -22q-16 -18 -16 -42v-629l854 1v-102l-956 -1v51q-109 -51 -231 -51q-136 0 -257 64q-117 62 -206 174q-90 113 -138 258 t-48 304zM225 799q0 -189 73.5 -350t199.5 -254.5t274 -93.5q122 0 231 65v1266q-109 65 -231 65q-148 0 -274 -93.5t-199.5 -254.5t-73.5 -350z" />
<glyph unicode="&#x153;" horiz-adv-x="2027" d="M119 586q0 240 145 410q69 81 161 127q96 47 200 47t200 -47q92 -46 161 -127q58 -69 93 -149q34 87 95 162q69 84 157 129q93 48 195 48h1h1q167 0 271 -85q99 -82 99 -203q0 -61 -29 -117.5t-81 -97.5q-115 -91 -309 -91h-284q-22 0 -33 -12q-14 -14 -19 -32.5 t-3 -29.5l1 -11q25 -173 134 -288t253 -115q190 0 278 118l31 41l82 -61l-31 -41q-118 -160 -360 -160q-101 0 -192.5 46t-162.5 132q-58 72 -91 153q-37 -88 -96 -156q-69 -81 -161 -127q-98 -48 -200 -48t-200 48q-92 46 -161 127q-145 170 -145 410zM221 586 q0 -131 54 -242t147 -175.5t203 -64.5q167 0 286 141.5t119 340.5t-119 340.5t-286 141.5q-110 0 -203 -64.5t-147 -175.5t-54 -242zM1141 685q24 9 60 9h278q155 0 245 70q72 56 72 134q0 74 -69 129.5t-199 55.5q-143 0 -252 -113.5t-135 -284.5z" />
<glyph unicode="&#x2000;" horiz-adv-x="1001" />
<glyph unicode="&#x2001;" horiz-adv-x="2002" />
<glyph unicode="&#x2002;" horiz-adv-x="1001" />
<glyph unicode="&#x2003;" horiz-adv-x="2002" />
<glyph unicode="&#x2004;" horiz-adv-x="667" />
<glyph unicode="&#x2005;" horiz-adv-x="500" />
<glyph unicode="&#x2006;" horiz-adv-x="333" />
<glyph unicode="&#x2007;" horiz-adv-x="333" />
<glyph unicode="&#x2008;" horiz-adv-x="250" />
<glyph unicode="&#x2009;" horiz-adv-x="400" />
<glyph unicode="&#x200a;" horiz-adv-x="111" />
<glyph unicode="&#x2010;" horiz-adv-x="831" d="M135 555v103h563v-103h-563z" />
<glyph unicode="&#x2011;" horiz-adv-x="831" d="M135 555v103h563v-103h-563z" />
<glyph unicode="&#x2012;" horiz-adv-x="831" d="M135 555v103h563v-103h-563z" />
<glyph unicode="&#x2013;" horiz-adv-x="1292" d="M135 555v103h1024v-103h-1024z" />
<glyph unicode="&#x2014;" horiz-adv-x="2316" d="M135 555v103h2048v-103h-2048z" />
<glyph unicode="&#x202f;" horiz-adv-x="400" />
<glyph unicode="&#x205f;" horiz-adv-x="500" />
<glyph unicode="&#x20ac;" horiz-adv-x="1570" d="M111 626v103h166q-3 37 -3 75q0 18 2 52h-165v103h175q37 237 175 408q92 114 207 174q122 65 258 65q157 0 297 -88q134 -84 223 -230l27 -44l-88 -54l-27 44q-79 128 -191.5 198t-240.5 70q-194 0 -343.5 -153.5t-191.5 -389.5h529v-103h-541q-2 -34 -2 -52 q0 -25 4 -75h539v-103h-525q47 -227 194.5 -373.5t336.5 -146.5q128 0 240.5 70t191.5 198l27 44l88 -54l-27 -44q-89 -146 -223 -230q-140 -88 -297 -88q-136 0 -258 65q-115 60 -207 174q-131 165 -171 385h-179z" />
<glyph unicode="&#x25fc;" horiz-adv-x="1187" d="M0 0v1188h1188v-1188h-1188z" />
</font>
</defs>
</svg>
