<?xml version="1.0" encoding="utf-8"?>
<!-- Generator: Adobe Illustrator 16.0.0, SVG Export Plug-In . SVG Version: 6.00 Build 0)  -->
<!DOCTYPE svg PUBLIC "-//W3C//DTD SVG 1.1//EN" "http://www.w3.org/Graphics/SVG/1.1/DTD/svg11.dtd">
<svg version="1.1" id="Layer_1" xmlns="http://www.w3.org/2000/svg" xmlns:xlink="http://www.w3.org/1999/xlink" x="0px" y="0px"
	 width="849.974px" height="252.118px" viewBox="66 171.292 849.974 252.118" enable-background="new 66 171.292 849.974 252.118"
	 xml:space="preserve">
<g>
	<g>
		<path fill="#FFFFFF" d="M142.536,234.319v-7.004c0-8.043,6.542-14.587,14.583-14.587c3.131,0,5.669-2.538,5.669-5.669
			s-2.539-5.669-5.669-5.669c-7.123,0-13.583,2.89-18.272,7.556c0.078-0.226,0.14-0.46,0.184-0.7
			c2.069-11.375-0.685-21.841-7.559-28.711c-5.395-5.393-12.778-8.242-21.352-8.242c-2.396,0-4.872,0.229-7.362,0.682
			c-1.946,0.354-3.47,1.875-3.823,3.821c-2.101,11.548,0.583,21.745,7.557,28.712c5.391,5.392,12.771,8.242,21.345,8.242l0,0
			c2.396,0,4.877-0.23,7.371-0.683c0.459-0.083,0.892-0.235,1.294-0.439c-3.324,4.358-5.304,9.796-5.304,15.688v7.004
			C95.782,235.286,66,246.019,66,291.254c0,49.147,28.974,78.463,41.774,78.463c12.805,0,22.135-8.313,29.092-8.313
			c6.956,0,16.287,8.313,29.092,8.313c12.803,0,41.774-29.314,41.774-78.463C207.733,246.019,177.952,235.286,142.536,234.319z
			 M136.866,345.622c-25.042,0-45.354-20.302-45.354-45.354c0-25.046,20.312-45.354,45.354-45.354s45.354,20.31,45.354,45.354
			C182.221,325.321,161.908,345.622,136.866,345.622z"/>
		<path fill="#FFFFFF" d="M136.869,269.087c-17.22,0-31.185,13.964-31.185,31.18c0,17.221,13.965,31.182,31.185,31.182
			c17.218,0,31.179-13.961,31.179-31.182C168.048,283.051,154.087,269.087,136.869,269.087z M136.869,322.944
			c-12.523,0-22.681-10.153-22.681-22.678c0-12.521,10.157-22.675,22.681-22.675c12.521,0,22.675,10.153,22.675,22.675
			C159.544,312.79,149.391,322.944,136.869,322.944z"/>
		<circle fill="#FFFFFF" cx="136.866" cy="300.269" r="11.338"/>
	</g>
	<g>
		<path fill="#FFFFFF" d="M910.102,301.532c-2.401-0.209-4.773-0.302-7.181-0.302c-37.089,0-50.755,26.353-65.28,26.353
			c-8.725,0-14.507-9.477-17.487-21.682c-0.667-2.729-2.716-3.938-4.856-3.938c-2.483,0-5.06,1.655-5.553,4.528
			c-1.707,9.942-11.057,22.807-22.809,22.807c-5.571,0-13.122-4.313-13.122-14.705c0-14.316,11.729-25.737,26.975-25.737
			c8.884,0,11.464,4.79,15.354,4.79c2.843,0,5.298-2.839,5.298-5.716c0-6.116-12.377-10.743-21.727-10.743
			c-8.381,0-17.881,3.473-26.905,8.989c-12.93,7.904-24.421,18.98-34.243,30.894c-0.375-8.043-1.678-43.048-3.515-54.769
			c-0.532-3.394-3.237-5.427-5.926-5.427c-2.186,0-4.262,1.362-4.846,4.466c-6.913,36.706-19.934,68.513-33.231,68.513
			c-4.109,0-7.805-2.82-7.805-16.302c0-17.519,8.866-45.644,8.866-64.224c0-12.836-3.691-23.455-17.098-23.455
			c-17.68,0-32.12,24.786-32.12,29.051c0,3.94,3.171,6.031,6.012,6.031c1.479,0,2.863-0.593,3.647-1.954
			c4.434-7.704,12.559-21.416,23.035-21.416c4.352,0,5.812,2.572,5.812,10.009c0,11.481-8.864,49.396-8.864,67.354
			c0,23.459,13.709,26.596,19.627,26.596c18.348,0,29.653-30.34,34.625-45.496c0.163,4.014,0.322,8.017,0.525,11.989
			c0.375,7.334,0.714,14.673,1.016,22.013c-10.794,13.653-31.125,46.457-31.125,68.732c0,16.688,10.111,24.628,20.031,24.628
			c17.435,0,23.209-17.253,23.209-38.146c0-19.982-0.96-46.204-1.133-50.771c7.265-9.553,15.328-18.506,24.197-26.45
			c-0.271,1.867-0.4,3.757-0.4,5.636c0,21.228,15.645,27.182,24.426,27.182c13.866,0,23.877-10.098,27.744-17.914
			c5.169,9.235,13.258,16.507,23.352,16.507c19.623,0,29.748-26.457,66.14-26.457c4.608,0,5.141,0.32,7.125,0.32
			c2.797,0,4.082-2.057,4.082-4.508C915.973,305.622,913.838,301.859,910.102,301.532z M729.633,383.829
			c0,22.745-5.467,27.8-12.932,27.8c-3.821,0-8.677-1.208-8.677-13.565c0-11.738,13.477-38.738,20.987-48.848
			C729.359,360.752,729.633,372.29,729.633,383.829z"/>
		<path fill="#FFFFFF" d="M640.025,329.393c-8.262-1.128-18.088-5.797-21.376-21.652c-0.843-4.062-3.27-5.41-5.749-5.41
			c-2.199,0-4.396,1.378-5.021,4.449c-2.045,10.047-8.712,22.598-22.018,22.598c-7.698,0-12.802-6.121-12.802-13.998
			c0-9.823,8.819-26.535,26.75-26.535c10.658,0,11.783,5.293,15.783,5.293c2.938,0,5.229-2.755,5.229-5.695
			c0-6.626-12.696-11.611-21.485-11.611c-12.377,0-28.41,6.312-39.336,32.829c-5.34,12.957-11.847,19.624-19.097,19.624
			c-4.737,0-9.946-5.79-12.357-12.249c17.829-25.749,24.88-50.767,24.88-65.82c0-8.886-2.926-29.743-20.701-29.743
			c-23.225,0-24.025,34.607-24.025,46.564c0,15.801,2.821,32.034,7.626,46.352c-6.9,8.482-14.729,14.903-18.898,14.903
			c-6.694,0-13.411-24.306-13.411-46.601c0-3.484-3.183-5.481-6.024-5.435c-2.308,0.039-4.462,1.43-4.747,4.474
			c-1.275,13.66-7.369,47.473-24.729,47.473c-3.516,0-12.354-2.542-12.354-17.292c0-16.999,2.527-22.062,2.527-28.188
			c0-3.159-3.112-5.906-6.104-5.873c-1.686,0.02-3.23,0.904-4.556,3.278c-3.547,6.356-11.954,15.771-27.084,23.253
			c-5.953-35.881-20.359-65.588-26.813-71.867c-2.329-2.266-4.794-3.742-7.484-3.742c-3.661,0-6.901,3.182-7.944,7.557
			c-5.808,24.361-17.96,62.933-26.797,79.66c-16.179-0.801-25.547-3.604-25.547-8.996c0-4.498,4.269-7.04,8.61-7.854
			c3.219-0.604,5.851-2.295,5.851-6.119c0-2.987-1.743-6.008-4.858-6.008c-4.209,0-20.407,4.356-20.407,20.29
			c0,9.276,7.76,17.604,30.074,19.74c-10.582,17.479-23.665,33.979-34.273,42.925c-1.323,1.117-1.838,2.688-1.838,4.227
			c0,3.542,2.3,6.87,5.232,6.87c2.003,0,3.821-1.106,11.614-8.84c8.143-8.079,21.746-26.042,32.024-44.653
			c23.212-0.062,40.446-2.829,53.816-7.071c0.476,4.945,0.743,9.852,0.743,14.632c0,14.198-2.712,15.654-2.712,19.524
			c0,3.546,3.325,6.55,6.282,6.55c6.586,0,7.083-19.129,7.083-25.9c0-6.299-0.364-12.558-1.004-18.7
			c9.61-4.202,16.901-9.208,23.136-14.28c-1.729,17.087,3.271,38.563,24.094,38.563c15.51,0,25.177-17.561,27.422-26.325
			c3.255,14.849,10.588,26.66,20.484,26.66c8.854,0,19.688-9.646,23.618-14.979c5.093,9.8,12.427,14.743,20.574,14.743
			c9.912,0,18.399-7.728,22.415-15.177c4.142,9.977,13.891,16.348,26.151,14.923c10.959-1.273,18.251-8.089,22.901-16.838
			c5.659,10.268,18.326,17.072,25.984,17.072c3.556,0,5.207-3.053,5.207-6.015C644.584,332.406,643.06,329.807,640.025,329.393z
			 M344.171,316.213c13.499-29.105,22.085-61.961,24.282-73.633c7.645,11.031,17.791,38.153,22.237,66.135
			C378.594,313.064,363.277,316.066,344.171,316.213z M524.189,303.352c-0.054-0.204-4.245-14.858-4.245-35.002
			c0-25.207,4.809-35.187,13.307-35.187c7.219,0,9.215,8.589,9.215,16.987C542.465,266.408,531.25,293.158,524.189,303.352z"/>
	</g>
</g>
</svg>
