<?xml version="1.0" encoding="UTF-8" standalone="no"?>
<svg width="218px" height="154px" viewBox="0 0 218 154" version="1.1" xmlns="http://www.w3.org/2000/svg" xmlns:xlink="http://www.w3.org/1999/xlink" xmlns:sketch="http://www.bohemiancoding.com/sketch/ns">
    <!-- Generator: Sketch 3.4.4 (17249) - http://www.bohemiancoding.com/sketch -->
    <title>bisu</title>
    <desc>Created with Sketch.</desc>
    <defs>
        <path id="path-1" d="M0.06,0.361 L217.175,0.361 L217.175,154 L0.06,154 L0.06,0.361 Z"></path>
    </defs>
    <g id="Page-1" stroke="none" stroke-width="1" fill="none" fill-rule="evenodd" sketch:type="MSPage">
        <g id="bisu" sketch:type="MSLayerGroup">
            <g id="Group-3">
                <mask id="mask-2" sketch:name="Clip 2" fill="white">
                    <use xlink:href="#path-1"></use>
                </mask>
                <g id="Clip-2"></g>
                <path d="M28.382,140.073 C38.43,140.073 43.013,134.785 43.013,123.326 L43.013,112.397 C43.013,98.647 37.548,94.064 25.737,94.064 L13.75,94.064 L13.75,140.073 L28.382,140.073 L28.382,140.073 Z M24.327,81.547 C35.257,81.547 40.897,78.022 40.897,65.152 L40.897,57.925 C40.897,46.995 37.195,41.707 27.324,41.707 L13.75,41.707 L13.75,81.547 L24.327,81.547 L24.327,81.547 Z M27.677,29.191 C46.892,29.191 54.472,38.358 54.472,56.515 L54.472,62.332 C54.472,75.377 50.77,83.486 40.017,86.836 C52.004,90.185 56.587,99.704 56.587,113.278 L56.587,123.679 C56.587,142.19 47.597,152.59 28.382,152.59 L0,152.59 L0,29.191 L27.677,29.191 L27.677,29.191 Z" id="Fill-1" fill="#FFFFFF" sketch:type="MSShapeGroup" mask="url(#mask-2)"></path>
            </g>
            <path d="M69.102,29.191 L82.852,29.191 L82.852,152.59 L69.102,152.59 L69.102,29.191 Z" id="Fill-4" fill="#FFFFFF" sketch:type="MSShapeGroup"></path>
            <path d="M150.366,58.807 L150.366,62.155 L137.321,62.155 L137.321,58.102 C137.321,46.995 133.09,40.473 123.218,40.473 C113.347,40.473 109.115,46.995 109.115,57.925 C109.115,85.602 150.542,88.246 150.542,122.974 C150.542,141.66 141.552,153.824 122.689,153.824 C103.827,153.824 95.013,141.66 95.013,122.974 L95.013,115.923 L107.882,115.923 L107.882,123.679 C107.882,134.785 112.465,141.308 122.337,141.308 C132.209,141.308 136.792,134.785 136.792,123.679 C136.792,96.179 95.541,93.534 95.541,58.807 C95.541,39.768 104.355,27.956 122.865,27.956 C141.552,27.956 150.366,40.12 150.366,58.807" id="Fill-5" fill="#FFFFFF" sketch:type="MSShapeGroup"></path>
            <path d="M175.572,123.503 C175.572,134.609 179.979,141.308 190.027,141.308 C199.899,141.308 204.307,134.609 204.307,123.503 L204.307,29.191 L217.175,29.191 L217.175,122.798 C217.175,141.485 208.537,154 189.499,154 C170.636,154 161.998,141.485 161.998,122.798 L161.998,29.191 L175.572,29.191 L175.572,123.503" id="Fill-6" fill="#FFFFFF" sketch:type="MSShapeGroup"></path>
            <path d="M180.748,27.427 L180.748,10.827 C180.748,9.383 181.025,8.023 181.579,6.75 C182.133,5.474 182.878,4.367 183.816,3.428 C184.754,2.491 185.85,1.744 187.1,1.192 C188.353,0.639 189.699,0.361 191.142,0.361 C192.586,0.361 193.946,0.639 195.221,1.192 C196.496,1.744 197.603,2.491 198.54,3.428 C199.479,4.367 200.225,5.474 200.777,6.75 C201.332,8.023 201.607,9.383 201.607,10.827 L201.607,27.427 L199.227,27.427 L199.227,10.827 C199.227,9.719 199.01,8.673 198.576,7.687 C198.143,6.701 197.566,5.847 196.844,5.125 C196.122,4.403 195.27,3.826 194.282,3.392 C193.296,2.96 192.25,2.743 191.142,2.743 C190.036,2.743 189.002,2.96 188.039,3.392 C187.077,3.826 186.234,4.403 185.513,5.125 C184.791,5.847 184.213,6.701 183.78,7.687 C183.348,8.673 183.131,9.719 183.131,10.827 L183.131,27.427 L180.748,27.427" id="Fill-7" fill="#FFFFFF" sketch:type="MSShapeGroup"></path>
        </g>
    </g>
</svg>