<?xml version="1.0" encoding="UTF-8" standalone="no"?>
<svg width="22px" height="22px" viewBox="0 0 22 22" version="1.1" xmlns="http://www.w3.org/2000/svg" xmlns:xlink="http://www.w3.org/1999/xlink" xmlns:sketch="http://www.bohemiancoding.com/sketch/ns">
    <!-- Generator: Sketch 3.4.4 (17249) - http://www.bohemiancoding.com/sketch -->
    <title>close</title>
    <desc>Created with Sketch.</desc>
    <defs></defs>
    <g id="Page-1" stroke="none" stroke-width="1" fill="none" fill-rule="evenodd" sketch:type="MSPage">
        <g id="close" sketch:type="MSLayerGroup" transform="translate(-1.000000, -1.000000)" fill="#FFFFFF">
            <g id="Page-1" sketch:type="MSShapeGroup">
                <g id="Desktop-HD">
                    <g id="hamburguer">
                        <path d="M24,14 L0,14 C-1.104,14 -2,13.104 -2,12 C-2,10.896 -1.104,10 0,10 L24,10 C25.104,10 26,10.896 26,12 C26,13.104 25.104,14 24,14" id="Fill-12" transform="translate(12.000000, 12.000000) rotate(-135.000000) translate(-12.000000, -12.000000) "></path>
                        <path d="M24,14 L0,14 C-1.104,14 -2,13.104 -2,12 C-2,10.896 -1.104,10 0,10 L24,10 C25.104,10 26,10.896 26,12 C26,13.104 25.104,14 24,14" id="Fill-16" transform="translate(12.000000, 12.000000) rotate(-45.000000) translate(-12.000000, -12.000000) "></path>
                    </g>
                </g>
            </g>
        </g>
    </g>
</svg>