<?xml version="1.0" encoding="UTF-8" standalone="no"?>
<svg width="375px" height="68px" viewBox="0 0 375 68" version="1.1" xmlns="http://www.w3.org/2000/svg" xmlns:xlink="http://www.w3.org/1999/xlink" xmlns:sketch="http://www.bohemiancoding.com/sketch/ns">
    <!-- Generator: Sketch 3.4.4 (17249) - http://www.bohemiancoding.com/sketch -->
    <title>educatina</title>
    <desc>Created with Sketch.</desc>
    <defs></defs>
    <g id="Page-1" stroke="none" stroke-width="1" fill="none" fill-rule="evenodd" sketch:type="MSPage">
        <g id="Desktop-HD" sketch:type="MSArtboardGroup" transform="translate(-870.000000, -318.000000)" fill="#FFFFFF">
            <g id="educatina" sketch:type="MSLayerGroup" transform="translate(870.000000, 318.000000)">
                <path d="M256.7036,18.8685 C258.5996,18.8685 260.1366,17.3315 260.1366,15.4375 C260.1366,13.5425 258.5996,12.0055 256.7036,12.0055 C254.8076,12.0055 253.2706,13.5425 253.2706,15.4375 C253.2706,17.3315 254.8076,18.8685 256.7036,18.8685" id="Fill-46" sketch:type="MSShapeGroup"></path>
                <path d="M350.2621,50.3887 C350.2221,50.4897 345.4011,60.5207 335.5421,60.9417 C332.6261,61.0667 329.8331,58.9437 328.0821,55.2627 C325.5941,50.0337 325.4651,42.0787 330.7771,36.0907 C335.0521,31.2707 340.1291,30.2547 344.4031,30.2547 C346.7981,30.2547 349.0641,30.7177 350.5221,31.0927 L350.5031,49.8887 C350.4101,50.0467 350.3311,50.2127 350.2621,50.3887 L350.2621,50.3887 Z M190.2141,60.9417 C187.3021,61.0667 184.5031,58.9437 182.7521,55.2627 C182.1131,53.9197 181.6351,52.3967 181.3591,50.7747 C181.3641,50.4097 181.3151,50.0487 181.2051,49.7047 C180.7161,45.2537 181.7951,40.2077 185.4471,36.0907 C189.7241,31.2707 194.8001,30.2547 199.0741,30.2547 C201.4681,30.2547 203.7171,30.6867 205.1741,31.0617 L205.1731,49.8887 C205.0821,50.0467 205.0011,50.2127 204.9351,50.3887 C204.8951,50.4897 200.0711,60.5207 190.2141,60.9417 L190.2141,60.9417 Z M72.2171,53.3477 C70.0301,55.9057 63.1211,63.3377 56.5861,60.1807 C53.9611,58.9147 52.3171,56.8497 51.5621,53.8687 C50.1641,48.3697 52.3001,41.4397 54.3781,38.5517 C56.5771,35.4947 60.5461,30.2257 70.1351,30.2257 C70.8621,30.2257 71.4231,30.2367 72.2171,30.2827 L72.2171,53.3477 Z M13.2941,38.6047 C14.3981,35.3437 17.4861,32.7267 20.9261,32.2907 C21.4581,32.2227 22.0111,32.2477 22.5411,32.3577 C27.5521,33.4087 24.8291,38.6207 21.6251,40.0017 C18.7941,41.2217 15.4561,41.4577 12.4141,41.5397 C12.5941,41.5337 13.2201,38.8317 13.2941,38.6047 L13.2941,38.6047 Z M372.4371,52.7477 C370.6721,52.0587 368.6831,52.9337 367.9981,54.6967 C367.4911,55.9927 364.8411,61.1737 361.9611,60.9087 C358.9431,60.6367 357.2321,54.9397 357.3581,51.0907 C357.3581,51.0787 357.3611,51.0687 357.3611,51.0547 L357.3611,28.2877 C357.3611,26.8997 356.5251,25.6477 355.2401,25.1197 C354.5261,24.8247 337.6061,18.0567 325.6471,31.5377 C319.6911,38.2497 318.6541,46.7297 320.2781,53.5747 C320.2781,53.5807 320.2771,53.5827 320.2771,53.5827 C320.1101,55.0137 318.7121,57.1257 317.9301,57.9927 C316.5211,59.5517 314.1391,61.4057 311.8911,61.1427 C310.5121,60.9807 309.8061,59.3947 309.7561,58.1327 C309.7551,58.0607 309.7561,41.1657 309.7561,41.1657 C309.7561,34.3657 307.2191,29.8977 303.7671,26.7837 C300.9521,24.2417 297.1441,23.0517 292.7531,23.3377 C288.2121,23.6337 284.4641,25.1007 281.6161,26.7187 C281.6131,24.8277 280.0811,23.2917 278.1881,23.2917 L275.5191,23.2917 C273.6261,23.2917 272.0911,24.8277 272.0911,26.7217 C272.0911,28.3527 272.7411,30.2547 274.7581,30.2547 L274.7581,54.9297 C274.7581,57.1767 272.3131,58.5387 270.6101,59.4887 C268.3231,60.7627 264.7981,62.3767 262.3011,60.7637 C260.5691,59.6427 260.0941,57.1037 260.1311,55.1767 C260.1341,55.0297 260.1141,54.8887 260.1001,54.7467 L260.1361,26.8457 C260.1361,26.8027 260.1471,26.7647 260.1471,26.7217 C260.1471,24.8277 258.6121,23.2917 256.7181,23.2917 L256.7111,23.2917 L256.7061,23.2917 L253.8021,23.2917 C251.9071,23.2917 250.3721,24.8277 250.3721,26.7217 C250.3721,28.4347 251.5921,29.9977 253.2321,30.2547 L253.2321,55.8407 C251.3681,57.5787 246.5001,61.3967 239.8781,60.9647 C237.5791,60.8167 235.9531,60.1367 234.9101,58.8937 C233.1131,56.7537 233.4171,54.3467 233.4401,53.3387 C233.4431,53.2687 233.4651,30.2547 233.4651,30.2547 L237.5621,30.2547 C239.4551,30.2547 240.9901,28.6167 240.9901,26.7217 C240.9901,24.8277 239.4551,23.2917 237.5621,23.2917 L233.4651,23.2917 L233.4651,15.6867 C233.4651,13.7927 231.9291,12.2567 230.0351,12.2567 C228.1421,12.2567 226.6071,13.7927 226.6071,15.6867 L226.6071,23.2917 L224.7961,23.2917 C222.9021,23.2917 221.3661,24.8277 221.3661,26.7217 C221.3661,28.6167 222.9081,30.2547 224.8021,30.2547 L226.5571,30.2547 L226.5571,52.7607 C226.5571,53.9167 226.4971,55.3657 226.7511,56.9857 C224.0741,59.4977 219.9951,61.2127 216.6311,60.9087 C213.6151,60.6367 211.9021,54.9397 212.0301,51.0907 C212.0301,51.0787 212.0311,51.0687 212.0311,51.0547 L212.0311,28.2877 C212.0311,26.8997 211.1951,25.6477 209.9101,25.1197 C209.1961,24.8247 192.2771,18.0567 180.3171,31.5377 C175.3361,37.1547 173.8011,44.0057 174.3801,50.1037 C172.3371,53.5997 168.9911,56.0117 168.9001,56.0757 C166.9301,57.5317 164.8831,58.6957 162.9751,59.4397 C158.8141,61.0647 152.7581,62.0907 147.5461,57.7507 C144.1871,54.9507 142.8101,52.8497 142.4671,49.9987 C141.9621,45.7757 142.2641,39.6187 144.7871,36.1607 C149.7881,29.3067 156.8911,30.0107 160.4021,30.7937 L160.4021,34.7587 C160.4021,36.6537 161.9371,38.1887 163.8301,38.1887 C165.7241,38.1887 167.2601,36.6537 167.2601,34.7587 L167.2601,28.0447 C167.2601,26.6577 166.4241,25.4067 165.1441,24.8757 C159.6671,22.6067 147.2101,21.2017 139.2451,32.1187 C134.6001,38.4887 135.3251,48.0387 135.6561,50.8147 C135.8711,52.6017 136.3571,54.1477 136.9941,55.5447 C136.9861,55.5537 136.9801,55.5597 136.9731,55.5687 C136.3931,56.3157 135.6951,57.0127 134.9701,57.6167 C133.0001,59.2567 128.8551,62.1667 126.3091,60.2107 C125.1931,59.3517 124.5781,57.7187 124.5831,56.3267 L124.5781,26.7187 C124.5771,24.8257 123.0231,23.2917 121.1291,23.2917 C119.2341,23.2937 117.7181,24.8637 117.7201,26.7577 L117.7201,53.0737 C115.1071,56.4317 111.2021,59.8027 106.9231,60.7347 C103.5201,61.4757 99.5801,59.3447 99.5761,55.5927 L99.5541,26.7187 C99.5541,26.6017 99.5391,26.4987 99.5161,26.4077 C99.3541,24.6647 97.9061,23.2947 96.1171,23.2917 L92.5521,23.2917 C90.6571,23.2917 89.1221,24.8277 89.1221,26.7217 C89.1221,28.6167 90.6571,30.2547 92.5521,30.2547 L92.6971,30.2547 C92.6971,30.2547 92.7191,56.1757 92.7191,56.1877 C92.7191,56.2007 92.7201,56.2137 92.7201,56.2277 C86.4651,61.3717 83.4581,61.1867 82.3881,60.7857 C80.0861,59.9227 79.1911,55.8457 79.0591,54.4807 L79.0591,3.9697 C79.0591,3.0597 78.7851,2.2627 78.1421,1.6187 C77.4991,0.9757 76.6261,0.6137 75.7161,0.6137 L72.1491,0.6137 C70.2561,0.6137 68.7211,2.1487 68.7211,4.0417 C68.7211,5.9367 70.3231,7.4957 72.2171,7.4957 L72.1991,23.2917 C61.3781,22.7507 53.8561,27.5337 48.8101,34.5477 C46.8491,37.2707 45.1861,41.5177 44.5431,46.0827 C42.8161,47.5237 37.7051,51.6257 36.6621,52.2737 C34.8061,53.4237 32.8621,54.5677 31.2151,55.1297 C25.9221,56.9347 17.3541,57.7977 14.7301,52.8797 C18.7381,52.6317 22.8581,51.9237 26.7431,50.2847 C34.5971,46.9747 38.6201,38.5457 36.0991,30.6777 C34.5851,25.9527 30.8661,22.3347 26.3921,21.2357 C21.9071,20.1347 16.4371,21.0907 11.7551,23.7937 C8.2941,25.7947 5.4191,28.7317 3.6571,32.0647 C2.2031,34.8207 1.4881,37.6867 1.1451,39.6067 C-0.4649,48.6247 1.7321,56.1857 7.6771,62.0807 C11.9451,66.3117 17.8081,67.8497 23.5401,67.8497 C27.5971,67.8497 31.5881,67.0807 34.9051,65.9477 C37.6361,65.0177 40.2601,63.4927 42.6911,61.9847 C43.9211,61.2207 45.1551,60.3437 46.3721,59.3707 C47.9591,62.4257 50.4011,64.8117 53.6031,66.3577 C55.7831,67.4107 57.9261,67.8497 59.9821,67.8497 C65.6381,67.8497 70.6491,64.5257 74.0421,61.4997 C75.1771,63.7937 77.0041,66.0787 79.9411,67.1937 C81.0931,67.6317 82.3001,67.8497 83.5651,67.8497 C86.9761,67.8497 90.8261,66.2337 95.1701,63.0137 C98.1951,66.6187 103.0221,68.4237 107.6501,67.5187 C110.9011,66.8827 113.7671,65.3927 116.3851,63.3907 C117.1531,62.8027 117.8901,62.1757 118.6111,61.5297 C119.6441,63.8797 121.6901,66.1517 125.3141,67.3787 C126.2431,67.6927 127.2001,67.8497 128.1861,67.8497 C132.0811,67.8497 137.2121,65.0157 140.7821,60.8757 L140.7861,60.8707 C141.5481,61.6317 142.3451,62.3447 143.1561,63.0197 C146.8871,66.1267 151.3151,67.7027 156.1061,67.7027 C159.1131,67.7027 162.2631,67.0807 165.4701,65.8307 C167.9341,64.8677 170.5301,63.4017 172.9111,61.6387 C173.0341,61.5537 174.7051,60.3647 176.6331,58.3537 C179.5201,64.3097 184.4561,67.8057 189.9511,67.8057 C190.1351,67.8057 190.3211,67.8027 190.5071,67.7947 C197.8191,67.4817 203.2351,63.5467 206.7371,59.6997 C208.3881,63.8397 211.3901,67.3227 216.0161,67.7397 C216.4741,67.7807 216.9361,67.8017 217.4031,67.8017 C221.6811,67.8017 226.1931,66.0927 229.7481,63.3967 C232.0241,66.0507 235.2771,67.5407 239.4351,67.8087 C239.9341,67.8407 240.4241,67.8577 240.9101,67.8577 C247.2271,67.8557 252.2241,65.2187 255.4031,62.9007 C257.1031,65.6217 259.7521,67.6237 263.1801,67.7927 C267.3961,67.9997 271.3761,66.5997 274.7581,64.2727 L274.7581,64.4197 C274.7581,66.3147 276.2941,67.8497 278.1881,67.8497 C280.0811,67.8497 281.6161,66.3147 281.6161,64.4197 L281.6161,56.1337 C281.6161,56.0967 281.6071,56.0627 281.6041,56.0247 C281.6061,55.9967 281.6161,55.9687 281.6161,55.9397 L281.6161,35.1067 C283.4191,33.5207 287.4971,30.5547 293.1991,30.1817 C295.7781,30.0157 297.7241,30.5677 299.1711,31.8737 C301.1671,33.6757 302.4961,36.6187 302.6661,41.1817 C302.6661,41.1817 302.6321,58.1967 302.6321,58.2627 C302.6321,59.2547 302.7341,60.2547 303.0261,61.2047 C304.2471,65.1667 307.9171,67.6237 311.9051,67.8497 C312.4791,67.8827 313.0591,67.8687 313.6381,67.8077 C317.5691,67.3857 321.4801,64.7637 323.8021,61.6237 C323.8241,61.5947 323.8421,61.5627 323.8651,61.5327 C326.7881,65.5327 330.8501,67.8057 335.2801,67.8057 C335.4631,67.8057 335.6501,67.8027 335.8361,67.7947 C343.1101,67.4827 348.5051,63.5877 352.0101,59.7597 C353.3191,63.1037 356.1671,65.9327 359.5071,67.1647 C360.4021,67.4957 361.2951,67.6457 362.1751,67.6447 C367.6201,67.6397 372.5651,61.8587 374.3871,57.1887 C375.0751,55.4227 374.2021,53.4357 372.4371,52.7477 L372.4371,52.7477 Z" id="Fill-48" sketch:type="MSShapeGroup"></path>
            </g>
        </g>
    </g>
</svg>