<?xml version="1.0" encoding="UTF-8" standalone="no"?>
<svg width="28px" height="20px" viewBox="0 0 28 20" version="1.1" xmlns="http://www.w3.org/2000/svg" xmlns:xlink="http://www.w3.org/1999/xlink" xmlns:sketch="http://www.bohemiancoding.com/sketch/ns">
    <!-- Generator: Sketch 3.4.4 (17249) - http://www.bohemiancoding.com/sketch -->
    <title>hamburguer</title>
    <desc>Created with Sketch.</desc>
    <defs></defs>
    <g id="Page-1" stroke="none" stroke-width="1" fill="none" fill-rule="evenodd" sketch:type="MSPage">
        <g id="Desktop-HD" sketch:type="MSArtboardGroup" transform="translate(-796.000000, -544.000000)" fill="#033A4B">
            <g id="hamburguer" sketch:type="MSLayerGroup" transform="translate(796.000000, 544.000000)">
                <path d="M26,4 L2,4 C0.896,4 0,3.104 0,2 C0,0.896 0.896,0 2,0 L26,0 C27.104,0 28,0.896 28,2 C28,3.104 27.104,4 26,4" id="Fill-12" sketch:type="MSShapeGroup"></path>
                <path d="M26,12 L2,12 C0.896,12 0,11.104 0,10 C0,8.896 0.896,8 2,8 L26,8 C27.104,8 28,8.896 28,10 C28,11.104 27.104,12 26,12" id="Fill-14" sketch:type="MSShapeGroup"></path>
                <path d="M26,20 L2,20 C0.896,20 0,19.104 0,18 C0,16.896 0.896,16 2,16 L26,16 C27.104,16 28,16.896 28,18 C28,19.104 27.104,20 26,20" id="Fill-16" sketch:type="MSShapeGroup"></path>
            </g>
        </g>
    </g>
</svg>