<?xml version="1.0" encoding="UTF-8" standalone="no"?>
<svg width="87px" height="51px" viewBox="0 0 87 51" version="1.1" xmlns="http://www.w3.org/2000/svg" xmlns:xlink="http://www.w3.org/1999/xlink">
    <!-- Generator: Sketch 3.7.2 (28276) - http://www.bohemiancoding.com/sketch -->
    <title>hamburguer</title>
    <desc>Created with Sketch.</desc>
    <defs></defs>
    <g id="Page-1" stroke="none" stroke-width="1" fill="none" fill-rule="evenodd">
        <g id="hamburguer" fill="#033A4B">
            <path d="M48.2353095,26.5029888 C48.2353095,26.6071615 48.1500773,26.6923937 48.0459046,26.6923937 L47.0988799,26.6923937 L47.0988799,28.848895 C47.0988799,29.0451185 46.9835955,29.2291569 46.7996202,29.2973427 C46.4885542,29.4126903 46.1814025,29.168358 46.1814025,28.8677092 L46.1814025,21.1167547 L46.1814025,21.1084209 C46.1814025,20.9457852 46.2622153,20.789463 46.4033851,20.7087765 C46.7387581,20.5170987 47.0988799,20.7765204 47.0988799,21.1021074 L47.0988799,23.3778075 L48.0459046,23.3778075 C48.1500773,23.3778075 48.2353095,23.4630398 48.2353095,23.5672125 L48.2353095,26.5029888 Z M44.2873533,28.8677092 L44.2873533,31.0843781 L44.1133533,31.2694899 C44.0980115,31.2858418 42.5430602,32.922111 39.5444646,34.5347045 C36.7844561,36.0189446 32.196185,37.7881759 26.0116093,37.7881759 C19.7889,37.7881759 14.6775556,36.0149039 11.4853882,34.5273177 C8.00999728,32.9077162 5.98759466,31.264376 5.96758087,31.2478977 L5.84200541,31.1446089 L5.84200541,28.8677092 L5.84200541,21.1167547 C5.84200541,20.9435755 5.84478335,20.7708382 5.8493922,20.5983535 L6.09618681,20.3000407 C6.11582179,20.2762388 8.10381585,17.8942194 11.561529,15.5163669 C13.5908764,14.1209577 15.7122116,13.0099084 17.8667557,12.2142815 C20.546709,11.2246407 23.2869563,10.722844 26.0116093,10.722844 C28.7144806,10.722844 31.3374863,11.2120769 33.8076421,12.1769687 C35.7909642,12.9516348 37.6837507,14.0338314 39.4336628,15.3934431 C42.435352,17.7257753 43.9949121,20.0969355 44.0095594,20.1195378 L44.2776305,20.5340821 C44.2834389,20.7278433 44.2873533,20.9220465 44.2873533,21.1167547 L44.2873533,28.8677092 Z M44.2873533,37.2135845 C43.5444441,37.9053545 41.5972983,39.5704131 38.5591802,41.1323092 C34.4591319,43.2401335 30.0675894,44.3088823 25.5065295,44.3088823 C19.8882744,44.3088823 14.9059148,42.4235457 11.7155783,40.8418884 C8.67992248,39.33694 6.58226298,37.7859662 5.84200541,37.1849844 L5.84200541,33.5043417 C6.82179707,34.1784338 8.445818,35.1954751 10.6233433,36.2151049 C14.0010644,37.7968254 19.4125524,39.6822252 26.0116093,39.6822252 C32.6350362,39.6822252 37.5591854,37.7660156 40.5236881,36.1584729 C42.2031415,35.2477509 43.4575072,34.3362081 44.2873533,33.6581385 L44.2873533,37.2135845 Z M41.7221162,44.3911472 C41.2924827,44.7918649 40.2306155,45.663822 38.3447739,46.528708 C34.0471131,48.4997819 28.8689088,48.9135054 25.281769,48.9135054 C18.7671235,48.9135054 14.4712305,47.6199329 12.0145855,46.5347058 C10.0698389,45.6755651 8.94237457,44.8091639 8.47833251,44.4069941 L8.47833251,41.246331 C9.20577368,41.6713556 10.0079035,42.109323 10.8742416,42.5388302 C14.2460281,44.2103918 19.5214602,46.2029315 25.5065295,46.2029315 C30.3717737,46.2029315 35.054621,45.0636609 39.4251395,42.8168135 C40.2683703,42.3832656 41.0347657,41.9403738 41.7221162,41.5088462 L41.7221162,44.3911472 Z M11.4894288,7.54153577 C15.1313067,3.89965793 19.9524195,1.89404922 25.0647109,1.89404922 C30.1770023,1.89404922 34.998052,3.89965793 38.6399299,7.54153577 C41.2494246,10.1510305 43.0184666,13.3661159 43.8119469,16.8598791 C43.021939,15.9975816 41.9701735,14.9720171 40.6555771,13.9444323 C38.7583711,12.4613917 36.7013074,11.279 34.5415862,10.4302765 C31.8374521,9.36758862 28.9675887,8.82879475 26.0116093,8.82879475 C23.0623221,8.82879475 20.1012918,9.37005088 17.210657,10.4374739 C14.9087559,11.2875863 12.6470086,12.4712408 10.4883607,13.9557966 C8.635728,15.2297341 7.18621214,16.4981157 6.19265705,17.4563783 C6.91372159,13.7324882 8.73213511,10.2988295 11.4894288,7.54153577 L11.4894288,7.54153577 Z M3.94795619,21.1167547 L3.94795619,28.8677092 C3.94795619,29.168358 3.64093081,29.4126272 3.32980166,29.2974058 C3.14582635,29.2292201 3.03047875,29.0450553 3.03047875,28.8488318 L3.03047875,26.6923937 L2.08345414,26.6923937 C1.97928143,26.6923937 1.89404922,26.6071615 1.89404922,26.5029888 L1.89404922,23.5672125 C1.89404922,23.4630398 1.97928143,23.3778075 2.08345414,23.3778075 L3.03047875,23.3778075 L3.03047875,21.1209848 C3.03047875,20.9247613 3.14582635,20.7406597 3.32986479,20.6724739 C3.64093081,20.5572526 3.94795619,20.8014587 3.94795619,21.1021074 L3.94795619,21.1167547 Z M48.9929292,21.7116756 L48.9929292,21.1412511 C48.9929292,19.9140966 48.0678755,18.8626468 46.8452036,18.7580952 C46.5711347,18.7346722 46.3057153,18.7587897 46.0560796,18.8228086 C45.8349809,16.79062 45.3201152,14.8112755 44.5144498,12.9148903 C43.4472793,10.4029391 41.9213701,8.14447477 39.9791489,6.20219043 C38.0369277,4.25996923 35.7784635,2.73406005 33.2664491,1.66688958 C30.6629522,0.560827973 27.9034487,0 25.0646478,0 C22.2258468,0 19.4664065,0.560827973 16.8628465,1.66688958 C14.3508952,2.73406005 12.0923678,4.25996923 10.1502098,6.20219043 C8.20792542,8.14447477 6.68207937,10.4029391 5.61490891,12.9148903 C4.8092435,14.8112755 4.29437779,16.79062 4.07327911,18.8228086 C3.8239591,18.7588529 3.55879221,18.7347353 3.28497583,18.7580952 C2.06192511,18.8622048 1.13642953,19.9137809 1.13642953,21.1412511 L1.13642953,21.7116756 C0.462337414,22.057087 0,22.7591479 0,23.5672125 L0,26.5029888 C0,27.3110533 0.462337414,28.0131142 1.13642953,28.3585256 L1.13642953,28.830207 C1.13642953,29.9564087 1.91557824,30.9505951 3.0195564,31.1733353 C3.34186044,31.2383643 3.6544417,31.2335029 3.94795619,31.1752925 L3.94795619,38.0088958 L4.22537126,38.2863109 C4.49331609,38.5542557 5.32436176,39.2260118 6.5842833,40.0653913 L6.5842833,45.1865847 L6.83473974,45.4585071 C7.0359509,45.6768909 11.9158424,50.8075546 25.281769,50.8075546 C38.6725075,50.8075546 43.2067982,45.6109149 43.3932358,45.3896899 L43.6161654,45.1252175 L43.6161654,40.2150212 C44.8998888,39.2614306 45.6782168,38.5120816 45.9039874,38.2862477 L46.1814025,38.0088327 L46.1814025,31.1752925 C46.4756115,31.2336292 46.7889504,31.2383643 47.1118858,31.1728934 C48.2147906,30.9492062 48.9929292,29.9555248 48.9929292,28.8300808 L48.9929292,28.3585256 C49.6670213,28.0131142 50.1293587,27.3110533 50.1293587,26.5029888 L50.1293587,23.5672125 C50.1293587,22.7591479 49.6670213,22.057087 48.9929292,21.7116756 L48.9929292,21.7116756 Z" id="Fill-1"></path>
            <path d="M56.5,13 L85.5,13 C86.3284271,13 87,12.3284271 87,11.5 C87,10.6715729 86.3284271,10 85.5,10 L56.5,10 C55.6715729,10 55,10.6715729 55,11.5 C55,12.3284271 55.6715729,13 56.5,13 L56.5,13 Z" id="Line"></path>
            <path d="M56.5,26 L85.5,26 C86.3284271,26 87,25.3284271 87,24.5 C87,23.6715729 86.3284271,23 85.5,23 L56.5,23 C55.6715729,23 55,23.6715729 55,24.5 C55,25.3284271 55.6715729,26 56.5,26 L56.5,26 Z" id="Line-Copy"></path>
            <path d="M56.5,39 L85.5,39 C86.3284271,39 87,38.3284271 87,37.5 C87,36.6715729 86.3284271,36 85.5,36 L56.5,36 C55.6715729,36 55,36.6715729 55,37.5 C55,38.3284271 55.6715729,39 56.5,39 L56.5,39 Z" id="Line-Copy-2"></path>
        </g>
    </g>
</svg>