<?xml version="1.0" encoding="UTF-8" standalone="no"?>
<svg width="201px" height="66px" viewBox="0 0 201 66" version="1.1" xmlns="http://www.w3.org/2000/svg" xmlns:xlink="http://www.w3.org/1999/xlink" xmlns:sketch="http://www.bohemiancoding.com/sketch/ns">
    <!-- Generator: Sketch 3.4.4 (17249) - http://www.bohemiancoding.com/sketch -->
    <title>letgo</title>
    <desc>Created with Sketch.</desc>
    <defs>
        <path id="path-1" d="M0,0.058 L200.64,0.058 L200.64,66 L0,66 L0,0.058 Z"></path>
        <path id="path-3" d="M0,0.058 L200.64,0.058 L200.64,66 L0,66"></path>
        <path id="path-5" d="M0,0.058 L200.64,0.058 L200.64,66 L0,66"></path>
    </defs>
    <g id="Page-1" stroke="none" stroke-width="1" fill="none" fill-rule="evenodd" sketch:type="MSPage">
        <g id="letgo" sketch:type="MSLayerGroup">
            <path d="M99.6801,25.863 C104.9361,16.127 107.1461,7.645 107.1461,5.615 C107.1461,4.599 106.7881,4.301 106.1311,4.301 C104.1601,4.301 101.7111,13.261 99.6801,25.863 M97.7091,43.483 C93.5281,43.483 90.3631,40.914 91.1391,34.643 C93.8871,13.021 97.8881,0.36 105.7131,0.36 C108.5201,0.36 110.4911,2.091 110.4911,5.197 C110.4911,9.856 106.6091,19.413 98.9041,31.179 C98.7841,31.895 98.6651,32.672 98.6051,33.388 C98.1871,36.494 99.7401,37.689 101.8301,37.689 C105.1151,37.689 109.8941,34.763 111.0281,31.477 C112.1631,31.298 112.8801,32.612 112.4621,33.747 C110.3721,39.182 103.2041,43.483 97.7091,43.483" id="Fill-1" fill="#FEFEFE" sketch:type="MSShapeGroup"></path>
            <path d="M117.5973,31.2985 C123.3903,27.6545 127.3333,23.4735 127.3333,19.5915 C127.3333,18.2175 126.6153,17.2615 125.6003,17.2615 C119.6873,17.2615 117.7763,27.1175 117.5973,31.2985 M117.7763,33.8665 C118.3733,37.0915 120.5833,38.2855 123.3313,38.2855 C127.6313,38.2855 133.1263,35.2395 135.6943,31.8355 C137.2473,31.5375 137.8453,32.7915 137.1873,33.8665 C133.0663,39.8985 126.1383,43.4825 120.3443,43.4825 C114.7303,43.4825 110.1903,40.1385 110.1903,32.7915 C110.1903,25.0265 115.3273,12.6035 125.1823,12.6035 C130.6183,12.6035 131.9913,15.6495 131.9913,18.3375 C131.9913,23.4135 129.3033,27.4755 117.7763,33.8665" id="Fill-3" fill="#FEFEFE" sketch:type="MSShapeGroup"></path>
            <path d="M146.0846,16.6051 L142.5606,33.3881 C141.8446,36.7331 142.7996,37.8091 144.3526,37.8091 C146.5626,37.8091 149.1306,36.3161 150.6246,34.8221 C151.2806,35.1211 151.6396,35.6581 151.6396,36.2561 C151.6396,36.6741 151.4606,37.1511 151.1016,37.5691 C148.2946,40.7351 143.7556,43.4831 139.7536,43.4831 C136.1106,43.4831 133.7216,41.2131 135.0946,34.6431 L138.9176,16.6051 L135.9306,16.6051 C135.6326,14.6941 136.5876,13.1411 138.4396,13.1411 L139.6346,13.1411 L140.7086,8.2431 C141.3066,5.4961 143.5756,4.4811 145.7266,4.4811 C146.8016,4.4811 147.8166,4.7791 148.5336,5.2571 L146.8606,13.1411 L151.2216,13.1411 C151.5196,15.0521 150.5646,16.6051 148.7126,16.6051 L146.0846,16.6051 Z" id="Fill-5" fill="#FEFEFE" sketch:type="MSShapeGroup"></path>
            <g id="Group-9">
                <mask id="mask-2" sketch:name="Clip 8" fill="white">
                    <use xlink:href="#path-1"></use>
                </mask>
                <g id="Clip-8"></g>
                <path d="M167.6256,17.5612 C166.7336,17.2032 165.9466,17.0832 165.1586,17.0832 C158.8096,17.0832 156.5526,26.5202 156.5526,33.0302 C156.5526,36.0162 157.7596,37.3312 159.3866,37.3312 C161.0656,37.3312 163.2696,35.7782 164.6866,33.5682 L167.6256,17.5612 Z M162.0106,46.7672 C156.2376,49.3952 151.4106,53.8752 151.4106,57.8772 C151.4106,59.9682 152.8796,60.6842 153.5616,60.6842 C157.1826,60.6842 159.3336,56.5632 162.0106,46.7672 L162.0106,46.7672 Z M169.1476,43.1242 C166.7856,54.2342 163.1126,66.0002 154.0336,66.0002 C150.8326,66.0002 147.8416,63.6102 147.8416,58.6532 C147.8416,51.2472 156.0276,45.5732 163.1126,42.5862 C163.4796,41.0932 163.8466,39.6002 164.2666,37.9272 C162.1156,41.2132 159.4386,43.4832 156.6046,43.4832 C151.1476,43.4832 150.0456,37.2712 150.0456,33.4482 C150.0456,22.9952 155.9756,12.6042 163.2696,12.6042 C165.6316,12.6042 167.3106,13.2602 168.6226,14.5742 C169.5146,13.3802 170.9316,12.8422 172.2436,12.8422 C173.1886,12.8422 174.0806,13.1412 174.7096,13.6192 L170.3016,37.2712 C170.1446,38.1072 169.9866,38.9432 169.8296,39.7202 C172.7156,38.1072 175.4976,36.3162 177.3336,34.5232 C178.1206,35.3002 178.2786,36.6142 177.3866,37.5092 C176.4416,38.4652 172.8726,41.1532 169.1476,43.1242 L169.1476,43.1242 Z" id="Fill-7" fill="#FEFEFE" sketch:type="MSShapeGroup" mask="url(#mask-2)"></path>
            </g>
            <g id="Group-12">
                <mask id="mask-4" sketch:name="Clip 11" fill="white">
                    <use xlink:href="#path-3"></use>
                </mask>
                <g id="Clip-11"></g>
                <path d="M183.7377,30.9991 C183.7377,36.2561 185.5297,38.2861 187.6197,38.2861 C192.3387,38.2861 196.1607,29.0881 196.1607,22.8171 C196.1607,19.5911 195.1457,17.1431 192.6967,17.1431 C187.2617,17.1431 183.7377,25.1461 183.7377,30.9991 M200.6407,23.2951 C200.6407,32.1941 194.2497,43.4831 184.8727,43.4831 C178.7207,43.4831 176.0927,38.5251 176.0927,32.9101 C176.0927,23.8921 182.3637,12.6041 191.3827,12.6041 C197.8927,12.6041 200.6407,17.4411 200.6407,23.2951" id="Fill-10" fill="#FEFEFE" sketch:type="MSShapeGroup" mask="url(#mask-4)"></path>
            </g>
            <path d="M22.9976,46.0535 C22.4566,46.0535 21.9206,46.0275 21.3886,45.9905 C22.3216,52.1175 23.2156,56.6525 23.2156,56.6525 C23.2156,56.6525 29.5946,51.9145 36.4676,46.0535 L22.9976,46.0535 Z" id="Fill-13" fill="#FEFEFE" sketch:type="MSShapeGroup"></path>
            <path d="M21.982,46.0276 C21.862,46.0226 21.743,46.0156 21.624,46.0086 C21.743,46.0156 21.862,46.0226 21.982,46.0276" id="Fill-15" fill="#FEFEFE" sketch:type="MSShapeGroup"></path>
            <g id="Group-19">
                <mask id="mask-6" sketch:name="Clip 18" fill="white">
                    <use xlink:href="#path-5"></use>
                </mask>
                <g id="Clip-18"></g>
                <path d="M55.7977,0.0584 L22.9977,0.0584 C10.3487,0.0584 -0.0003,10.4074 -0.0003,23.0564 L-0.0003,23.0564 C-0.0003,35.1634 9.4837,45.1564 21.3887,45.9904 C19.8437,35.8394 18.1907,21.3184 20.3187,15.8104 C20.3187,15.8104 26.6847,0.3854 42.5827,6.5274 C58.4797,12.6704 52.8207,28.3684 52.8207,28.3684 C51.0927,32.8414 43.5207,40.0384 36.4677,46.0534 L55.7977,46.0534 C68.4467,46.0534 78.7957,35.7044 78.7957,23.0564 L78.7957,23.0564 C78.7957,10.4074 68.4467,0.0584 55.7977,0.0584" id="Fill-17" fill="#FEFEFE" sketch:type="MSShapeGroup" mask="url(#mask-6)"></path>
            </g>
            <path d="M31.079,20.112 C30.029,22.831 31.381,25.886 34.1,26.937 C36.819,27.987 39.874,26.635 40.925,23.916 C41.975,21.197 40.623,18.142 37.904,17.091 C35.185,16.041 32.129,17.393 31.079,20.112" id="Fill-20" fill="#FEFEFE" sketch:type="MSShapeGroup"></path>
        </g>
    </g>
</svg>