<?xml version="1.0" encoding="UTF-8" standalone="no"?>
<svg width="511px" height="116px" viewBox="0 0 511 116" version="1.1" xmlns="http://www.w3.org/2000/svg" xmlns:xlink="http://www.w3.org/1999/xlink" xmlns:sketch="http://www.bohemiancoding.com/sketch/ns">
    <!-- Generator: Sketch 3.4.4 (17249) - http://www.bohemiancoding.com/sketch -->
    <title>Page 1</title>
    <desc>Created with Sketch.</desc>
    <defs>
        <path id="path-1" d="M0,0.318 L510.873,0.318 L510.873,142 L0,142"></path>
        <path id="path-3" d="M0,0.318 L510.873,0.318 L510.873,142 L0,142"></path>
        <path id="path-5" d="M0,0.318 L510.873,0.318 L510.873,142 L0,142"></path>
    </defs>
    <g id="Page-1" stroke="none" stroke-width="1" fill="none" fill-rule="evenodd" sketch:type="MSPage">
        <g id="Desktop-HD" sketch:type="MSArtboardGroup" transform="translate(-83.000000, -347.000000)">
            <g id="Page-1" sketch:type="MSLayerGroup" transform="translate(83.000000, 347.000000)">
                <g id="Group-3">
                    <mask id="mask-2" sketch:name="Clip 2" fill="white">
                        <use xlink:href="#path-1"></use>
                    </mask>
                    <g id="Clip-2"></g>
                    <path d="M154.0821,0.7264 C155.3601,1.1534 156.2911,1.9784 156.8771,3.2024 C157.4101,4.3744 157.4631,5.5994 157.0371,6.8774 L120.1361,112.0714 C120.1361,112.0194 120.0811,112.1254 119.9751,112.3904 C119.9221,112.4984 119.8951,112.5774 119.8951,112.6304 C119.7881,112.8434 119.6561,113.0304 119.4961,113.1904 L119.4961,113.2694 L119.4171,113.3494 C119.2571,113.5624 119.0701,113.7764 118.8581,113.9884 C118.9091,113.9354 118.8581,113.9884 118.6971,114.1474 C118.5381,114.2564 118.3511,114.3624 118.1391,114.4684 C118.0851,114.5214 118.0051,114.5754 117.8991,114.6274 C117.7401,114.7344 117.5521,114.8404 117.3401,114.9464 L117.2601,114.9464 C117.2061,114.9464 117.1801,114.9744 117.1801,115.0264 C117.1801,114.9744 117.1531,114.9744 117.1001,115.0264 C116.9931,115.0804 116.8331,115.1334 116.6211,115.1864 L116.3821,115.1864 C116.1141,115.2394 115.8481,115.2664 115.5831,115.2664 C115.3701,115.2664 115.1301,115.2394 114.8631,115.1864 L114.6241,115.1864 C114.4111,115.1334 114.2251,115.0804 114.0651,115.0264 C114.0121,114.9744 113.9851,114.9744 113.9851,115.0264 C113.9851,114.9744 113.9581,114.9464 113.9061,114.9464 C113.6381,114.8404 113.4261,114.7344 113.2661,114.6274 C113.1591,114.5754 113.0791,114.5214 113.0271,114.4684 C112.8671,114.3624 112.7071,114.2564 112.5481,114.1474 C112.3871,113.9884 112.3341,113.9354 112.3871,113.9884 C112.1741,113.7764 111.9611,113.5624 111.7491,113.3494 L111.7491,113.2694 C111.6951,113.2694 111.6691,113.2434 111.6691,113.1904 C111.5621,113.0304 111.4561,112.8434 111.3501,112.6304 C111.3501,112.5774 111.2961,112.4984 111.1901,112.3904 C111.1351,112.1254 111.1091,112.0194 111.1091,112.0714 L78.6811,19.7364 L46.2521,112.0714 C46.2521,112.0194 46.1981,112.1254 46.0921,112.3904 C46.0391,112.4984 46.0131,112.5774 46.0131,112.6304 C45.9041,112.8434 45.7721,113.0304 45.6121,113.1904 L45.6121,113.2694 L45.5331,113.3494 C45.3731,113.5624 45.1861,113.7764 44.9741,113.9884 C45.0271,113.9354 44.9741,113.9884 44.8141,114.1474 C44.6551,114.2564 44.4941,114.3624 44.3341,114.4684 C44.2271,114.5214 44.1481,114.5754 44.0951,114.6274 C43.8821,114.7344 43.6691,114.8404 43.4571,114.9464 L43.3771,114.9464 L43.2961,115.0264 C43.3481,114.9744 43.3221,114.9744 43.2161,115.0264 C43.1091,115.0804 42.9491,115.1334 42.7371,115.1864 L42.4981,115.1864 C42.2311,115.2394 41.9641,115.2664 41.6991,115.2664 C41.4861,115.2664 41.2461,115.2394 40.9801,115.1864 L40.7401,115.1864 C40.5271,115.1334 40.3411,115.0804 40.1811,115.0264 C40.1281,114.9744 40.1281,114.9744 40.1811,115.0264 L40.1011,114.9464 L40.0221,114.9464 C39.8091,114.8404 39.5941,114.7344 39.3821,114.6274 C39.2751,114.5754 39.1951,114.5214 39.1431,114.4684 C38.9831,114.3624 38.8241,114.2564 38.6641,114.1474 C38.5041,113.9884 38.4511,113.9354 38.5041,113.9884 C38.2901,113.7764 38.1041,113.5624 37.9451,113.3494 C37.8911,113.3494 37.8651,113.3234 37.8651,113.2694 L37.7851,113.1904 C37.6781,113.0304 37.5721,112.8434 37.4661,112.6304 C37.4661,112.5774 37.4381,112.4984 37.3861,112.3904 C37.2791,112.1254 37.2261,112.0194 37.2261,112.0714 L0.3241,6.8774 C-0.1559,5.5994 -0.1029,4.3744 0.4841,3.2024 C1.0691,1.9784 1.9741,1.1534 3.1991,0.7264 C4.4771,0.3004 5.7021,0.3804 6.8741,0.9654 C8.0451,1.5524 8.8711,2.4574 9.3501,3.6824 L41.6991,96.0164 L74.1281,3.6824 C74.0741,3.8414 74.1281,3.7614 74.2881,3.4424 C74.3401,3.2824 74.3941,3.1224 74.4481,2.9624 C74.5541,2.8564 74.6331,2.7504 74.6871,2.6434 C74.7931,2.4834 74.8991,2.3514 75.0061,2.2434 C75.1121,2.0844 75.2181,1.9784 75.3251,1.9244 C75.4331,1.8184 75.5391,1.7124 75.6461,1.6044 C75.7521,1.4984 75.8581,1.3924 75.9651,1.2854 C76.1251,1.1794 76.2841,1.0994 76.4441,1.0454 C76.5501,0.9934 76.6841,0.9394 76.8441,0.8864 C77.2161,0.7264 77.2951,0.6744 77.0831,0.7264 C76.9761,0.7804 77.0301,0.7804 77.2431,0.7264 C77.4031,0.6744 77.5621,0.6204 77.7221,0.5664 C77.9341,0.5664 78.0951,0.5404 78.2021,0.4874 L78.6811,0.4874 L79.1591,0.4874 C79.2121,0.5404 79.3461,0.5664 79.5601,0.5664 C79.7721,0.6204 79.9311,0.6744 80.0381,0.7264 C80.2501,0.7804 80.3301,0.7804 80.2781,0.7264 L80.3581,0.8064 C80.4101,0.8064 80.4641,0.8334 80.5181,0.8864 C80.6781,0.9394 80.8101,0.9934 80.9171,1.0454 C81.0771,1.1534 81.2091,1.2334 81.3161,1.2854 C81.4221,1.3924 81.5561,1.4984 81.7151,1.6044 C81.8231,1.7124 81.9291,1.8184 82.0361,1.9244 C82.1421,2.0314 82.2481,2.1374 82.3551,2.2434 C82.4611,2.3514 82.5411,2.4834 82.5941,2.6434 C82.7001,2.7504 82.7801,2.8564 82.8341,2.9624 C82.9401,3.1224 83.0201,3.2824 83.0741,3.4424 C83.2341,3.7614 83.2601,3.8414 83.1541,3.6824 L115.5831,96.0164 L148.0111,3.6824 C148.4381,2.4574 149.2621,1.5524 150.4871,0.9654 C151.6581,0.3804 152.8561,0.3004 154.0821,0.7264" id="Fill-1" fill="#033A4B" sketch:type="MSShapeGroup" mask="url(#mask-2)"></path>
                </g>
                <g id="Group-6">
                    <mask id="mask-4" sketch:name="Clip 5" fill="white">
                        <use xlink:href="#path-3"></use>
                    </mask>
                    <g id="Clip-5"></g>
                    <path d="M429.3217,0.5865 C430.5997,1.0135 431.5307,1.8385 432.1167,3.0625 C432.6497,4.2345 432.7027,5.4595 432.2767,6.7375 L395.3757,111.9315 C395.3757,111.8795 395.3207,111.9855 395.2147,112.2505 C395.1617,112.3585 395.1347,112.4375 395.1347,112.4905 C395.0277,112.7035 394.8957,112.8905 394.7357,113.0505 L394.7357,113.1295 L394.6567,113.2095 C394.4967,113.4225 394.3097,113.6365 394.0977,113.8485 C394.1487,113.7955 394.0977,113.8485 393.9367,114.0075 C393.7777,114.1165 393.5907,114.2225 393.3787,114.3285 C393.3247,114.3815 393.2447,114.4355 393.1387,114.4875 C392.9797,114.5945 392.7917,114.7005 392.5797,114.8065 L392.4997,114.8065 C392.4457,114.8065 392.4197,114.8345 392.4197,114.8865 C392.4197,114.8345 392.3927,114.8345 392.3397,114.8865 C392.2327,114.9405 392.0727,114.9935 391.8607,115.0465 L391.6217,115.0465 C391.3537,115.0995 391.0877,115.1265 390.8227,115.1265 C390.6097,115.1265 390.3697,115.0995 390.1027,115.0465 L389.8637,115.0465 C389.6507,114.9935 389.4647,114.9405 389.3047,114.8865 C389.2517,114.8345 389.2247,114.8345 389.2247,114.8865 C389.2247,114.8345 389.1977,114.8065 389.1457,114.8065 C388.8777,114.7005 388.6657,114.5945 388.5057,114.4875 C388.3987,114.4355 388.3187,114.3815 388.2667,114.3285 C388.1067,114.2225 387.9467,114.1165 387.7877,114.0075 C387.6267,113.8485 387.5737,113.7955 387.6267,113.8485 C387.4137,113.6365 387.2007,113.4225 386.9887,113.2095 L386.9887,113.1295 C386.9347,113.1295 386.9087,113.1035 386.9087,113.0505 C386.8017,112.8905 386.6957,112.7035 386.5897,112.4905 C386.5897,112.4375 386.5357,112.3585 386.4297,112.2505 C386.3747,111.9855 386.3487,111.8795 386.3487,111.9315 L353.9207,19.5965 L321.4917,111.9315 C321.4917,111.8795 321.4377,111.9855 321.3317,112.2505 C321.2787,112.3585 321.2527,112.4375 321.2527,112.4905 C321.1437,112.7035 321.0117,112.8905 320.8517,113.0505 L320.8517,113.1295 L320.7727,113.2095 C320.6127,113.4225 320.4257,113.6365 320.2137,113.8485 C320.2657,113.7955 320.2137,113.8485 320.0537,114.0075 C319.8947,114.1165 319.7337,114.2225 319.5737,114.3285 C319.4667,114.3815 319.3877,114.4355 319.3347,114.4875 C319.1217,114.5945 318.9087,114.7005 318.6967,114.8065 L318.6167,114.8065 L318.5357,114.8865 C318.5877,114.8345 318.5617,114.8345 318.4557,114.8865 C318.3487,114.9405 318.1887,114.9935 317.9767,115.0465 L317.7377,115.0465 C317.4707,115.0995 317.2037,115.1265 316.9387,115.1265 C316.7257,115.1265 316.4857,115.0995 316.2197,115.0465 L315.9797,115.0465 C315.7667,114.9935 315.5807,114.9405 315.4207,114.8865 C315.3677,114.8345 315.3677,114.8345 315.4207,114.8865 L315.3407,114.8065 L315.2617,114.8065 C315.0487,114.7005 314.8337,114.5945 314.6217,114.4875 C314.5147,114.4355 314.4347,114.3815 314.3827,114.3285 C314.2227,114.2225 314.0627,114.1165 313.9037,114.0075 C313.7437,113.8485 313.6907,113.7955 313.7437,113.8485 C313.5297,113.6365 313.3437,113.4225 313.1847,113.2095 C313.1307,113.2095 313.1047,113.1835 313.1047,113.1295 L313.0247,113.0505 C312.9177,112.8905 312.8117,112.7035 312.7057,112.4905 C312.7057,112.4375 312.6777,112.3585 312.6257,112.2505 C312.5187,111.9855 312.4657,111.8795 312.4657,111.9315 L275.5637,6.7375 C275.0837,5.4595 275.1367,4.2345 275.7237,3.0625 C276.3087,1.8385 277.2137,1.0135 278.4387,0.5865 C279.7167,0.1605 280.9417,0.2405 282.1137,0.8255 C283.2847,1.4125 284.1107,2.3175 284.5897,3.5425 L316.9387,95.8765 L349.3677,3.5425 C349.3137,3.7015 349.3677,3.6215 349.5277,3.3025 C349.5797,3.1425 349.6337,2.9825 349.6877,2.8225 C349.7937,2.7165 349.8727,2.6105 349.9267,2.5035 C350.0327,2.3435 350.1387,2.2115 350.2457,2.1035 C350.3517,1.9445 350.4577,1.8385 350.5647,1.7845 C350.6727,1.6785 350.7787,1.5725 350.8857,1.4645 C350.9917,1.3585 351.0977,1.2525 351.2047,1.1455 C351.3647,1.0395 351.5237,0.9595 351.6837,0.9055 C351.7897,0.8535 351.9237,0.7995 352.0837,0.7465 C352.4557,0.5865 352.5347,0.5345 352.3227,0.5865 C352.2157,0.6405 352.2697,0.6405 352.4827,0.5865 C352.6427,0.5345 352.8017,0.4805 352.9617,0.4265 C353.1737,0.4265 353.3347,0.4005 353.4417,0.3475 L353.9207,0.3475 L354.3987,0.3475 C354.4517,0.4005 354.5857,0.4265 354.7997,0.4265 C355.0117,0.4805 355.1707,0.5345 355.2777,0.5865 C355.4897,0.6405 355.5697,0.6405 355.5177,0.5865 L355.5977,0.6665 C355.6497,0.6665 355.7037,0.6935 355.7577,0.7465 C355.9177,0.7995 356.0497,0.8535 356.1567,0.9055 C356.3167,1.0135 356.4487,1.0935 356.5557,1.1455 C356.6617,1.2525 356.7957,1.3585 356.9547,1.4645 C357.0627,1.5725 357.1687,1.6785 357.2757,1.7845 C357.3817,1.8915 357.4877,1.9975 357.5947,2.1035 C357.7007,2.2115 357.7807,2.3435 357.8337,2.5035 C357.9397,2.6105 358.0197,2.7165 358.0737,2.8225 C358.1797,2.9825 358.2597,3.1425 358.3137,3.3025 C358.4737,3.6215 358.4997,3.7015 358.3937,3.5425 L390.8227,95.8765 L423.2507,3.5425 C423.6777,2.3175 424.5017,1.4125 425.7267,0.8255 C426.8977,0.2405 428.0957,0.1605 429.3217,0.5865" id="Fill-4" fill="#033A4B" sketch:type="MSShapeGroup" mask="url(#mask-4)"></path>
                </g>
                <path d="M232.4271,78.9232 L252.5741,18.0592 L271.9571,78.9232 L232.4271,78.9232 Z M159.7281,78.9232 L179.8751,18.0592 L199.2591,78.9232 L159.7281,78.9232 Z M293.2731,108.6372 L283.4591,81.8792 L283.4591,81.7992 L256.9671,3.7622 C256.8591,3.4952 256.7271,3.2022 256.5671,2.8832 C256.5671,2.9362 256.4601,2.8302 256.2481,2.5632 C256.0881,2.3512 255.9811,2.2172 255.9291,2.1642 C255.8751,2.1642 255.7421,2.0582 255.5291,1.8452 L255.2091,1.6052 C254.6771,1.2332 254.0911,0.9942 253.4521,0.8862 L253.0531,0.8862 C252.7861,0.8332 252.6261,0.8062 252.5741,0.8062 C252.5201,0.8062 252.3341,0.8332 252.0151,0.8862 L251.6151,0.8862 C251.0291,0.9942 250.4691,1.2332 249.9381,1.6052 C249.9901,1.5522 249.8841,1.6332 249.6191,1.8452 C249.4051,2.0042 249.2711,2.1112 249.2191,2.1642 C249.1651,2.2172 249.0591,2.3512 248.8991,2.5632 L248.5801,2.8832 C248.4201,3.2022 248.2871,3.4952 248.1811,3.7622 L220.9251,81.7992 L220.9251,81.8792 L216.0531,96.3082 L210.7611,81.8792 L210.7611,81.7992 L184.2691,3.7622 C184.1601,3.4952 184.0281,3.2022 183.8691,2.8832 C183.8691,2.9362 183.7611,2.8302 183.5491,2.5632 C183.3901,2.3512 183.2831,2.2172 183.2301,2.1642 C183.1771,2.1642 183.0431,2.0582 182.8301,1.8452 L182.5111,1.6052 C181.9781,1.2332 181.3921,0.9942 180.7541,0.8862 L180.3551,0.8862 C180.0871,0.8332 179.9271,0.8062 179.8751,0.8062 C179.8211,0.8062 179.6361,0.8332 179.3161,0.8862 L178.9161,0.8862 C178.3301,0.9942 177.7711,1.2332 177.2391,1.6052 C177.2921,1.5522 177.1861,1.6332 176.9201,1.8452 C176.7071,2.0042 176.5721,2.1112 176.5211,2.1642 C176.4661,2.2172 176.3601,2.3512 176.2011,2.5632 L175.8811,2.8832 C175.7221,3.2022 175.5881,3.4952 175.4821,3.7622 L148.2271,81.7992 L148.2271,81.8792 L139.1921,108.6372 C138.6591,109.8622 138.6591,111.0862 139.1921,112.3112 C139.6711,113.5362 140.5231,114.3882 141.7481,114.8672 C142.3331,115.1342 142.9461,115.2662 143.5851,115.2662 C145.7141,115.2662 147.1791,114.2822 147.9781,112.3112 L155.8151,88.5082 L203.1721,88.5082 L211.7881,112.3112 C212.5861,114.2822 214.0501,115.2662 216.1811,115.2662 C216.1981,115.2662 216.2151,115.2612 216.2321,115.2612 C216.2491,115.2612 216.2661,115.2662 216.2831,115.2662 C218.4131,115.2662 219.8781,114.2822 220.6771,112.3112 L228.5131,88.5082 L275.8711,88.5082 L284.4871,112.3112 C285.2851,114.2822 286.7491,115.2662 288.8791,115.2662 C289.5191,115.2662 290.1301,115.1342 290.7171,114.8672 C291.9401,114.3882 292.7931,113.5362 293.2731,112.3112 C293.8041,111.0862 293.8041,109.8622 293.2731,108.6372 L293.2731,108.6372 Z" id="Fill-7" fill="#033A4B" sketch:type="MSShapeGroup"></path>
                <g id="Group-11">
                    <mask id="mask-6" sketch:name="Clip 10" fill="white">
                        <use xlink:href="#path-5"></use>
                    </mask>
                    <g id="Clip-10"></g>
                    <path d="M474.6098,53.2037 C474.5128,53.2037 474.4248,53.2237 474.3298,53.2287 C474.2618,53.2237 474.1998,53.2067 474.1308,53.2037 C464.0128,53.0437 456.6378,50.4877 452.0058,45.5357 C448.5978,41.9687 447.0008,37.8947 447.2138,33.3147 C447.5328,26.8187 450.1948,21.3337 455.2008,16.8607 C460.2058,12.3877 466.1958,10.1517 473.1728,10.1517 C479.6148,10.1517 485.3398,11.3767 490.3458,13.8257 C496.3618,16.7007 500.0898,20.9087 501.5278,26.4457 C501.8478,27.7237 502.5658,28.6827 503.6848,29.3217 C504.8028,30.0137 506.0008,30.1737 507.2788,29.8007 C508.5568,29.4807 509.5418,28.7627 510.2338,27.6437 C510.8738,26.5257 511.0328,25.3277 510.7138,24.0497 C508.6368,16.1157 503.6308,10.0717 495.6968,5.9177 C489.0938,2.4037 481.5858,0.6467 473.1728,0.6467 C463.6408,0.6467 455.4658,3.7617 448.6518,9.9917 C441.7818,16.2217 438.1338,23.8377 437.7078,32.8357 C437.3888,40.1317 439.8378,46.5477 445.0568,52.0857 C451.5528,59.0087 461.1918,62.5497 473.9718,62.7087 L474.0508,62.7087 C474.1208,62.7087 474.1848,62.6927 474.2538,62.6907 C474.3208,62.6927 474.3818,62.7087 474.4498,62.7087 C484.5668,62.8687 491.9428,65.4247 496.5758,70.3767 C499.9828,73.9447 501.5798,78.0447 501.3678,82.6777 C501.0488,89.1207 498.3858,94.5787 493.3808,99.0527 C488.3748,103.5247 482.3838,105.7617 475.4088,105.7617 C468.9658,105.7617 463.2398,104.5637 458.2368,102.1667 C452.2178,99.2397 448.4918,95.0067 447.0538,89.4667 C446.7348,88.2427 446.0148,87.2837 444.8968,86.5907 C443.7248,85.9517 442.5268,85.7927 441.3018,86.1117 C440.0248,86.4317 439.0388,87.1507 438.3468,88.2687 C437.7078,89.4407 437.5478,90.6387 437.8688,91.8627 C439.9448,99.7977 444.9498,105.8687 452.8838,110.0747 C459.4858,113.5367 466.9948,115.2657 475.4088,115.2657 C484.9398,115.2657 493.1138,112.1517 499.9298,105.9207 C506.7988,99.6907 510.4198,92.0767 510.7938,83.0767 C511.1658,75.7817 508.7428,69.3917 503.5248,63.9067 C497.0278,56.9847 487.3898,53.4167 474.6098,53.2037" id="Fill-9" fill="#033A4B" sketch:type="MSShapeGroup" mask="url(#mask-6)"></path>
                </g>
            </g>
        </g>
    </g>
</svg>