<?xml version="1.0" encoding="utf-8"?>
<!-- Generator: Adobe Illustrator 19.0.0, SVG Export Plug-In . SVG Version: 6.00 Build 0)  -->
<svg version="1.1" id="Capa_1" xmlns="http://www.w3.org/2000/svg" xmlns:xlink="http://www.w3.org/1999/xlink" x="0px" y="0px"
	 viewBox="0 0 200 200" style="enable-background:new 0 0 200 200;" xml:space="preserve">
<style type="text/css">
	.st0{fill:#063B4C;}
	.st1{fill:#FFFFFF;}
</style>
<circle id="XMLID_1_" class="st0" cx="100" cy="100" r="100"/>
<g id="XMLID_2_">
	<path id="XMLID_6_" class="st1" d="M154.1,70.2l-34.8-17.4c-0.2-0.1-0.3-0.1-0.5-0.1l0,0c-0.4,0-0.8,0.2-1.1,0.6L96.3,88.1
		l23.9,38.9l34.3-55.7C154.7,71,154.6,70.4,154.1,70.2z"/>
	<polygon id="XMLID_5_" class="st1" points="84.9,75.9 84.9,113.5 118.3,130.1 	"/>
	<path id="XMLID_4_" class="st1" d="M121.2,131.6l30.7,15.3c1.7,0.8,3,0,3-1.9V76.8L121.2,131.6z"/>
	<path id="XMLID_3_" class="st1" d="M81.2,70.4L49.1,54.3l-2-1c-0.3-0.1-0.6-0.2-0.8-0.2c-0.4,0-0.7,0.1-0.9,0.4
		c-0.2,0.3-0.3,0.6-0.3,1.1v73.3c0,1.2,0.9,2.7,2,3.3L78.7,147c0.4,0.2,0.9,0.3,1.2,0.3c1.1,0,1.8-0.8,1.8-2.2v-74
		C81.7,70.8,81.5,70.5,81.2,70.4z"/>
</g>
</svg>
