<?xml version="1.0" encoding="UTF-8" standalone="no"?>
<svg width="177px" height="132px" viewBox="0 0 177 132" version="1.1" xmlns="http://www.w3.org/2000/svg" xmlns:xlink="http://www.w3.org/1999/xlink" xmlns:sketch="http://www.bohemiancoding.com/sketch/ns">
    <!-- Generator: Sketch 3.4.4 (17249) - http://www.bohemiancoding.com/sketch -->
    <title>Natura</title>
    <desc>Created with Sketch.</desc>
    <defs>
        <path d="M70.898,11.263 C54.657,11.263 58.843,39.587 49.992,39.587 C42.996,39.587 37.46,18.457 24.366,18.457 C19.505,18.457 15.824,22.784 15.824,27.448 C15.824,35.906 30.885,48.551 30.885,51.276 C30.885,52.85 29.504,53.243 27.86,53.3 L10.335,49.704 C8.448,49.451 7.507,50.995 7.507,52.063 C7.507,64.314 38.303,66.113 38.303,69.596 C38.303,70.159 35.605,72.856 35.605,73.418 C35.605,76.593 47.913,77.577 49.543,77.577 C57.13,77.577 57.13,73.081 61.681,73.081 C62.244,73.081 71.123,74.654 71.685,74.654 C71.994,74.654 90.455,72.856 90.455,68.135 C90.455,66.534 80.114,66.562 80.114,63.752 C80.114,59.228 106.64,56.194 106.64,42.06 C106.64,39.221 105.095,37.564 101.919,37.564 C96.075,37.564 83.599,46.556 78.766,46.556 C77.726,46.556 75.843,46.134 75.843,43.97 C75.843,40.486 82.362,29.246 82.362,22.39 C82.362,15.647 77.67,11.263 70.898,11.263 L70.898,11.263 Z M72.246,0.023 C85.004,0.023 90.905,9.212 90.905,19.693 C90.905,24.498 88.12,31.686 87.153,36.015 C93.077,33.191 99.7,29.022 105.741,29.022 C110.967,29.022 113.833,31.466 113.833,36.552 C113.833,46.949 102.384,57.168 91.129,61.733 C92.275,62.218 98.098,61.673 98.098,64.314 C98.098,67.349 90.282,71.607 89.495,72.001 C82.189,75.794 77.67,77.127 70.785,77.127 C70.224,77.127 64.154,76.453 63.592,76.453 C63.508,76.453 55.106,80.049 51.116,80.049 C50.554,80.049 49.871,80.021 47.398,79.825 C45.123,79.656 28.412,78.954 28.412,71.845 C28.412,71.283 28.638,70.702 28.889,69.446 C20.97,69.765 0.313,55.322 0.313,47.005 C0.313,43.015 3.432,42.734 5.82,42.734 C10.85,42.734 11.847,44.337 18.759,45.267 C10.991,36.712 7.731,30.146 7.731,22.278 C7.731,12.696 14.25,7.666 22.792,7.666 C32.739,7.666 40.757,15.865 48.064,27 C52.3,11.794 57.635,0.023 72.246,0.023 L72.246,0.023 Z" id="path-1"></path>
    </defs>
    <g id="Page-1" stroke="none" stroke-width="1" fill="none" fill-rule="evenodd" sketch:type="MSPage">
        <g id="Natura" sketch:type="MSLayerGroup">
            <path d="M101.898,11.263 C85.657,11.263 89.843,39.587 80.992,39.587 C73.996,39.587 68.46,18.457 55.366,18.457 C50.505,18.457 46.824,22.784 46.824,27.448 C46.824,35.906 61.885,48.551 61.885,51.276 C61.885,52.85 60.504,53.243 58.86,53.3 L41.335,49.704 C39.448,49.451 38.507,50.995 38.507,52.063 C38.507,64.314 69.303,66.113 69.303,69.596 C69.303,70.159 66.606,72.856 66.606,73.418 C66.606,76.593 78.913,77.577 80.543,77.577 C88.13,77.577 88.13,73.081 92.681,73.081 C93.244,73.081 102.123,74.654 102.685,74.654 C102.994,74.654 121.455,72.856 121.455,68.135 C121.455,66.534 111.115,66.562 111.115,63.752 C111.115,59.228 137.64,56.194 137.64,42.06 C137.64,39.221 136.095,37.564 132.919,37.564 C127.075,37.564 114.599,46.556 109.766,46.556 C108.726,46.556 106.843,46.134 106.843,43.97 C106.843,40.486 113.362,29.246 113.362,22.39 C113.362,15.647 108.67,11.263 101.898,11.263 L101.898,11.263 Z M103.247,0.023 C116.004,0.023 121.905,9.212 121.905,19.693 C121.905,24.498 119.12,31.686 118.153,36.015 C124.077,33.191 130.7,29.022 136.741,29.022 C141.967,29.022 144.834,31.466 144.834,36.552 C144.834,46.949 133.384,57.168 122.129,61.733 C123.275,62.218 129.098,61.673 129.098,64.314 C129.098,67.349 121.282,71.607 120.495,72.001 C113.189,75.794 108.67,77.127 101.785,77.127 C101.224,77.127 95.154,76.453 94.592,76.453 C94.508,76.453 86.106,80.049 82.116,80.049 C81.554,80.049 80.871,80.021 78.399,79.825 C76.123,79.656 59.412,78.954 59.412,71.845 C59.412,71.283 59.638,70.702 59.89,69.446 C51.97,69.765 31.313,55.322 31.313,47.005 C31.313,43.015 34.432,42.734 36.821,42.734 C41.85,42.734 42.847,44.337 49.759,45.267 C41.991,36.712 38.731,30.146 38.731,22.278 C38.731,12.696 45.25,7.666 53.792,7.666 C63.739,7.666 71.757,15.865 79.064,27 C83.301,11.794 88.635,0.023 103.247,0.023 L103.247,0.023 Z" id="Fill-2" fill="#FFFFFF" sketch:type="MSShapeGroup"></path>
            <path d="M101.898,11.263 C85.657,11.263 89.843,39.587 80.992,39.587 C73.996,39.587 68.46,18.457 55.366,18.457 C50.505,18.457 46.824,22.784 46.824,27.448 C46.824,35.906 61.885,48.551 61.885,51.276 C61.885,52.85 60.504,53.243 58.86,53.3 L41.335,49.704 C39.448,49.451 38.507,50.995 38.507,52.063 C38.507,64.314 69.303,66.113 69.303,69.596 C69.303,70.159 66.605,72.856 66.605,73.418 C66.605,76.593 78.913,77.577 80.543,77.577 C88.13,77.577 88.13,73.081 92.681,73.081 C93.244,73.081 102.123,74.654 102.685,74.654 C102.994,74.654 121.455,72.856 121.455,68.135 C121.455,66.534 111.114,66.562 111.114,63.752 C111.114,59.228 137.64,56.194 137.64,42.06 C137.64,39.221 136.095,37.564 132.919,37.564 C127.075,37.564 114.599,46.556 109.766,46.556 C108.726,46.556 106.843,46.134 106.843,43.97 C106.843,40.486 113.362,29.246 113.362,22.39 C113.362,15.647 108.67,11.263 101.898,11.263 L101.898,11.263 Z M103.246,0.023 C116.004,0.023 121.905,9.212 121.905,19.693 C121.905,24.498 119.12,31.686 118.153,36.015 C124.077,33.191 130.7,29.022 136.741,29.022 C141.967,29.022 144.833,31.466 144.833,36.552 C144.833,46.949 133.384,57.168 122.129,61.733 C123.275,62.218 129.098,61.673 129.098,64.314 C129.098,67.349 121.282,71.607 120.495,72.001 C113.189,75.794 108.67,77.127 101.785,77.127 C101.224,77.127 95.154,76.453 94.592,76.453 C94.508,76.453 86.106,80.049 82.116,80.049 C81.554,80.049 80.871,80.021 78.398,79.825 C76.123,79.656 59.412,78.954 59.412,71.845 C59.412,71.283 59.638,70.702 59.889,69.446 C51.97,69.765 31.313,55.322 31.313,47.005 C31.313,43.015 34.432,42.734 36.82,42.734 C41.85,42.734 42.847,44.337 49.759,45.267 C41.991,36.712 38.731,30.146 38.731,22.278 C38.731,12.696 45.25,7.666 53.792,7.666 C63.739,7.666 71.757,15.865 79.064,27 C83.3,11.794 88.635,0.023 103.246,0.023 L103.246,0.023 Z" id="Fill-3" fill="#FFFFFF" sketch:type="MSShapeGroup"></path>
            <path d="M74.265,88.175 L81.184,88.176 L81.184,99.977 L87.253,99.977 L87.253,104.07 L81.2,104.07 L81.2,123.519 C81.217,125.093 83.268,128.605 85.404,128.622 L88.596,128.622 L88.596,131.479 C87.364,131.128 86.443,131.527 85.376,131.527 C78.66,131.527 74.248,126.779 74.265,120.204 L74.265,88.175" id="Fill-4" fill="#FFFFFF" sketch:type="MSShapeGroup"></path>
            <path d="M16.477,99.607 C20.832,99.607 31.987,102.276 31.971,110.537 L31.971,126.999 L25.26,126.999 L25.26,111.605 C25.243,106.238 21.282,102.304 16.477,102.304 C11.531,102.304 7.935,106.435 7.918,110.987 L7.918,126.942 L0.982,126.942 L0.982,112.055 C0.966,103.203 10.322,99.607 16.477,99.607" id="Fill-5" fill="#FFFFFF" sketch:type="MSShapeGroup"></path>
            <path d="M141.574,99.832 C143.12,99.832 142.951,99.832 145.249,99.864 L145.25,102.947 C144.496,102.979 143.625,102.979 143.063,102.979 C138.82,102.979 136.741,105.479 136.724,109.414 L136.724,126.999 L129.789,126.999 L129.789,111.605 C129.772,105.058 133.791,99.832 141.574,99.832" id="Fill-6" fill="#FFFFFF" sketch:type="MSShapeGroup"></path>
            <path d="M52.781,100.056 C59.075,100.056 67.954,104.356 67.937,112.785 L67.937,126.942 L61.002,126.942 L61.002,112.055 C60.986,107.615 57.698,102.529 52.668,102.529 C45.419,102.529 43.901,108.936 43.901,113.432 C43.901,119.136 46.683,123.885 53.118,123.885 C54.86,123.884 57.237,123.133 58.932,122.556 L58.932,124.947 C56.503,126.868 53.82,127.481 51.544,127.481 C43.311,127.481 37.158,121.721 37.158,113.769 C37.158,104.384 45.278,100.056 52.781,100.056" id="Fill-7" fill="#FFFFFF" sketch:type="MSShapeGroup"></path>
            <path d="M92.698,100.09 L99.409,100.09 L99.409,114.977 C99.426,119.529 102.994,124.559 108.08,124.559 C112.266,124.559 116.959,120.794 116.975,115.932 L116.975,100.09 L123.687,100.09 L123.687,115.202 C123.703,124.615 113.222,127.481 107.968,127.481 C102.741,127.481 92.681,123.8 92.698,115.932 L92.698,100.09" id="Fill-8" fill="#FFFFFF" sketch:type="MSShapeGroup"></path>
            <path d="M161.58,100.056 C167.228,100.056 173.262,101.73 176.512,110.264 L176.512,126.999 L169.577,126.999 L169.577,109.807 C169.561,104.749 164.11,102.529 161.243,102.529 C153.769,102.529 152.926,108.992 152.926,113.319 C152.926,118.602 154.612,123.884 161.805,123.884 C163.828,123.885 165.82,123.13 167.959,122.558 L167.959,124.944 C165.785,126.864 162.339,127.481 160.344,127.481 C152.392,127.481 145.733,121.215 145.733,113.544 C145.733,104.692 154.415,100.056 161.58,100.056" id="Fill-9" fill="#FFFFFF" sketch:type="MSShapeGroup"></path>
            <g id="Group-23" transform="translate(31.000000, 0.000000)">
                <mask id="mask-2" sketch:name="Clip 22" fill="white">
                    <use xlink:href="#path-1"></use>
                </mask>
                <g id="Clip-22"></g>
                <path d="M70.898,11.263 C54.657,11.263 58.843,39.587 49.992,39.587 C42.996,39.587 37.46,18.457 24.366,18.457 C19.505,18.457 15.824,22.784 15.824,27.448 C15.824,35.906 30.885,48.551 30.885,51.276 C30.885,52.85 29.504,53.243 27.86,53.3 L10.335,49.704 C8.448,49.451 7.507,50.995 7.507,52.063 C7.507,64.314 38.303,66.113 38.303,69.596 C38.303,70.159 35.605,72.856 35.605,73.418 C35.605,76.593 47.913,77.577 49.543,77.577 C57.13,77.577 57.13,73.081 61.681,73.081 C62.244,73.081 71.123,74.654 71.685,74.654 C71.994,74.654 90.455,72.856 90.455,68.135 C90.455,66.534 80.114,66.562 80.114,63.752 C80.114,59.228 106.64,56.194 106.64,42.06 C106.64,39.221 105.095,37.564 101.919,37.564 C96.075,37.564 83.599,46.556 78.766,46.556 C77.726,46.556 75.843,46.134 75.843,43.97 C75.843,40.486 82.362,29.246 82.362,22.39 C82.362,15.647 77.67,11.263 70.898,11.263 L70.898,11.263 Z M72.246,0.023 C85.004,0.023 90.905,9.212 90.905,19.693 C90.905,24.498 88.12,31.686 87.153,36.015 C93.077,33.191 99.7,29.022 105.741,29.022 C110.967,29.022 113.833,31.466 113.833,36.552 C113.833,46.949 102.384,57.168 91.129,61.733 C92.275,62.218 98.098,61.673 98.098,64.314 C98.098,67.349 90.282,71.607 89.495,72.001 C82.189,75.794 77.67,77.127 70.785,77.127 C70.224,77.127 64.154,76.453 63.592,76.453 C63.508,76.453 55.106,80.049 51.116,80.049 C50.554,80.049 49.871,80.021 47.398,79.825 C45.123,79.656 28.412,78.954 28.412,71.845 C28.412,71.283 28.638,70.702 28.889,69.446 C20.97,69.765 0.313,55.322 0.313,47.005 C0.313,43.015 3.432,42.734 5.82,42.734 C10.85,42.734 11.847,44.337 18.759,45.267 C10.991,36.712 7.731,30.146 7.731,22.278 C7.731,12.696 14.25,7.666 22.792,7.666 C32.739,7.666 40.757,15.865 48.064,27 C52.3,11.794 57.635,0.023 72.246,0.023 L72.246,0.023 Z" id="Fill-21" fill="#FFFFFF" sketch:type="MSShapeGroup" mask="url(#mask-2)"></path>
            </g>
            <path d="M74.265,88.175 L81.184,88.176 L81.184,99.977 L87.253,99.977 L87.253,104.07 L81.2,104.07 L81.2,123.519 C81.217,125.093 83.268,128.605 85.404,128.622 L88.596,128.622 L88.596,131.479 C87.364,131.128 86.443,131.527 85.376,131.527 C78.66,131.527 74.248,126.779 74.265,120.204 L74.265,88.175" id="Fill-24" fill="#FFFFFF" sketch:type="MSShapeGroup"></path>
            <path d="M16.477,99.607 C20.832,99.607 31.987,102.276 31.971,110.537 L31.971,126.999 L25.26,126.999 L25.26,111.605 C25.243,106.238 21.282,102.304 16.477,102.304 C11.531,102.304 7.935,106.435 7.918,110.987 L7.918,126.942 L0.982,126.942 L0.982,112.055 C0.966,103.203 10.322,99.607 16.477,99.607" id="Fill-25" fill="#FFFFFF" sketch:type="MSShapeGroup"></path>
            <path d="M141.574,99.832 C143.12,99.832 142.951,99.832 145.249,99.864 L145.25,102.947 C144.496,102.979 143.625,102.979 143.063,102.979 C138.82,102.979 136.741,105.479 136.724,109.414 L136.724,126.999 L129.789,126.999 L129.789,111.605 C129.772,105.058 133.791,99.832 141.574,99.832" id="Fill-26" fill="#FFFFFF" sketch:type="MSShapeGroup"></path>
            <path d="M52.781,100.056 C59.075,100.056 67.954,104.356 67.937,112.785 L67.937,126.942 L61.002,126.942 L61.002,112.055 C60.986,107.615 57.698,102.529 52.668,102.529 C45.419,102.529 43.901,108.936 43.901,113.432 C43.901,119.136 46.683,123.885 53.118,123.885 C54.86,123.884 57.237,123.133 58.932,122.556 L58.932,124.947 C56.503,126.868 53.82,127.481 51.544,127.481 C43.311,127.481 37.158,121.721 37.158,113.769 C37.158,104.384 45.278,100.056 52.781,100.056" id="Fill-27" fill="#FFFFFF" sketch:type="MSShapeGroup"></path>
            <path d="M92.698,100.09 L99.409,100.09 L99.409,114.977 C99.426,119.529 102.994,124.559 108.08,124.559 C112.266,124.559 116.959,120.794 116.975,115.932 L116.975,100.09 L123.687,100.09 L123.687,115.202 C123.703,124.615 113.222,127.481 107.968,127.481 C102.741,127.481 92.681,123.8 92.698,115.932 L92.698,100.09" id="Fill-28" fill="#FFFFFF" sketch:type="MSShapeGroup"></path>
            <path d="M161.58,100.056 C167.228,100.056 173.262,101.73 176.512,110.264 L176.512,126.999 L169.577,126.999 L169.577,109.807 C169.561,104.749 164.11,102.529 161.243,102.529 C153.769,102.529 152.926,108.992 152.926,113.319 C152.926,118.602 154.612,123.884 161.805,123.884 C163.828,123.885 165.82,123.13 167.959,122.558 L167.959,124.944 C165.785,126.864 162.339,127.481 160.344,127.481 C152.392,127.481 145.733,121.215 145.733,113.544 C145.733,104.692 154.415,100.056 161.58,100.056" id="Fill-29" fill="#FFFFFF" sketch:type="MSShapeGroup"></path>
        </g>
    </g>
</svg>