<?xml version="1.0" encoding="UTF-8" standalone="no"?>
<svg width="161px" height="161px" viewBox="0 0 161 161" version="1.1" xmlns="http://www.w3.org/2000/svg" xmlns:xlink="http://www.w3.org/1999/xlink" xmlns:sketch="http://www.bohemiancoding.com/sketch/ns">
    <!-- Generator: Sketch 3.4.4 (17249) - http://www.bohemiancoding.com/sketch -->
    <title>olx</title>
    <desc>Created with Sketch.</desc>
    <defs>
        <path id="path-1" d="M0,0.506 L160.484,0.506 L160.484,161 L0,161"></path>
    </defs>
    <g id="Page-1" stroke="none" stroke-width="1" fill="none" fill-rule="evenodd" sketch:type="MSPage">
        <g id="Desktop-HD" sketch:type="MSArtboardGroup" transform="translate(-919.000000, -425.000000)">
            <g id="olx" sketch:type="MSLayerGroup" transform="translate(919.000000, 425.000000)">
                <path d="M135.5541,25.3108 C120.7791,10.5358 101.1371,2.4008 80.2411,2.4008 C59.3431,2.4008 39.7021,10.5358 24.9291,25.3108 C10.1591,40.0778 2.0271,59.7248 2.0271,80.6228 C2.0271,101.5128 10.1591,121.1518 24.9291,135.9268 C39.7021,150.6998 59.3431,158.8368 80.2411,158.8368 C101.1311,158.8368 120.7791,150.6998 135.5541,135.9268 C150.3241,121.1518 158.4571,101.5128 158.4571,80.6228 C158.4571,59.7248 150.3241,40.0778 135.5541,25.3108" id="Fill-1" stroke="#FFFFFF" stroke-width="2" sketch:type="MSShapeGroup"></path>
                <path d="M144.6775,106.4468 L125.6275,77.8988 L140.2215,56.3958 C141.9435,53.8798 141.2675,51.3578 139.0865,50.4408 C136.8985,49.5398 133.7545,50.3848 131.7515,52.6968 L118.7585,67.6148 L109.7875,54.1518 C108.0935,51.6108 104.3795,50.2848 101.5385,51.1948 C98.7065,52.1038 97.3175,55.1598 98.4715,57.9948 L108.9235,79.2098 L93.8985,96.2108 C91.8945,98.5198 91.5925,102.5108 93.2175,105.0858 L96.9735,111.0358 C98.6075,113.6188 101.3525,113.6588 103.0595,111.1378 L115.6805,92.5308 L125.9225,111.3168 C127.0775,114.1418 130.4285,115.7828 133.3735,114.9908 L142.4135,112.5238 C145.3555,111.7188 146.3775,108.9868 144.6775,106.4468" id="Fill-3" fill="#FFFFFF" sketch:type="MSShapeGroup"></path>
                <path d="M33.887,101.9949 C27.482,101.9949 22.279,92.8929 22.279,81.6559 C22.279,70.4359 27.482,61.3379 33.887,61.3379 C40.289,61.3379 45.486,70.4359 45.486,81.6559 C45.486,92.8929 40.289,101.9949 33.887,101.9949 M33.887,51.7619 C20.116,51.7619 8.961,65.1439 8.961,81.6559 C8.961,98.1829 20.116,111.5659 33.887,111.5659 C47.647,111.5659 58.807,98.1829 58.807,81.6559 C58.807,65.1439 47.647,51.7619 33.887,51.7619" id="Fill-5" fill="#FFFFFF" sketch:type="MSShapeGroup"></path>
                <path d="M66.4767,43.7292 C62.9797,43.7012 61.7697,46.6042 61.9837,49.5642 L61.9907,87.7792 C62.1007,91.3692 63.8757,93.5752 67.9067,93.6302 L88.9737,93.6482 C92.3117,93.7102 94.1217,92.9362 94.4337,90.1932 L94.4337,83.5702 C94.3967,80.5092 91.2757,80.5252 89.1507,80.5732 L80.4927,80.5732 C77.0627,80.5412 76.2667,79.9752 76.1267,76.5832 L76.1697,49.4362 C76.2327,46.2652 75.1347,43.7432 71.6267,43.7202 L66.4767,43.7292 Z" id="Fill-7" fill="#FFFFFF" sketch:type="MSShapeGroup"></path>
                <g id="Group-11">
                    <mask id="mask-2" sketch:name="Clip 10" fill="white">
                        <use xlink:href="#path-1"></use>
                    </mask>
                    <g id="Clip-10"></g>
                    <path d="M80.2414,0.506 C58.8014,0.506 38.6524,8.852 23.4944,24.011 C8.3414,39.162 0.0004,59.317 0.0004,80.757 C0.0004,102.189 8.3414,122.337 23.4944,137.495 C38.6524,152.653 58.8014,161 80.2414,161 C101.6724,161 121.8294,152.653 136.9884,137.495 C152.1424,122.337 160.4844,102.189 160.4844,80.757 C160.4844,59.317 152.1424,39.162 136.9884,24.011 C121.8294,8.852 101.6794,0.506 80.2414,0.506 M80.2414,2.735 C101.0814,2.735 120.6734,10.852 135.4104,25.588 C150.1424,40.313 158.2534,59.908 158.2534,80.757 C158.2534,101.593 150.1424,121.184 135.4104,135.919 C120.6734,150.654 101.0804,158.771 80.2414,158.771 C59.3994,158.771 39.8084,150.654 25.0724,135.919 C10.3414,121.184 2.2304,101.593 2.2304,80.757 C2.2304,59.908 10.3414,40.315 25.0714,25.588 C39.8064,10.852 59.3984,2.735 80.2414,2.735" id="Fill-9" fill="#FFFFFF" sketch:type="MSShapeGroup" mask="url(#mask-2)"></path>
                </g>
            </g>
        </g>
    </g>
</svg>