<?xml version="1.0" encoding="UTF-8" standalone="no"?>
<svg width="390px" height="118px" viewBox="0 0 390 118" version="1.1" xmlns="http://www.w3.org/2000/svg" xmlns:xlink="http://www.w3.org/1999/xlink" xmlns:sketch="http://www.bohemiancoding.com/sketch/ns">
    <!-- Generator: Sketch 3.4.4 (17249) - http://www.bohemiancoding.com/sketch -->
    <title>pictery</title>
    <desc>Created with Sketch.</desc>
    <defs>
        <path id="path-1" d="M0,0.196 L389.648,0.196 L389.648,118 L0,118"></path>
    </defs>
    <g id="Page-1" stroke="none" stroke-width="1" fill="none" fill-rule="evenodd" sketch:type="MSPage">
        <g id="Desktop-HD" sketch:type="MSArtboardGroup" transform="translate(-893.000000, -181.000000)">
            <g id="pictery" sketch:type="MSLayerGroup" transform="translate(893.000000, 181.000000)">
                <g id="Group-3">
                    <mask id="mask-2" sketch:name="Clip 2" fill="white">
                        <use xlink:href="#path-1"></use>
                    </mask>
                    <g id="Clip-2"></g>
                    <path d="M75.2844,20.8902 C77.6904,20.9832 78.6634,21.8402 78.2004,23.4592 C77.7364,25.0802 76.1174,27.1882 73.3404,29.7792 C71.7634,31.2612 70.1674,33.2752 68.5484,35.8212 C66.9274,38.3682 65.3304,41.2602 63.7574,44.5002 C62.1804,47.7432 60.5844,51.2372 58.9654,54.9872 C57.3444,58.7372 55.7014,62.5552 54.0344,66.4452 C55.1454,67.2782 56.4414,67.9722 57.9234,68.5282 C59.4034,69.0832 61.0704,69.2702 62.9234,69.0832 C67.6454,68.8052 72.0424,67.6722 76.1174,65.6802 C80.1904,63.6912 83.8254,61.2152 87.0194,58.2502 C90.2144,55.2872 92.8984,51.9792 95.0754,48.3212 C97.2494,44.6632 98.8464,40.9382 99.8664,37.1392 C100.8854,33.3442 101.2564,29.6882 100.9774,26.1682 C100.7004,22.6512 99.6794,19.5492 97.9224,16.8632 C96.1624,14.1782 93.6164,12.0952 90.2834,10.6132 C86.9504,9.1332 82.7364,8.5302 77.6444,8.8072 C69.0344,9.3632 62.3894,10.9382 57.7154,13.5302 C53.0384,16.1222 49.9374,19.0152 48.4094,22.2092 C46.8824,25.4052 46.7194,28.5072 47.9244,31.5152 C49.1264,34.5252 51.3474,36.7232 54.5904,38.1122 C57.7364,33.1122 61.0244,28.9692 64.4514,25.6822 C67.8754,22.3972 71.4864,20.7992 75.2844,20.8902 M29.5914,38.1122 C27.9244,34.2232 27.8764,30.0802 29.4514,25.6822 C31.0244,21.2862 34.0114,17.1882 38.4104,13.3912 C42.8064,9.5952 48.5244,6.4462 55.5624,3.9462 C62.5974,1.4462 70.7924,0.1962 80.1444,0.1962 C87.8294,0.1962 94.3814,1.3072 99.7974,3.5302 C105.2144,5.7522 109.5644,8.6922 112.8524,12.3492 C116.1384,16.0082 118.3384,20.1742 119.4494,24.8482 C120.5604,29.5252 120.6514,34.2932 119.7274,39.1542 C118.8014,44.0142 116.8804,48.7602 113.9634,53.3892 C111.0474,58.0202 107.1344,62.1622 102.2274,65.8202 C97.3194,69.4792 91.4404,72.4162 84.5894,74.6392 C77.7364,76.8612 69.9584,77.9722 61.2574,77.9722 C56.8124,77.9722 53.0624,77.4642 50.0074,76.4442 L44.4514,89.3612 C42.3204,93.9922 39.8894,97.9482 37.1604,101.2352 C34.4284,104.5212 31.5354,107.0692 28.4794,108.8732 C25.4244,110.6802 22.2514,111.7212 18.9664,111.9982 C15.6784,112.2772 12.5084,111.6732 9.4524,110.1942 C6.7654,108.8962 4.7304,107.1602 3.3414,104.9852 C1.9534,102.8092 1.0024,100.5632 0.4944,98.2492 C-0.0156,95.9342 -0.1306,93.6902 0.1474,91.5132 C0.4254,89.3382 0.8634,87.6032 1.4664,86.3052 C2.0674,85.0102 2.7384,84.3152 3.4804,84.2222 C4.2204,84.1312 4.8694,84.9642 5.4254,86.7212 C5.9804,88.6662 6.8834,90.1722 8.1334,91.2362 C9.3834,92.3012 10.8174,92.9952 12.4384,93.3192 C14.0574,93.6452 15.7234,93.6202 17.4384,93.2492 C19.1504,92.8802 20.7934,92.1862 22.3694,91.1662 C23.5714,90.3322 24.7994,89.2702 26.0494,87.9712 C27.2994,86.6762 28.4794,85.2642 29.5914,83.7362 C30.7024,82.2072 31.7644,80.6352 32.7854,79.0142 C33.8034,77.3952 34.7294,75.8432 35.5624,74.3622 C37.5984,70.5652 39.7294,66.3752 41.9514,61.7912 C44.1744,57.2092 46.4874,52.6492 48.8954,48.1122 C47.1364,48.2982 45.3064,48.2982 43.4104,48.1122 C41.5114,47.9272 39.7054,47.4652 37.9934,46.7232 C36.2794,45.9832 34.6814,44.9172 33.2024,43.5292 C31.7204,42.1392 30.5144,40.3342 29.5914,38.1122" id="Fill-1" fill="#FFFFFF" sketch:type="MSShapeGroup" mask="url(#mask-2)"></path>
                </g>
                <path d="M152.7815,20.6128 C153.4285,22.1878 153.4765,23.7368 152.9215,25.2648 C152.3655,26.7938 151.4145,28.1818 150.0735,29.4318 C148.7305,30.6818 147.1575,31.7018 145.3515,32.4868 C143.5465,33.2748 141.7615,33.7368 140.0045,33.8758 C138.2445,34.0148 136.6475,33.8068 135.2135,33.2508 C133.7765,32.6958 132.7825,31.6788 132.2265,30.1958 C131.5785,28.7158 131.5535,27.2098 132.1575,25.6818 C132.7595,24.1548 133.7075,22.7648 135.0045,21.5148 C136.3005,20.2648 137.8285,19.2018 139.5885,18.3208 C141.3455,17.4418 143.0815,16.9108 144.7965,16.7228 C146.5085,16.5398 148.0815,16.7478 149.5175,17.3478 C150.9525,17.9518 152.0395,19.0398 152.7815,20.6128 M141.1155,47.6958 C140.1885,49.4558 139.1475,51.3308 137.9905,53.3198 C136.8325,55.3118 135.6995,57.3028 134.5885,59.2918 C133.4765,61.2838 132.3875,63.2048 131.3245,65.0548 C130.2595,66.9088 129.3105,68.5278 128.4765,69.9168 C127.6435,71.3988 126.8555,72.8578 126.1165,74.2918 C125.3745,75.7278 124.7965,77.0238 124.3805,78.1798 C123.9635,79.3398 123.8705,80.2878 124.1015,81.0278 C124.3325,81.7698 125.0055,82.1388 126.1165,82.1388 C127.8735,82.1388 129.7965,81.6768 131.8805,80.7508 C133.9635,79.8248 136.0675,78.5748 138.1995,77.0008 C140.3275,75.4268 142.3655,73.6218 144.3095,71.5838 C146.2545,69.5478 147.9215,67.3718 149.3095,65.0548 C150.2345,63.5758 151.1845,62.5798 152.1565,62.0698 C153.1295,61.5618 153.9385,61.4928 154.5875,61.8618 C155.2335,62.2328 155.6045,62.9508 155.6985,64.0138 C155.7895,65.0798 155.3735,66.3988 154.4485,67.9718 C152.8735,70.8438 150.6055,73.8298 147.6425,76.9298 C144.6785,80.0338 141.5085,82.8568 138.1295,85.4028 C134.7485,87.9498 131.4385,90.0548 128.1995,91.7208 C124.9575,93.3878 122.2265,94.2208 120.0055,94.2208 C117.8745,94.2208 115.9315,93.8988 114.1725,93.2498 C112.4145,92.6028 111.0475,91.5608 110.0745,90.1248 C109.1025,88.6898 108.6395,86.8858 108.6855,84.7078 C108.7335,82.5338 109.4495,79.9168 110.8385,76.8608 C112.2275,73.8048 113.4555,71.0518 114.5185,68.5968 C115.5845,66.1448 116.6025,63.8758 117.5745,61.7918 C118.5475,59.7088 119.4705,57.7638 120.3515,55.9598 C121.2305,54.1528 122.0885,52.3718 122.9215,50.6118 C123.7555,48.8538 124.5185,47.4658 125.2135,46.4458 C125.9075,45.4278 126.6475,44.6388 127.4355,44.0848 C128.2205,43.5288 129.1235,43.1358 130.1435,42.9038 C131.1615,42.6748 132.4115,42.4178 133.8935,42.1388 C135.3735,41.9558 136.7615,41.8168 138.0595,41.7228 C139.3555,41.6318 140.3975,41.7468 141.1845,42.0708 C141.9705,42.3958 142.3865,42.9968 142.4345,43.8758 C142.4805,44.7568 142.0405,46.0278 141.1155,47.6958" id="Fill-4" fill="#FFFFFF" sketch:type="MSShapeGroup"></path>
                <path d="M204.3074,67.9722 C201.5304,71.9542 198.4734,75.5652 195.1404,78.8052 C191.8064,82.0472 188.3354,84.8012 184.7244,87.0692 C181.1124,89.3382 177.4084,91.0962 173.6134,92.3462 C169.8154,93.5962 166.0194,94.2212 162.2244,94.2212 C157.9654,94.2212 154.3534,93.3672 151.3914,91.6532 C148.4274,89.9402 146.2744,87.6242 144.9334,84.7072 C143.5924,81.7912 143.0824,78.3432 143.4054,74.3622 C143.7314,70.3812 145.0034,66.1662 147.2244,61.7232 C148.7984,58.5772 150.8574,55.5662 153.4054,52.6952 C155.9504,49.8272 158.7744,47.4172 161.8774,45.4732 C164.9784,43.5292 168.2424,42.2562 171.6694,41.6542 C175.0934,41.0532 178.4744,41.4462 181.8074,42.8342 C184.5854,43.9462 186.5994,45.4962 187.8494,47.4872 C189.0994,49.4792 189.7004,51.5622 189.6544,53.7372 C189.6064,55.9122 188.9604,58.0202 187.7104,60.0562 C186.4604,62.0942 184.6764,63.6662 182.3624,64.7782 C179.5854,66.1662 177.2934,66.5372 175.4884,65.8892 C173.6824,65.2432 172.5234,64.1312 172.0154,62.5552 C171.5064,60.9832 171.7604,59.1532 172.7794,57.0702 C173.7984,54.9872 175.7424,53.2052 178.6134,51.7232 C179.4464,50.4272 179.3294,49.5942 178.2654,49.2232 C177.2004,48.8542 175.6964,49.1312 173.7524,50.0562 C171.8074,50.9832 169.6314,52.6492 167.2244,55.0562 C164.8154,57.4652 162.6864,60.7982 160.8364,65.0552 C159.5384,67.9262 158.8444,70.4032 158.7524,72.4872 C158.6594,74.5692 158.9614,76.3292 159.6554,77.7642 C160.3494,79.2002 161.2984,80.3112 162.5024,81.0972 C163.7044,81.8852 165.0024,82.4162 166.3904,82.6942 C168.7984,83.1592 171.4824,82.9962 174.4464,82.2072 C177.4084,81.4222 180.3704,80.2182 183.3354,78.5972 C186.2974,76.9782 189.1444,75.0102 191.8764,72.6942 C194.6064,70.3812 196.9914,67.8332 199.0304,65.0552 C200.1394,63.6662 201.2274,62.7432 202.2934,62.2782 C203.3564,61.8162 204.2134,61.7702 204.8624,62.1392 C205.5084,62.5102 205.8344,63.2042 205.8344,64.2232 C205.8344,65.2432 205.3254,66.4932 204.3074,67.9722" id="Fill-6" fill="#FFFFFF" sketch:type="MSShapeGroup"></path>
                <path d="M239.4441,19.7798 C244.1671,19.1328 248.5421,18.5528 252.5691,18.0438 C256.5961,17.5358 259.5831,17.0498 261.5281,16.5848 C263.0061,16.3068 263.9581,16.4248 264.3741,16.9318 C264.7921,17.4418 264.8131,18.2058 264.4441,19.2228 C264.0731,20.2438 263.3781,21.3538 262.3601,22.5568 C261.3401,23.7618 260.1611,24.9188 258.8191,26.0298 C257.4751,27.1398 256.0871,28.0668 254.6531,28.8068 C253.2151,29.5498 251.8971,29.9188 250.6941,29.9188 L231.5281,29.9188 C229.2131,33.1608 226.8761,36.5148 224.5141,39.9868 C222.1531,43.4598 220.0451,46.5848 218.1961,49.3618 C216.1571,52.4178 214.3521,55.6808 212.7781,59.1528 C211.2041,62.6258 209.9771,65.8438 209.0981,68.8048 C208.2171,71.7698 207.7101,74.3398 207.5711,76.5138 C207.4321,78.6898 207.7781,80.0548 208.6121,80.6108 C209.7231,81.3528 211.1821,81.5378 212.9871,81.1668 C214.7921,80.7978 216.7821,79.9398 218.9601,78.5968 C221.1331,77.2568 223.4031,75.4508 225.7641,73.1798 C228.1261,70.9128 230.4171,68.2048 232.6391,65.0548 C233.5631,63.5758 234.5361,62.6038 235.5551,62.1388 C236.5731,61.6758 237.4071,61.6078 238.0551,61.9298 C238.7021,62.2568 239.0491,62.9508 239.0961,64.0138 C239.1431,65.0798 238.7021,66.3988 237.7781,67.9718 C235.5551,71.7698 233.0321,75.2638 230.2081,78.4578 C227.3831,81.6528 224.4201,84.4088 221.3211,86.7208 C218.2171,89.0378 215.0451,90.8668 211.8071,92.2078 C208.5651,93.5508 205.4191,94.2208 202.3621,94.2208 C199.1201,94.2208 196.5051,93.0888 194.5151,90.8188 C192.5251,88.5508 191.5991,85.1938 191.7371,80.7508 C191.8761,76.3048 193.2431,70.7738 195.8351,64.1528 C198.4261,57.5338 202.7311,49.8268 208.7511,41.0288 C209.7681,39.5498 210.9031,37.8348 212.1531,35.8898 C213.4031,33.9458 214.7681,31.9558 216.2511,29.9188 L203.3351,29.9188 C202.2231,29.9188 201.6431,29.5938 201.5981,28.9458 C201.5511,28.2998 201.8071,27.5568 202.3621,26.7228 C202.9191,25.8898 203.7271,25.1268 204.7941,24.4318 C205.8561,23.7368 206.9911,23.3438 208.1961,23.2518 C211.7141,22.8828 215.3931,22.0938 219.2371,20.8898 C223.0771,19.6878 226.2021,18.5768 228.6121,17.5568 C230.6471,16.7228 232.7541,15.9148 234.9301,15.1268 C237.1061,14.3408 238.9111,13.8768 240.3461,13.7378 C241.7821,13.5978 242.5901,13.9008 242.7781,14.6408 C242.9621,15.3838 242.0361,16.8628 240.0011,19.0848 L239.4441,19.7798 Z" id="Fill-8" fill="#FFFFFF" sketch:type="MSShapeGroup"></path>
                <path d="M242.9167,67.8335 C245.9717,67.2775 249.1417,66.2835 252.4307,64.8485 C255.7157,63.4125 258.5617,61.0755 260.9717,57.8345 C262.6377,55.6115 263.0767,53.8305 262.2897,52.4865 C261.5027,51.1455 260.1137,50.5905 258.1237,50.8205 C256.1317,51.0525 253.8187,52.2775 251.1807,54.5005 C248.5397,56.7235 246.1547,60.2425 244.0257,65.0555 L242.9167,67.8335 Z M265.6917,65.6115 C262.7287,68.2975 259.1417,70.5415 254.9307,72.3475 C250.7157,74.1525 246.4797,75.3815 242.2217,76.0275 C242.6847,78.0655 243.6317,79.6175 245.0687,80.6805 C246.5027,81.7465 248.0557,82.4165 249.7217,82.6935 C252.1277,83.1585 254.8127,82.9965 257.7757,82.2075 C260.7387,81.4225 263.6997,80.2185 266.6647,78.5975 C269.6277,76.9785 272.4757,75.0105 275.2057,72.6935 C277.9367,70.3815 280.3207,67.8335 282.3597,65.0555 C283.4697,63.6665 284.5577,62.7425 285.6237,62.2775 C286.6867,61.8165 287.5437,61.7705 288.1917,62.1395 C288.8387,62.5105 289.1647,63.2045 289.1647,64.2235 C289.1647,65.2425 288.6547,66.4925 287.6377,67.9725 C284.8597,71.9545 281.8037,75.5655 278.4717,78.8055 C275.1377,82.0475 271.6647,84.8015 268.0537,87.0685 C264.4417,89.3385 260.7157,91.0965 256.8737,92.3465 C253.0297,93.5965 249.2567,94.2215 245.5557,94.2215 C241.2957,94.2215 237.6847,93.3665 234.7217,91.6525 C231.7567,89.9405 229.5827,87.6245 228.1937,84.7075 C226.8057,81.7915 226.2737,78.3435 226.5967,74.3615 C226.9227,70.3815 228.2407,66.1665 230.5557,61.7235 C232.1277,58.5765 234.1417,55.5415 236.5967,52.6255 C239.0497,49.7095 241.7797,47.2775 244.7917,45.3345 C247.7977,43.3895 250.9717,42.0945 254.3057,41.4455 C257.6377,40.7995 260.9717,41.1675 264.3037,42.5575 C266.8037,43.6675 268.6997,45.1045 269.9987,46.8615 C271.2937,48.6215 271.9887,50.5665 272.0807,52.6945 C272.1727,54.8265 271.6867,57.0245 270.6237,59.2915 C269.5577,61.5625 267.9147,63.6665 265.6917,65.6115 L265.6917,65.6115 Z" id="Fill-10" fill="#FFFFFF" sketch:type="MSShapeGroup"></path>
                <path d="M296.8035,44.7789 C298.7465,45.3349 300.4365,45.5429 301.8715,45.4029 C303.3075,45.2639 304.5805,44.8719 305.6925,44.2229 C306.8035,43.5769 307.7745,42.7639 308.6085,41.7929 C309.4425,40.8209 310.2275,39.7789 310.9695,38.6679 C311.8035,37.5569 312.7975,37.0939 313.9555,37.2789 C315.1125,37.4649 316.1295,38.0429 317.0105,39.0139 C317.8895,39.9869 318.4915,41.2149 318.8175,42.6959 C319.1395,44.1769 318.8855,45.6599 318.0535,47.1389 C317.9595,47.2329 317.9125,47.3269 317.9125,47.4179 C317.3585,48.3439 316.5005,49.8719 315.3445,52.0009 C314.1865,54.1319 312.9595,56.3539 311.6645,58.6669 C310.3665,60.9829 309.1645,63.2049 308.0535,65.3339 C306.9425,67.4649 306.1535,68.9929 305.6925,69.9169 C304.9495,71.3989 304.2095,72.8819 303.4695,74.3619 C302.7275,75.8429 302.1515,77.1629 301.7335,78.3189 C301.3175,79.4779 301.1995,80.4029 301.3855,81.0969 C301.5715,81.7919 302.2645,82.1389 303.4695,82.1389 C305.2275,82.1389 307.1495,81.6759 309.2335,80.7509 C311.3175,79.8249 313.4205,78.5749 315.5535,77.0009 C317.6825,75.4259 319.6965,73.6219 321.5945,71.5839 C323.4915,69.5479 325.1355,67.3719 326.5245,65.0549 C327.4495,63.5759 328.3995,62.5799 329.3715,62.0699 C330.3445,61.5619 331.1535,61.4929 331.8015,61.8619 C332.4485,62.2329 332.8195,62.9509 332.9125,64.0139 C333.0045,65.0799 332.6355,66.3989 331.8015,67.9719 C330.2275,70.8429 328.0515,73.8299 325.2745,76.9299 C322.4965,80.0339 319.4875,82.8569 316.2465,85.4029 C313.0045,87.9499 309.7195,90.0549 306.3855,91.7209 C303.0535,93.3879 300.0435,94.2209 297.3585,94.2209 C292.9145,94.2209 290.3665,92.2779 289.7195,88.3889 C289.0715,84.4999 290.5535,79.2699 294.1645,72.6939 C295.7375,70.0099 297.3115,67.4409 298.8855,64.9869 C300.4595,62.5339 301.9875,60.2429 303.4695,58.1119 C301.0615,59.6869 298.5395,60.7509 295.9015,61.3049 C293.2625,61.8619 290.8305,61.8619 288.6085,61.3049 C287.3115,63.8049 285.8305,66.0279 284.1645,67.9719 C282.8665,69.4549 281.6415,70.4509 280.4855,70.9589 C279.3245,71.4679 278.4485,71.5379 277.8445,71.1669 C277.2445,70.7979 276.9915,70.0799 277.0805,69.0139 C277.1745,67.9509 277.7765,66.6319 278.8875,65.0549 C279.6275,64.0379 280.3445,62.9509 281.0395,61.7919 C281.7335,60.6349 282.4055,59.4549 283.0535,58.2509 C281.5715,56.7699 280.7135,55.0099 280.4855,52.9729 C280.2525,50.9379 280.4145,48.8309 280.9695,46.6529 C281.5265,44.4789 282.4285,42.3719 283.6785,40.3349 C284.9285,38.2999 286.3385,36.5389 287.9145,35.0569 C289.4875,33.5769 291.1295,32.5359 292.8445,31.9319 C294.5575,31.3309 296.1555,31.3539 297.6355,32.0009 C298.7465,32.4649 299.3935,33.1609 299.5805,34.0849 C299.7645,35.0109 299.7415,36.0529 299.5105,37.2099 C299.2805,38.3679 298.8855,39.5939 298.3305,40.8889 C297.7765,42.1879 297.2645,43.4829 296.8035,44.7789" id="Fill-12" fill="#FFFFFF" sketch:type="MSShapeGroup"></path>
                <path d="M317.0788,106.8599 C319.6708,106.8599 322.6568,105.8399 326.0358,103.8049 C329.4148,101.7669 332.9558,98.2499 336.6608,93.2499 C333.8838,92.6939 331.0808,92.4169 328.2588,92.4169 C325.4328,92.4169 322.7718,92.8799 320.2718,93.8049 C317.3088,94.8229 315.0888,96.0489 313.6058,97.4849 C312.1258,98.9209 311.2918,100.3329 311.1058,101.7209 C310.9208,103.1099 311.3388,104.3129 312.3558,105.3329 C313.3758,106.3499 314.9498,106.8599 317.0788,106.8599 M349.5768,47.6959 C344.6688,54.5479 340.9658,60.1489 338.4658,64.5009 C335.9658,68.8539 334.2998,72.2559 333.4658,74.7089 C332.6338,77.1629 332.4698,78.8529 332.9808,79.7779 C333.4888,80.7039 334.2998,81.1669 335.4108,81.1669 C337.1688,81.1669 338.7658,80.6589 340.2018,79.6389 C341.6378,78.6219 343.0258,77.2779 344.3698,75.6109 C345.7098,73.9439 347.0088,72.0239 348.2588,69.8469 C349.5088,67.6719 350.7798,65.4259 352.0768,63.1119 C353.1878,60.7049 354.2058,58.5059 355.1318,56.5139 C356.0578,54.5239 357.0298,52.5559 358.0498,50.6119 C358.8818,48.8539 359.6468,47.4649 360.3408,46.4459 C361.0358,45.4269 361.7738,44.6389 362.5628,44.0849 C363.3488,43.5289 364.2288,43.1349 365.2018,42.9039 C366.1748,42.6739 367.4458,42.4179 369.0198,42.1389 C370.5008,41.9559 371.8898,41.8169 373.1878,41.7229 C374.4828,41.6309 375.5008,41.7469 376.2428,42.0709 C376.9828,42.3959 377.3988,42.9969 377.4928,43.8759 C377.5848,44.7559 377.1668,46.0279 376.2428,47.6959 C375.3168,49.4559 374.2998,51.3309 373.1878,53.3199 C372.0768,55.3119 370.9658,57.3019 369.8538,59.2919 C368.7428,61.2839 367.6318,63.2049 366.5198,65.0549 C365.4108,66.9089 364.4378,68.5279 363.6038,69.9169 C362.1218,72.1389 360.7568,74.5239 359.5068,77.0689 C358.2568,79.6179 356.9828,82.2319 355.6878,84.9169 C360.6878,82.9719 365.4788,80.4259 370.0628,77.2779 C374.6448,74.1309 378.9268,70.0549 382.9088,65.0549 C383.8348,63.8539 384.8308,62.9969 385.8948,62.4869 C386.9598,61.9789 387.8408,61.8619 388.5338,62.1389 C389.2288,62.4169 389.5988,63.0419 389.6448,64.0139 C389.6898,64.9869 389.1588,66.3049 388.0478,67.9719 C385.7328,71.5839 383.1398,74.7559 380.2698,77.4859 C377.3988,80.2179 374.3678,82.6259 371.1748,84.7079 C367.9788,86.7919 364.6688,88.6209 361.2428,90.1939 C357.8168,91.7699 354.3898,93.1109 350.9658,94.2209 C348.2798,98.9439 345.2468,103.2709 341.8698,107.2079 C338.4868,111.1409 334.2058,114.0349 329.0218,115.8869 C324.5768,117.4619 320.6198,118.1549 317.1468,117.9709 C313.6748,117.7839 310.7138,117.0449 308.2588,115.7489 C305.8078,114.4519 303.9538,112.7149 302.7038,110.5409 C301.4538,108.3639 300.8758,106.0729 300.9678,103.6669 C301.0618,101.2559 301.8698,98.8959 303.3968,96.5829 C304.9248,94.2669 307.2648,92.2319 310.4108,90.4709 C312.6338,89.3609 314.9948,88.3889 317.4948,87.5549 C316.9378,84.7779 317.2178,81.2139 318.3288,76.8609 C319.9028,71.6759 321.8698,66.8399 324.2308,62.3479 C326.5928,57.8579 328.9758,53.9449 331.3838,50.6119 C332.4948,49.0389 333.4888,47.7429 334.3698,46.7229 C335.2488,45.7059 336.1278,44.8959 337.0088,44.2929 C337.8878,43.6919 338.8578,43.2509 339.9248,42.9729 C340.9868,42.6959 342.3078,42.4179 343.8838,42.1389 C345.3618,41.9559 346.7058,41.8399 347.9108,41.7929 C349.1118,41.7469 350.0398,41.9099 350.6878,42.2789 C351.3348,42.6499 351.5908,43.2509 351.4518,44.0849 C351.3128,44.9179 350.6878,46.1219 349.5768,47.6959" id="Fill-14" fill="#FFFFFF" sketch:type="MSShapeGroup"></path>
            </g>
        </g>
    </g>
</svg>