<?xml version="1.0" encoding="UTF-8" standalone="no"?>
<svg width="295px" height="102px" viewBox="0 0 295 102" version="1.1" xmlns="http://www.w3.org/2000/svg" xmlns:xlink="http://www.w3.org/1999/xlink" xmlns:sketch="http://www.bohemiancoding.com/sketch/ns">
    <!-- Generator: Sketch 3.4.4 (17249) - http://www.bohemiancoding.com/sketch -->
    <title>pmovil</title>
    <desc>Created with Sketch.</desc>
    <defs>
        <path id="path-1" d="M0,0.149049296 L294.674421,0.149049296 L294.674421,102 L0,102 L0,0.149049296 Z"></path>
        <path id="path-3" d="M0,0.149049296 L294.674421,0.149049296 L294.674421,102 L0,102 L0,0.149049296 Z"></path>
    </defs>
    <g id="Page-1" stroke="none" stroke-width="1" fill="none" fill-rule="evenodd" sketch:type="MSPage">
        <g id="Desktop-HD" sketch:type="MSArtboardGroup" transform="translate(-920.000000, -153.000000)">
            <g id="pmovil" sketch:type="MSLayerGroup" transform="translate(920.000000, 153.000000)">
                <g id="Group-3">
                    <mask id="mask-2" sketch:name="Clip 2" fill="white">
                        <use xlink:href="#path-1"></use>
                    </mask>
                    <g id="Clip-2"></g>
                    <path d="M190.36296,39.3383113 L204.583399,39.3713535 L207.010674,63.310107 C207.211058,65.7638535 207.348485,68.4442268 207.348485,68.4442268 C210.991735,60.9181352 224.087216,39.3713535 224.087216,39.3713535 L237.93243,39.3713535 L199.433851,102.000072 L190.36296,39.3383113 Z" id="Fill-1" fill="#FFFFFF" sketch:type="MSShapeGroup" mask="url(#mask-2)"></path>
                </g>
                <path d="M233.71724,81.1318056 L243.497929,39.5502845 L257.063612,39.5502845 L247.379697,81.1318056 L233.71724,81.1318056 Z" id="Fill-4" fill="#FFFFFF" sketch:type="MSShapeGroup"></path>
                <path d="M261.526674,81.1318056 L278.203168,12.3425028 L291.924625,12.3425028 L275.285905,81.1318056 L261.526674,81.1318056 Z" id="Fill-6" fill="#FFFFFF" sketch:type="MSShapeGroup"></path>
                <path d="M0,100.376763 L14.485939,36.9927423 L29.2632805,36.9927423 L28.0937134,42.4195732 C29.9554512,39.8236014 49.1858537,28.8331014 57.5052134,41.9832 C59.69325,46.5412352 59.749372,53.8184324 58.2347988,60.8165662 C57.6174573,63.6693338 53.4183841,74.2579394 43.8952805,80.6688549 C32.2186768,87.5545732 20.2272866,83.1050028 19.3383293,80.6688549 L14.7773415,100.376763 L0,100.376763 Z M21.2079817,72.747693 C32.1654329,76.5026577 41.9972073,70.4329394 43.3113963,56.2994746 C44.2575549,46.9948479 37.7653963,44.6057493 26.4974756,49.4489535 L21.2079817,72.747693 Z" id="Fill-8" fill-opacity="0.9" fill="#FFFFFF" sketch:type="MSShapeGroup"></path>
                <path d="M61.3008201,80.6688549 L71.618625,38.401707 L84.1820274,38.401707 L82.8063201,44.0361296 L83.8888262,42.8717493 C87.4935823,38.9522915 92.1891189,36.9927423 97.9743567,36.9927423 C100.737643,36.9927423 103.151607,37.5972 105.216607,38.8061155 C107.272973,40.0531014 108.50118,41.7705803 108.901588,43.9599887 L109.028942,44.5899465 L110.289527,43.4061718 C113.713326,40.2244183 117.457308,38.2709746 121.520034,37.5465592 C123.567405,37.1769887 125.296034,36.9927423 126.706277,36.9927423 C131.772003,36.9927423 135.114857,38.7443408 136.735558,42.2468197 C138.107308,45.1125169 138.214155,48.9213549 137.053942,53.6718972 L130.46429,80.6688549 L117.728564,80.6688549 L123.366302,54.6595732 C124.302387,50.8467845 123.11879,48.8315662 118.513192,48.8315662 C111.507662,48.8315662 109.90171,50.2886577 108.287125,55.9378056 L102.250058,80.6688549 L89.5143323,80.6688549 L95.4164909,55.6795732 C96.5838994,48.8315662 93.9566006,48.8315662 90.1255579,48.8315662 C86.6643445,48.8315662 81.8205884,48.780207 80.1523994,55.614207 L74.036186,80.6688549 L61.3008201,80.6688549 Z" id="Fill-10" fill="#FFFFFF" sketch:type="MSShapeGroup"></path>
                <path d="M140.89754,59.9984831 C142.453485,53.3638141 145.817205,48.0264127 150.988339,43.9844831 C156.09112,39.9443493 162.242949,37.9237437 169.443467,37.9237437 C176.549729,37.9237437 181.679491,39.9432718 184.834193,43.9830465 C187.976302,48.0723845 188.775321,53.4094268 187.231248,59.9927366 C186.894876,61.4268423 186.404888,62.9101521 185.761284,64.444462 C183.48079,69.9553352 180.005906,74.2691451 175.336272,77.3866099 C170.612315,80.5033563 165.224967,82.0620887 159.174589,82.0620887 L156.940504,82.0620887 L154.677998,81.7553704 C148.831241,80.9443986 144.722467,78.4942437 142.352034,74.4038282 C140.039882,70.5249549 139.55565,65.7226944 140.89754,59.9984831 M157.147004,55.487138 C160.127583,48.7677085 164.978894,46.6210394 171.328589,49.0474901 C171.850595,49.2468211 173.428485,51.2710183 173.59793,52.044638 C175.134809,59.0445676 172.286979,66.3153 168.323546,71.0453704 C167.980699,71.4540887 166.523687,72.4995887 166.161052,72.6242155 C155.217632,76.3849268 151.142674,69.1210183 157.147004,55.487138" id="Fill-12" fill="#FFFFFF" sketch:type="MSShapeGroup"></path>
                <g id="Group-16">
                    <mask id="mask-4" sketch:name="Clip 15" fill="white">
                        <use xlink:href="#path-3"></use>
                    </mask>
                    <g id="Clip-15"></g>
                    <path d="M288.584973,77.8419106 L289.007327,77.8419106 C289.6074,77.8419106 289.986583,77.819643 290.144876,77.7740303 C290.302809,77.7284176 290.440595,77.6483261 290.557876,77.5333965 C290.674796,77.4195444 290.754662,77.2891711 290.796754,77.1440725 C290.838485,77.0022063 290.833449,76.8765021 290.783443,76.7666007 C290.733796,76.6556218 290.64026,76.5776852 290.503193,76.5288401 C290.365406,76.4817908 290.001693,76.4577275 289.409174,76.4577275 L288.986821,76.4577275 L288.584973,77.8419106 Z M286.685101,80.7675866 L288.173772,75.6420866 L289.215266,75.6420866 C290.192004,75.6420866 290.738473,75.6463965 290.853955,75.654657 C291.190327,75.6841077 291.439278,75.7530655 291.59937,75.8600937 C291.759461,75.9667627 291.872065,76.1308965 291.936461,76.3514176 C292.000498,76.5722979 291.994382,76.8168824 291.915595,77.0862486 C291.808748,77.4554599 291.595772,77.7725937 291.278107,78.0347768 C290.960083,78.297319 290.573345,78.4600162 290.118254,78.5228683 C290.25712,78.5821289 290.35929,78.6464176 290.422967,78.7160937 C290.487004,78.7846923 290.565071,78.9165021 290.656449,79.1093683 C290.679473,79.1600092 290.746388,79.3676007 290.855394,79.7339387 L291.157229,80.7675866 L289.861028,80.7675866 L289.677552,79.9336289 C289.552717,79.3733472 289.417089,79.0210162 289.270668,78.8759176 C289.124607,78.730819 288.907315,78.6575514 288.618071,78.6575514 L288.348254,78.6575514 L287.73487,80.7675866 L286.685101,80.7675866 Z M290.758979,74.2966923 C290.092351,74.2966923 289.404857,74.4622627 288.696857,74.7948401 C287.988498,75.1270585 287.367199,75.6043754 286.83476,76.2264317 C286.301241,76.8492063 285.93537,77.5017908 285.737863,78.1820303 C285.541077,78.8590373 285.525607,79.505157 285.690735,80.1189528 C285.856583,80.7334669 286.197272,81.2132979 286.713162,81.5577275 C287.228693,81.9028754 287.824809,82.0745514 288.499351,82.0745514 C289.178571,82.0745514 289.875778,81.9028754 290.589534,81.5577275 C291.30365,81.2132979 291.92315,80.7334669 292.447315,80.1189528 C292.971479,79.505157 293.331955,78.8590373 293.528741,78.1820303 C293.726248,77.5017908 293.740278,76.8492063 293.569034,76.2264317 C293.396711,75.6043754 293.052424,75.1270585 292.534735,74.7948401 C292.017406,74.4622627 291.425607,74.2966923 290.758979,74.2966923 L290.758979,74.2966923 Z M291.033833,73.3384669 C291.86487,73.3384669 292.60201,73.5460585 293.245613,73.9612415 C293.888498,74.3760655 294.315888,74.9708261 294.527784,75.7458824 C294.739321,76.5209387 294.722052,77.3319106 294.475979,78.179157 C294.231345,79.0217345 293.783809,79.8248049 293.13337,80.5901641 C292.48329,81.3548049 291.713052,81.9502838 290.823016,82.3783965 C289.93262,82.80615 289.065607,83.019488 288.22162,83.019488 C287.377632,83.019488 286.634376,82.80615 285.99293,82.3783965 C285.351485,81.9502838 284.927693,81.3548049 284.721193,80.5901641 C284.515052,79.8248049 284.53412,79.0217345 284.779473,78.179157 C285.025187,77.3319106 285.479199,76.5209387 286.14115,75.7458824 C286.803101,74.9708261 287.576577,74.3760655 288.460498,73.9612415 C289.344418,73.5460585 290.202437,73.3384669 291.033833,73.3384669 L291.033833,73.3384669 Z" id="Fill-14" fill-opacity="0.9" fill="#FFFFFF" sketch:type="MSShapeGroup" mask="url(#mask-4)"></path>
                </g>
                <path d="M237.469388,10.7700866 C241.134583,2.26745282 248.988778,-0.152533099 254.344107,0.178248592 C263.993126,0.77408662 270.280223,8.84824859 270.349656,16.6271852 C270.454705,28.3841218 260.91901,34.3044317 253.372406,34.2631289 C242.801693,34.2056641 236.250894,25.5827134 236.181461,17.4977768 C224.718552,14.8569106 214.492126,12.3424669 190.6644,11.2427345 C205.139906,11.1572556 219.240906,10.0126289 253.372406,17.1422134 C253.372406,17.1422134 248.384388,12.5708894 237.469388,10.7700866" id="Fill-17" fill-opacity="0.9" fill="#FFFFFF" sketch:type="MSShapeGroup"></path>
            </g>
        </g>
    </g>
</svg>