<?xml version="1.0" encoding="utf-8"?>
<!-- Generator: Adobe Illustrator 19.0.0, SVG Export Plug-In . SVG Version: 6.00 Build 0)  -->
<svg version="1.1" id="Layer_1" xmlns="http://www.w3.org/2000/svg" xmlns:xlink="http://www.w3.org/1999/xlink" x="0px" y="0px"
	 viewBox="-349 233 260 96" style="enable-background:new -349 233 260 96;" xml:space="preserve">
<style type="text/css">
	.st0{fill:#FFFFFF;}
</style>
<g>
	<g>
		<path class="st0" d="M-228.8,286.7l2.1,2.9l-5,2.5l-3-4c-8.2,0-13.1-6.2-13.1-13c0-6.8,4.9-13,13.1-13c8.2,0,13.1,6.2,13.1,13
			C-221.6,280-224.2,284.7-228.8,286.7z M-227.4,275.1c0-4.1-2.8-7.8-7.2-7.8c-4.5,0-7.2,3.8-7.2,7.8c0,4.1,2.7,7.8,7.2,7.8
			C-230.2,282.9-227.4,279.1-227.4,275.1z"/>
		<path class="st0" d="M-215.8,262.7h5.7v16.3c0,2.3,1.6,4.2,3.9,4.2s3.9-1.9,3.9-4.2v-16.3h5.7V279c0,5.1-3.7,9.1-9.6,9.1
			c-5.9,0-9.6-4-9.6-9.1L-215.8,262.7L-215.8,262.7z"/>
		<path class="st0" d="M-175,287.4l-1-3h-8.8l-1,3h-6.1l8.8-24.7h5.3l8.9,24.7H-175z M-180.3,269.8l-3,10.2h6L-180.3,269.8z"/>
		<path class="st0" d="M-158.9,279.2c0,2.7,1.6,4.3,4,4.3c1.8,0,3.2-1.2,3.2-2.9c0-2-1.7-2.6-3.9-3.5c-4.6-1.7-8.4-3.1-8.4-8.1
			c0-4.6,4.2-7,8.7-7c5.9,0,8.8,3.7,8.8,7.9h-5.7c0-2.2-1.1-3.6-3.1-3.6c-1.6,0-3,0.9-3,2.5c0,1.6,1.4,2.5,3.5,3.3
			c4.1,1.4,8.7,3,8.7,8c0,5.1-3.9,7.9-9.3,7.9c-5.3,0-9.3-3.2-9.3-8.8C-164.6,279.2-158.9,279.2-158.9,279.2z"/>
		<path class="st0" d="M-124.9,287.4l-1-3h-8.8l-1,3h-6.1l8.8-24.7h5.3l8.9,24.7H-124.9z M-130.3,269.8l-3,10.2h6L-130.3,269.8z"/>
		<path class="st0" d="M-113.6,262.7h10.4c5.5,0,9,4.1,9,8.9c0,3.5-1.8,6.5-4.9,8l4.9,7.8h-6.6l-4.4-6.9h-2.7v6.9h-5.7L-113.6,262.7
			L-113.6,262.7z M-99.9,271.6c0-2.3-1.6-4.3-4-4.3h-3.9v8.6h3.9C-101.5,275.9-99.9,273.9-99.9,271.6z"/>
	</g>
	<g>
		<path class="st0" d="M-258.3,313c-2.3,1-4.7,1.9-7.1,2.8c-2.4,0.8-4.8,1.6-7.3,2.2c-4.9,1.3-10,2.1-15.2,2.3
			c-5.1,0.2-10.3-0.3-15.3-1.6c-5-1.3-9.8-3.6-14-6.7c-1-0.8-2.1-1.6-3-2.5c-0.5-0.4-0.9-0.9-1.4-1.4c-0.4-0.5-0.9-0.9-1.3-1.4
			l-0.7-0.7l-0.6-0.7c-0.4-0.5-0.8-1-1.2-1.5c-0.8-1-1.6-2.1-2.3-3.2c-0.4-0.5-0.7-1.1-1-1.7c-0.3-0.6-0.7-1.1-1-1.7
			c-0.6-1.2-1.2-2.4-1.7-3.6c-1-2.5-1.7-5-2.1-7.6c-0.2-1.3-0.3-2.6-0.4-3.9c-0.1-1.3-0.1-2.6,0-4c0.2-2.6,0.5-5.2,1.2-7.8
			c0.1-0.6,0.3-1.3,0.5-1.9c0.1-0.3,0.2-0.6,0.3-0.9l0.1-0.5l0.1-0.2l0.1-0.2l0.3-0.9l0.3-0.9c0.1-0.3,0.2-0.6,0.4-0.9
			c0.1-0.3,0.2-0.6,0.4-0.9c1-2.4,2.3-4.8,3.8-6.9c1.5-2.2,3.3-4.2,5.3-5.9c2-1.8,4.2-3.3,6.7-4.4c2.4-1.2,5-2,7.6-2.4
			c0.3-0.1,0.7-0.1,1-0.2l0.5-0.1l0.1,0l0.1,0l0.2,0c0.3,0,0.7-0.1,1-0.1c0.3,0,0.7,0,1-0.1c1.3,0,2.7,0,4,0.1
			c2.6,0.2,5.3,0.8,7.8,1.6c2.5,0.8,5,2,7.2,3.4c2.2,1.5,4.3,3.2,6,5.3c1.7,2,3.2,4.3,4.2,6.8c1.1,2.4,1.8,5,2.3,7.6
			c0.5,2.6,0.7,5.2,0.7,7.8l0,1l0,0.2v0.1l0,0.1l0,0.5l0,1c0,0.3,0,0.7-0.1,1c0,0.3,0,0.7-0.1,1l-0.1,1c-0.1,0.6-0.2,1.3-0.3,1.9
			c-0.5,2.6-1.2,5.1-2.2,7.5c-1,2.4-2.3,4.7-3.9,6.8c-1.6,2.1-3.4,4-5.4,5.7c-2,1.7-4.2,3.1-6.5,4.2c-1.2,0.6-2.4,1.1-3.6,1.5
			c-0.6,0.2-1.2,0.4-1.8,0.6c-0.6,0.2-1.2,0.4-1.9,0.5l0,0l-0.1-1.5c1.1,0,2.2,0,3.3-0.1c1.1-0.1,2.2-0.2,3.2-0.3
			c1.1-0.2,2.1-0.3,3.2-0.6c1-0.2,2.1-0.5,3.1-0.8c1-0.3,2-0.7,3-1.1c1-0.4,1.9-0.9,2.9-1.4c0.9-0.5,1.8-1.1,2.7-1.6
			c0.9-0.6,1.7-1.2,2.5-1.9c0.8-0.7,1.6-1.4,2.3-2.1c0.7-0.8,1.4-1.5,2.1-2.4c0.7-0.8,1.3-1.7,1.9-2.6c0.6-0.9,1.1-1.8,1.6-2.8
			c0.5-0.9,1-1.9,1.4-2.9c0.4-1,0.8-2,1.2-3c0.3-1,0.7-2.1,0.9-3.1c0.3-1.1,0.5-2.1,0.7-3.2v0c0-0.2,0.2-0.3,0.4-0.2
			c0.1,0,0.2,0.2,0.3,0.3c0,1.1,0,2.3-0.1,3.4c-0.1,1.1-0.3,2.2-0.5,3.4c-0.2,1.1-0.5,2.2-0.8,3.3c-0.3,1.1-0.8,2.2-1.2,3.2
			c-0.5,1.1-1,2.1-1.6,3.1c-0.6,1-1.2,2-1.9,2.9c-0.7,0.9-1.4,1.8-2.2,2.7c-0.8,0.8-1.6,1.6-2.5,2.4c-0.9,0.8-1.8,1.4-2.8,2.1
			c-1,0.6-2,1.2-3,1.8c-1,0.5-2.1,1-3.2,1.4c-1.1,0.4-2.2,0.8-3.3,1.1c-1.1,0.3-2.2,0.5-3.4,0.7c-1.1,0.2-2.3,0.3-3.4,0.4
			c-1.1,0.1-2.3,0.1-3.4,0c-1.1,0-2.3-0.1-3.4-0.3l-0.1,0c-0.4-0.1-0.7-0.4-0.6-0.9c0.1-0.3,0.3-0.6,0.7-0.6l0,0
			c0.6-0.1,1.2-0.3,1.7-0.5c0.6-0.2,1.2-0.4,1.7-0.6c1.1-0.5,2.3-1,3.4-1.6c2.2-1.2,4.2-2.6,6.1-4.2c1.9-1.6,3.5-3.4,4.9-5.4
			c1.4-2,2.6-4.2,3.5-6.4c0.9-2.3,1.5-4.7,1.9-7.1c0.1-0.6,0.2-1.2,0.2-1.8l0.1-0.9c0-0.3,0-0.6,0.1-0.9c0-0.3,0-0.6,0.1-0.9l0-0.9
			l0-0.5V276l0-0.9c-0.1-4.9-0.9-9.8-2.9-14.2c-1-2.2-2.3-4.2-3.9-6.1c-1.6-1.8-3.4-3.4-5.4-4.7c-2-1.3-4.2-2.3-6.5-3
			c-2.3-0.7-4.7-1.2-7.1-1.4c-1.2-0.1-2.4-0.1-3.6-0.1c-0.3,0-0.6,0-0.9,0.1c-0.3,0-0.6,0-0.9,0.1l-0.2,0l-0.1,0c0,0,0,0,0,0l-0.1,0
			l-0.4,0.1c-0.3,0-0.6,0.1-0.9,0.1c-2.4,0.4-4.7,1.2-6.8,2.2c-4.3,2.1-8,5.4-10.8,9.4c-1.4,2-2.6,4.1-3.5,6.4
			c-0.1,0.3-0.2,0.6-0.3,0.8c-0.1,0.3-0.2,0.6-0.3,0.8l-0.3,0.8l-0.3,0.9l-0.1,0.2l-0.1,0.2l-0.1,0.4c-0.1,0.3-0.2,0.6-0.3,0.9
			c-0.2,0.6-0.3,1.2-0.5,1.8c-1.1,4.8-1.5,9.7-0.8,14.5c0.7,4.8,2.5,9.4,5.1,13.6c0.6,1,1.3,2.1,2.1,3.1c0.4,0.5,0.7,1,1.1,1.5
			l0.6,0.7l0.6,0.7c0.4,0.5,0.8,0.9,1.2,1.4c0.4,0.4,0.8,0.9,1.3,1.3c0.9,0.9,1.8,1.6,2.8,2.4c3.9,3,8.4,5.2,13.1,6.6
			c4.8,1.4,9.8,2,14.8,1.9c5,0,10-0.7,14.9-1.7c2.5-0.5,4.9-1.2,7.3-1.9c2.4-0.7,4.8-1.5,7.2-2.4c0.1,0,0.2,0,0.3,0.1
			C-258.1,312.8-258.2,312.9-258.3,313L-258.3,313z"/>
		<path class="st0" d="M-274.4,247.2c0,0-0.1-0.1-0.3-0.2c-0.2-0.1-0.5-0.4-0.9-0.6c-0.4-0.3-0.9-0.6-1.5-0.9
			c-0.6-0.4-1.2-0.8-2-1.2c-1.5-0.8-3.4-1.8-5.7-2.5c-2.3-0.8-4.9-1.5-7.8-1.9c-2.9-0.4-6.1-0.5-9.5-0.2c-1.7,0.2-3.4,0.4-5.1,0.8
			c-1.7,0.4-3.4,0.9-5.1,1.6c-1.7,0.7-3.4,1.5-5,2.4c-1.6,0.9-3.2,2-4.7,3.2c-3,2.4-5.6,5.2-7.7,8.5c-2.1,3.3-3.7,6.9-4.8,10.6
			c-1.1,3.7-1.7,7.5-1.8,11.2c-0.1,3.7,0.2,7.3,0.9,10.7c0.4,1.6,0.8,3.3,1.3,4.8c0.5,1.5,1.1,3,1.7,4.3c1.3,2.7,2.7,5.1,4.1,7
			c1.4,2,2.8,3.6,4.1,4.8c1.2,1.2,2.3,2.1,3.1,2.7c0.4,0.3,0.7,0.5,0.9,0.6c0.2,0.1,0.3,0.2,0.3,0.2l0,0c0.1,0.1,0.1,0.2,0,0.2
			c0,0.1-0.1,0.1-0.2,0c0,0-0.1-0.1-0.3-0.2c-0.2-0.1-0.5-0.3-0.9-0.6c-0.8-0.5-1.9-1.4-3.2-2.6c-1.3-1.2-2.9-2.8-4.4-4.7
			c-1.5-2-3.1-4.3-4.5-7c-1.4-2.7-2.7-5.8-3.5-9.3c-0.9-3.4-1.3-7.2-1.4-11c0-3.9,0.4-7.9,1.4-11.9c1-4,2.5-7.9,4.7-11.5
			c2.2-3.6,5-6.8,8.3-9.4c1.6-1.3,3.3-2.4,5.1-3.4c1.8-1,3.6-1.8,5.5-2.5c1.9-0.7,3.7-1.2,5.6-1.6c1.9-0.4,3.7-0.6,5.5-0.7
			c3.6-0.2,7,0.1,10.1,0.7c3.1,0.6,5.8,1.6,8.1,2.6c2.3,1,4.2,2.2,5.7,3.2c1.5,1,2.6,1.9,3.3,2.6c0.4,0.3,0.6,0.6,0.8,0.7
			c0.2,0.2,0.3,0.3,0.3,0.3c0.1,0.1,0.1,0.2,0,0.3C-274.2,247.3-274.3,247.3-274.4,247.2z"/>
		<path class="st0" d="M-292.8,303.6c0,0,0.2-0.1,0.5-0.3c0.4-0.2,0.8-0.5,1.5-1c0.6-0.5,1.4-1,2.2-1.8c0.8-0.7,1.7-1.6,2.6-2.7
			c0.9-1.1,1.8-2.4,2.6-3.9c0.8-1.5,1.6-3.2,2.2-5c0.6-1.9,1.1-3.9,1.3-6.1c0.1-1.1,0.2-2.2,0.2-3.4c0-1.2,0-2.3-0.1-3.5
			c-0.1-1.2-0.2-2.4-0.5-3.6c-0.2-1.2-0.5-2.5-0.9-3.7c-0.8-2.5-1.9-4.9-3.3-7.1c-1.5-2.2-3.4-4.3-5.7-5.8c-2.3-1.6-5-2.6-7.9-3.1
			c-0.4,0-0.7-0.1-1.1-0.1c-0.4,0-0.7-0.1-1.1-0.1c-0.4,0-0.7,0-1.1,0l-0.6,0l-0.3,0l-0.3,0c-0.4,0-0.7,0-1.1,0.1
			c-0.4,0-0.7,0.1-1.1,0.1c-0.7,0.1-1.5,0.2-2.2,0.4c-2.9,0.7-5.8,2-8.2,3.9c-2.4,1.9-4.4,4.4-6,7.1c-1.5,2.8-2.6,5.8-3.2,8.9
			c-0.6,3.1-0.7,6.4-0.4,9.5c0.1,0.8,0.2,1.6,0.3,2.4c0.1,0.8,0.3,1.6,0.5,2.3c0.2,0.8,0.4,1.5,0.7,2.3c0.1,0.4,0.3,0.7,0.4,1.1
			c0.1,0.2,0.1,0.4,0.2,0.5l0.1,0.3l0,0.1c0,0,0,0,0,0l0.1,0.1l0.5,1.1l0.5,1l0.5,1c0.2,0.3,0.4,0.7,0.6,1c0.8,1.3,1.7,2.6,2.6,3.8
			c1.9,2.4,4.1,4.6,6.6,6.3c2.4,1.8,5.1,3.2,7.8,4.3c2.7,1.1,5.5,1.9,8.3,2.4c5.5,1.1,10.9,1.2,15.9,0.7c4.9-0.4,9.4-1.4,13.3-2.6
			c3.9-1.2,7.2-2.5,9.8-3.8c2.6-1.3,4.6-2.4,6-3.2c0.7-0.4,1.2-0.7,1.5-0.9c0.3-0.2,0.5-0.3,0.5-0.3l0,0c0.1,0,0.1,0,0.2,0
			c0,0.1,0,0.1,0,0.2c0,0-0.2,0.1-0.5,0.4c-0.3,0.2-0.8,0.6-1.5,1c-1.3,0.9-3.2,2.1-5.8,3.5c-2.6,1.4-5.9,2.9-9.7,4.3
			c-3.9,1.3-8.4,2.5-13.5,3.2c-2.5,0.3-5.2,0.5-7.9,0.5c-2.8,0-5.6-0.2-8.5-0.7c-2.9-0.5-5.9-1.2-8.8-2.3c-2.9-1.1-5.8-2.5-8.5-4.4
			c-2.7-1.8-5.2-4.1-7.3-6.7c-1.1-1.3-2.1-2.7-2.9-4.1c-0.2-0.4-0.4-0.7-0.6-1.1l-0.6-1.1l-0.6-1.2l-0.5-1.1l-0.1-0.1l-0.1-0.2
			l-0.1-0.3c-0.1-0.2-0.2-0.4-0.2-0.6c-0.2-0.4-0.3-0.8-0.4-1.2c-0.3-0.8-0.5-1.6-0.8-2.5c-0.4-1.7-0.7-3.4-0.9-5.1
			c-0.4-3.5-0.2-7,0.4-10.4c0.7-3.4,1.8-6.8,3.6-9.9c1.7-3.1,4-5.8,6.8-8c2.8-2.2,6-3.7,9.3-4.5c0.8-0.2,1.7-0.4,2.5-0.5
			c0.4-0.1,0.8-0.1,1.3-0.1c0.4,0,0.9-0.1,1.3-0.1l0.3,0l0.3,0l0.6,0c0.4,0,0.9,0,1.3,0c0.4,0,0.8,0.1,1.3,0.1
			c0.4,0,0.8,0.1,1.3,0.1c3.3,0.5,6.5,1.7,9.2,3.5c2.7,1.8,4.9,4.2,6.6,6.7c1.7,2.5,2.9,5.3,3.7,8c0.8,2.7,1.2,5.4,1.3,8.1
			c0.1,1.3,0,2.6,0,3.8c-0.1,1.2-0.2,2.5-0.4,3.6c-0.2,1.2-0.4,2.3-0.8,3.4c-0.3,1.1-0.6,2.1-1,3.1c-1.5,4-3.7,7-5.8,9.2
			c-2.1,2.2-4.2,3.4-5.6,4.2c-0.7,0.4-1.3,0.6-1.6,0.8c-0.4,0.2-0.6,0.2-0.6,0.2c-0.1,0.1-0.3,0-0.4-0.1
			C-293,303.8-293,303.6-292.8,303.6z"/>
		<path class="st0" d="M-323.8,241.6c0,0-0.1,0.1-0.3,0.2c-0.2,0.1-0.5,0.4-0.9,0.7c-0.8,0.6-2,1.6-3.3,2.9
			c-1.3,1.4-2.8,3.1-4.2,5.3c-1.5,2.2-2.9,4.8-4.2,7.8c-1.3,3-2.4,6.3-3.1,9.9c-0.4,1.8-0.6,3.7-0.8,5.6c-0.2,1.9-0.2,3.9-0.2,5.9
			c0,1,0.1,2,0.2,3c0.1,1,0.2,2,0.4,3c0.3,2,0.8,4,1.5,6c0.7,2,1.4,3.9,2.4,5.8c0.2,0.5,0.5,0.9,0.7,1.4c0.1,0.2,0.3,0.5,0.4,0.7
			l0.4,0.7l0.4,0.7c0.1,0.2,0.3,0.5,0.4,0.7c0.3,0.4,0.6,0.9,0.9,1.3c2.4,3.5,5.3,6.5,8.6,9.1c3.3,2.5,6.9,4.5,10.6,5.9
			c3.7,1.5,7.4,2.4,11.1,3.1c3.6,0.7,7.1,1,10.3,1.1c3.2,0.1,6.2,0.1,8.9,0c1.3-0.1,2.6-0.1,3.7-0.2c1.1-0.1,2.2-0.2,3.1-0.3
			c1.9-0.2,3.4-0.4,4.4-0.6c1-0.1,1.6-0.2,1.6-0.2l0,0c0.1,0,0.2,0.1,0.2,0.2c0,0.1,0,0.2-0.1,0.2c0,0-0.1,0-0.4,0.1
			c-0.3,0.1-0.6,0.2-1.1,0.4c-1,0.3-2.4,0.7-4.3,1.2c-1.9,0.5-4.2,0.9-6.9,1.4c-2.7,0.4-5.7,0.7-9.1,0.8c-3.4,0.1-7,0-10.9-0.6
			c-1.9-0.3-3.9-0.6-5.9-1.1c-2-0.5-4-1.1-6-1.9c-4-1.5-7.9-3.7-11.5-6.4c-3.6-2.8-6.7-6.2-9.3-10c-0.3-0.5-0.6-1-0.9-1.5
			c-0.2-0.3-0.3-0.5-0.4-0.7l-0.4-0.7l-0.4-0.8c-0.1-0.2-0.3-0.5-0.4-0.8c-0.3-0.5-0.5-1-0.8-1.5c-1-2.1-1.8-4.2-2.4-6.3
			c-0.6-2.2-1.1-4.3-1.4-6.5c-0.2-1.1-0.3-2.2-0.3-3.3c-0.1-1.1-0.1-2.2-0.1-3.2c0-4.3,0.5-8.4,1.5-12.1c0.5-1.9,1-3.7,1.7-5.4
			c0.6-1.7,1.3-3.3,2.1-4.8c1.5-3,3.2-5.6,4.8-7.8c1.7-2.2,3.3-3.9,4.8-5.2c1.5-1.3,2.7-2.2,3.6-2.7c0.4-0.3,0.8-0.5,1-0.6
			c0.2-0.1,0.4-0.2,0.4-0.2c0.1-0.1,0.3,0,0.3,0.1C-323.7,241.4-323.7,241.5-323.8,241.6z"/>
		<path class="st0" d="M-293.4,241.2c0,0,0.3,0.1,0.8,0.1c0.3,0.1,0.6,0.1,1,0.2c0.4,0.1,0.8,0.2,1.3,0.3c0.5,0.1,1,0.3,1.6,0.4
			c0.6,0.2,1.2,0.4,1.9,0.6c1.3,0.4,2.8,1,4.3,1.8c1.5,0.8,3.2,1.7,4.8,2.9c0.2,0.1,0.4,0.3,0.6,0.4c0.2,0.2,0.4,0.3,0.6,0.5
			c0.4,0.3,0.8,0.7,1.2,1c0.4,0.3,0.8,0.7,1.2,1.1c0.4,0.4,0.8,0.8,1.1,1.2c0.7,0.8,1.4,1.7,2.1,2.6c0.6,0.9,1.3,1.9,1.8,2.9
			c0.6,1,1.1,2.1,1.5,3.2c0.4,1.1,0.8,2.2,1.2,3.3c0.3,1.1,0.6,2.3,0.8,3.4c0.2,1.1,0.4,2.3,0.5,3.4c0.2,2.3,0.2,4.6,0,6.7
			c-0.2,2.2-0.5,4.3-1,6.2c-0.5,1.9-1.1,3.7-1.8,5.3c-0.7,1.6-1.4,3-2.2,4.2c-0.8,1.2-1.5,2.2-2.2,2.9c-0.7,0.8-1.3,1.3-1.7,1.6
			c-0.2,0.2-0.4,0.3-0.5,0.4c-0.1,0.1-0.2,0.1-0.2,0.1c-0.1,0.1-0.2,0.1-0.3,0c-0.1-0.1-0.1-0.2,0-0.3l0,0c0,0,0.2-0.2,0.5-0.6
			c0.2-0.2,0.3-0.5,0.5-0.8c0.2-0.3,0.4-0.7,0.7-1.1c0.5-0.8,1-1.9,1.6-3.1c0.5-1.2,1.1-2.6,1.5-4.2c0.2-0.8,0.5-1.6,0.7-2.5
			c0.2-0.9,0.4-1.7,0.6-2.7c0.2-0.9,0.3-1.9,0.4-2.8c0.1-1,0.2-2,0.3-3c0-0.5,0.1-1,0.1-1.5c0-0.5,0-1,0-1.6c0-1,0-2.1-0.1-3.2
			c-0.2-2.1-0.5-4.3-1.1-6.3c-0.5-2.1-1.3-4.1-2.3-6c-0.9-1.9-2.1-3.6-3.3-5.2c-1.2-1.6-2.7-3-4.1-4.2c-1.4-1.2-2.9-2.2-4.3-3.1
			c-1.4-0.9-2.8-1.5-4-2.1c-0.6-0.3-1.2-0.5-1.7-0.8c-0.5-0.2-1-0.4-1.5-0.6c-0.5-0.2-0.9-0.3-1.2-0.4c-0.4-0.1-0.7-0.2-0.9-0.3
			c-0.5-0.2-0.8-0.3-0.8-0.3c-0.1,0-0.2-0.2-0.1-0.3C-293.6,241.2-293.5,241.1-293.4,241.2z"/>
	</g>
</g>
</svg>
