<?xml version="1.0" encoding="UTF-8" standalone="no"?>
<svg width="206px" height="151px" viewBox="0 0 206 151" version="1.1" xmlns="http://www.w3.org/2000/svg" xmlns:xlink="http://www.w3.org/1999/xlink" xmlns:sketch="http://www.bohemiancoding.com/sketch/ns">
    <!-- Generator: Sketch 3.4.4 (17249) - http://www.bohemiancoding.com/sketch -->
    <title>varsky</title>
    <desc>Created with Sketch.</desc>
    <defs>
        <path id="path-1" d="M0,0.263 L205.146,0.263 L205.146,151 L0,151 L0,0.263 Z"></path>
        <path id="path-3" d="M0,0.263 L205.146,0.263 L205.146,151 L0,151 L0,0.263 Z"></path>
        <path id="path-5" d="M0,0.263 L205.146,0.263 L205.146,151 L0,151 L0,0.263 Z"></path>
        <path id="path-7" d="M0,0.263 L205.146,0.263 L205.146,151 L0,151 L0,0.263 Z"></path>
    </defs>
    <g id="Page-1" stroke="none" stroke-width="1" fill="none" fill-rule="evenodd" sketch:type="MSPage">
        <g id="Desktop-HD" sketch:type="MSArtboardGroup" transform="translate(-920.000000, -432.000000)">
            <g id="varsky" sketch:type="MSLayerGroup" transform="translate(920.000000, 432.000000)">
                <g id="Group-3">
                    <mask id="mask-2" sketch:name="Clip 2" fill="white">
                        <use xlink:href="#path-1"></use>
                    </mask>
                    <g id="Clip-2"></g>
                    <path d="M16.2382,106.8913 C16.2382,104.9533 16.1572,102.7713 15.5922,101.0753 C15.0262,99.4593 14.1372,98.3283 12.7642,98.3283 C10.5022,98.4093 9.7752,100.7523 9.7752,104.2253 C9.7752,106.2453 10.6642,108.3463 11.9562,110.6073 C13.2492,112.8693 14.9462,115.2123 16.6422,117.7163 C18.6622,120.7053 20.6812,123.7753 22.2162,126.7643 C23.7512,129.7543 24.8012,132.8243 24.8012,136.0553 C24.8012,140.0143 24.1552,143.7303 22.2972,146.4773 C20.4392,149.2233 17.4502,151.0003 12.6832,151.0003 C7.1092,151.0003 3.9592,148.9003 2.1812,145.6683 C0.4042,142.4373 0.0002,138.1553 0.0002,133.7123 L8.5632,132.9053 C8.5632,135.4093 8.6442,137.9133 9.2902,139.7713 C9.8562,141.7103 10.8252,143.0033 12.6832,143.0033 C15.2692,143.0033 16.2382,140.2563 16.2382,136.4593 C16.2382,134.5203 15.2692,132.2583 13.9762,129.9163 C13.2492,128.7843 12.5222,127.5723 11.7142,126.3613 C10.0182,123.9373 8.1602,121.1903 6.2212,118.2013 C4.2822,115.2123 2.8282,112.1433 1.9392,108.9923 C1.4552,107.4573 1.2122,105.8423 1.2122,104.2253 C1.2122,100.9943 1.9392,97.5203 3.7972,94.8553 C5.6552,92.2693 8.4822,90.4113 12.6032,90.3303 C17.8542,90.2493 20.9232,92.4303 22.6202,95.5823 C24.3162,98.8133 24.8012,102.7713 24.8012,106.0833 L16.2382,106.8913 Z" id="Fill-1" fill-opacity="0.9" fill="#FFFFFF" sketch:type="MSShapeGroup" mask="url(#mask-2)"></path>
                </g>
                <path d="M46.2869,117.7168 C48.9529,117.7168 50.6499,117.2318 51.6189,115.8588 C52.5889,114.5658 52.8309,112.3858 52.8309,109.0738 C52.8309,105.7608 52.5889,103.4178 51.6189,101.9638 C50.6499,100.5098 48.9529,99.8628 46.2869,99.8628 L46.2869,117.7168 Z M37.5619,90.9768 L46.2869,90.9768 C50.0839,90.9768 53.8809,91.9468 56.7889,94.6928 C59.6979,97.4398 61.6359,101.9638 61.6359,108.7498 C61.6359,115.5358 59.6979,119.9788 56.7889,122.7258 C53.8809,125.4728 50.0839,126.6038 46.2869,126.6038 L46.2869,150.3548 L37.5619,150.3548 L37.5619,90.9768 Z" id="Fill-4" fill-opacity="0.9" fill="#FFFFFF" sketch:type="MSShapeGroup"></path>
                <g id="Group-8">
                    <mask id="mask-4" sketch:name="Clip 7" fill="white">
                        <use xlink:href="#path-3"></use>
                    </mask>
                    <g id="Clip-7"></g>
                    <path d="M88.0507,103.1751 C88.0507,101.5601 87.7277,100.4291 86.9197,99.4591 C86.5157,99.0561 85.8697,98.8131 85.1417,98.8131 C83.6067,98.8131 82.8807,99.9441 82.5567,100.9941 C82.3147,101.6411 82.2337,102.3681 82.2337,103.1751 L82.2337,138.1551 C82.2337,139.8521 82.6377,140.9831 83.4457,141.8721 C83.8497,142.2761 84.4157,142.5181 85.1417,142.5181 C86.6777,142.5181 87.4047,141.5481 87.7277,140.3371 C87.9697,139.7721 88.0507,139.0441 88.0507,138.1551 L88.0507,103.1751 Z M96.7757,138.1551 C96.6947,140.5791 96.2097,142.7611 95.3217,144.6181 C94.5947,146.2341 93.4637,147.7691 91.8477,148.9811 C90.2317,150.2741 88.0507,151.0001 85.1417,151.0001 C82.2337,151.0001 79.9717,150.2741 78.3557,148.9811 C76.7407,147.7691 75.6907,146.2341 74.9627,144.6181 C74.0747,142.7611 73.5897,140.5791 73.5087,138.1551 L73.5087,103.1751 C73.5897,100.8331 74.0747,98.6521 74.9627,96.7931 C75.6907,95.1781 76.7407,93.5621 78.3557,92.3501 C79.9717,91.1391 82.2337,90.3301 85.1417,90.3301 C88.0507,90.3301 90.2317,91.1391 91.8477,92.3501 C93.4637,93.5621 94.5947,95.1781 95.3217,96.7931 C96.2097,98.6521 96.6947,100.8331 96.7757,103.1751 L96.7757,138.1551 Z" id="Fill-6" fill-opacity="0.9" fill="#FFFFFF" sketch:type="MSShapeGroup" mask="url(#mask-4)"></path>
                </g>
                <path d="M119.4728,117.2319 C120.6848,117.2319 122.3008,117.0699 123.5928,115.9399 C124.8858,114.8089 125.9358,112.6279 125.9358,108.4269 C125.9358,104.2259 124.8858,101.9639 123.5928,100.8329 C122.3008,99.7009 120.6848,99.6209 119.4728,99.6209 L119.4728,117.2319 Z M126.3398,150.3549 L121.8158,125.3109 L119.4728,125.3109 L119.4728,150.3549 L110.7478,150.3549 L110.7478,90.9769 L119.4728,90.9769 C129.8938,90.9769 134.3378,96.8739 134.3378,108.1039 C134.3378,114.0009 132.8028,119.3329 129.4898,121.5949 L135.0648,150.3549 L126.3398,150.3549 Z" id="Fill-9" fill-opacity="0.9" fill="#FFFFFF" sketch:type="MSShapeGroup"></path>
                <path d="M144.9176,99.9437 L144.9176,90.9767 L170.1226,90.9767 L170.1226,99.9437 L161.8826,99.9437 L161.8826,150.3547 L153.1576,150.3547 L153.1576,99.9437 L144.9176,99.9437 Z" id="Fill-11" fill-opacity="0.9" fill="#FFFFFF" sketch:type="MSShapeGroup"></path>
                <g id="Group-15">
                    <mask id="mask-6" sketch:name="Clip 14" fill="white">
                        <use xlink:href="#path-5"></use>
                    </mask>
                    <g id="Clip-14"></g>
                    <path d="M196.0522,106.8913 C196.0522,104.9533 195.9722,102.7713 195.4062,101.0753 C194.8402,99.4593 193.9522,98.3283 192.5782,98.3283 C190.3172,98.4093 189.5892,100.7523 189.5892,104.2253 C189.5892,106.2453 190.4782,108.3463 191.7712,110.6073 C193.0632,112.8693 194.7602,115.2123 196.4562,117.7163 C198.4762,120.7053 200.4962,123.7753 202.0302,126.7643 C203.5652,129.7543 204.6162,132.8243 204.6162,136.0553 C204.6162,140.0143 203.9692,143.7303 202.1112,146.4773 C200.2532,149.2233 197.2642,151.0003 192.4982,151.0003 C186.9242,151.0003 183.7732,148.9003 181.9962,145.6683 C180.2192,142.4373 179.8142,138.1553 179.8142,133.7123 L188.3782,132.9053 C188.3782,135.4093 188.4582,137.9133 189.1052,139.7713 C189.6702,141.7103 190.6402,143.0033 192.4982,143.0033 C195.0832,143.0033 196.0522,140.2563 196.0522,136.4593 C196.0522,134.5203 195.0832,132.2583 193.7902,129.9163 C193.0632,128.7843 192.3362,127.5723 191.5282,126.3613 C189.8322,123.9373 187.9742,121.1903 186.0352,118.2013 C184.0962,115.2123 182.6422,112.1433 181.7532,108.9923 C181.2682,107.4573 181.0262,105.8423 181.0262,104.2253 C181.0262,100.9943 181.7532,97.5203 183.6112,94.8553 C185.4702,92.2693 188.2972,90.4113 192.4172,90.3303 C197.6682,90.2493 200.7382,92.4303 202.4342,95.5823 C204.1312,98.8133 204.6162,102.7713 204.6162,106.0833 L196.0522,106.8913 Z" id="Fill-13" fill-opacity="0.9" fill="#FFFFFF" sketch:type="MSShapeGroup" mask="url(#mask-6)"></path>
                </g>
                <path d="M90.2564,79.5648 C89.6194,80.7438 88.4714,79.2018 87.6834,80.4838 C86.9874,80.1068 85.9654,79.3928 85.3694,80.5628 C83.0174,79.3058 79.8534,80.9208 77.0604,80.6238 C76.2424,80.5398 75.3354,80.1258 72.9504,80.0968 C72.0114,80.0898 70.6354,80.1408 69.7794,80.1728 C60.2034,80.5938 48.6254,80.8868 38.3374,81.0208 C32.8584,81.0928 27.2374,81.2718 22.4874,82.2578 C18.2844,81.9728 15.3364,84.2208 11.4314,84.5368 C11.9774,84.1838 13.0244,82.5968 13.4884,83.5158 C19.9604,80.1098 28.0914,80.5018 35.6864,80.4118 C36.1244,80.2758 35.7234,79.9488 36.4584,79.8148 C37.1134,80.0238 36.7034,80.1128 36.5414,80.4168 C37.0004,80.5348 38.9954,80.4188 37.8274,79.9898 C39.7214,80.6998 40.7904,79.6068 42.2814,80.3468 C42.3734,79.8298 43.1504,79.9618 43.9114,79.7528 C44.2454,79.9948 43.8144,79.9698 43.7374,80.2658 C44.4134,80.1718 45.7124,79.1078 46.3074,80.2738 C47.6444,79.5198 52.0674,79.3658 54.1024,80.0398 C54.7344,79.6918 54.9294,79.4248 56.8464,79.5338 C55.6674,79.8868 56.7464,80.0488 57.5294,80.0508 C57.5634,79.9178 57.5034,79.8498 57.4174,79.7858 C58.9624,80.3998 61.3544,79.1688 61.3004,79.8908 C62.5484,79.3318 62.2524,79.1518 63.8694,79.8978 C63.9274,79.5838 63.4714,79.5258 63.1864,79.3828 C65.8784,79.3108 71.8484,78.4868 73.9784,79.5858 C74.0384,79.2718 73.5814,79.2138 73.2964,79.0708 C76.7564,78.9008 80.3484,78.9908 83.4214,79.0978 C83.0964,79.1068 82.8584,79.1088 82.7204,79.0988 C83.0324,79.1558 83.4304,79.3858 83.5754,79.0998 C83.5284,79.0958 83.4924,79.0958 83.4464,79.0938 C84.8534,79.0538 87.7204,78.8538 89.7444,78.6058 C86.3974,78.4308 81.2544,77.8918 76.5544,77.8818 C76.6204,77.4388 76.9484,77.5248 77.0714,77.1978 C74.4034,78.5738 69.9144,76.2758 67.2184,77.5958 C58.7744,76.0748 49.2264,77.7918 41.2644,76.5748 C33.8064,77.6128 25.4584,76.8978 17.7884,77.5318 C17.9164,77.0508 16.9784,77.0798 16.9374,76.6718 C16.9324,75.5158 17.7664,76.0468 17.9684,75.3048 C29.3614,76.3788 40.3774,75.0738 50.9474,75.8338 C50.8614,76.0888 50.7744,76.3468 50.6884,76.6028 C51.5734,76.5558 50.6444,75.4928 51.3754,75.4058 C52.0274,76.0538 53.3294,75.1938 52.8314,76.1818 C53.5624,74.7128 55.5914,76.9678 56.7734,75.5088 C59.6874,76.9648 62.3524,74.5398 65.0804,76.3048 C65.3904,76.1958 65.6244,75.9638 65.8534,75.7068 C67.3724,77.1008 68.0014,75.7638 69.7914,75.8898 C70.1274,76.1338 69.6974,76.1078 69.6184,76.4028 C70.7604,75.8458 73.2344,75.6788 75.1874,76.8478 C75.6094,75.3828 78.7774,76.9378 80.2424,76.2638 C80.5274,76.4078 80.2984,76.8068 80.2394,77.1218 C80.5334,76.9928 80.9104,77.0368 81.3524,77.2088 C81.4114,76.8958 80.9554,76.8368 80.6684,76.6938 C81.6574,75.9198 82.7274,77.4458 83.6654,77.1328 C83.7554,76.3038 83.0394,77.1928 82.6394,76.7868 C82.8544,76.2518 85.0434,76.6528 83.9224,77.2188 C85.2554,77.2958 85.5594,76.7078 86.9214,77.6548 C86.9644,77.2758 86.3514,77.2238 85.9794,77.0518 C87.8664,76.4018 90.6124,77.4808 92.7464,77.3288 C93.0804,77.5728 92.6494,77.5468 92.5734,77.8438 C93.6504,78.0028 94.7004,78.1068 95.6564,78.0228 C95.8184,77.4348 94.9024,78.1398 94.3734,77.5918 C101.3204,78.3578 109.2564,77.4238 116.6444,77.6598 C116.4854,77.9148 116.0744,77.6578 115.9604,77.9998 C116.8634,78.6738 116.8604,77.5158 117.3314,77.3178 C117.7314,77.4768 118.3574,77.5208 118.2724,77.9208 C120.4424,77.3778 128.4474,77.1308 132.5794,77.0218 C138.4074,76.8748 143.8554,77.3528 148.9444,76.8138 C149.4144,76.8668 149.3564,77.1798 149.2824,77.4998 C149.8034,76.4138 155.9824,76.8148 158.0234,77.0138 C160.4984,77.2638 161.4794,76.5458 162.7334,77.4558 C163.0914,76.8858 163.3354,76.5148 164.6194,76.9478 C163.2464,77.5928 168.5514,77.6168 167.1894,76.9568 C170.2334,77.1468 174.9634,78.0608 178.2384,77.2448 C181.8724,78.7658 187.0054,76.9218 190.4824,79.0808 C176.5674,77.4688 166.3114,78.2908 153.4814,77.7708 C154.2344,78.5358 150.9484,78.0018 149.1104,78.0148 C148.0254,78.0178 146.9204,78.7168 145.5114,78.5168 C140.7794,77.8538 134.0654,79.3318 133.0914,78.0508 C131.7754,78.7408 129.8014,79.0508 127.2654,78.3758 C126.4764,78.8848 122.9724,79.2748 121.5254,78.4448 C119.5464,78.9808 114.6854,79.3458 113.9024,78.1638 C113.5654,78.7768 112.8454,78.6188 112.2744,78.7578 C112.7614,79.1498 113.9374,78.7708 114.1534,79.9638 C114.1114,79.7008 114.0834,79.4288 113.8154,79.2778 C122.8554,79.4158 134.9734,81.2348 144.8164,81.4288 C145.6164,81.4598 145.3574,82.0158 146.0144,82.1158 C145.3624,81.0148 151.6434,81.7728 154.4104,81.7988 C160.0284,81.8458 164.0954,81.1538 169.6564,82.3598 C166.6664,84.0558 161.6904,82.3568 158.6874,83.5258 C152.1554,82.5528 145.5674,84.0148 139.0744,82.3518 C138.7754,82.4658 138.5314,82.6938 138.3024,82.9488 C132.7964,81.7278 126.9864,82.1768 121.5174,81.0158 C119.2514,81.4898 111.3614,80.1208 107.5574,80.0308 C102.8574,79.9128 95.7764,78.6588 90.8524,80.4078 C90.7224,80.0898 90.1004,80.0238 90.2564,79.5648" id="Fill-16" fill="#FFFFFF" sketch:type="MSShapeGroup"></path>
                <path d="M21.9182,1.0368 L32.0342,1.0368 L21.2442,71.8438 L10.8392,71.8438 L0.0492,1.0368 L10.1652,1.0368 L15.3672,39.9568 L15.7522,42.9438 L16.3312,42.9438 L16.7162,39.9568 L21.9182,1.0368 Z" id="Fill-18" fill="#FFFFFF" sketch:type="MSShapeGroup"></path>
                <path d="M51.4926,24.0612 L51.2036,22.2312 L50.6256,22.2312 L50.3366,24.0612 L47.3496,46.4112 L54.4786,46.4112 L51.4926,24.0612 Z M33.8626,71.8442 L44.5566,1.0372 L57.2726,1.0372 L67.9656,71.8442 L57.8506,71.8442 L55.9236,57.3932 L45.9056,57.3932 L43.9776,71.8442 L33.8626,71.8442 Z" id="Fill-20" fill="#FFFFFF" sketch:type="MSShapeGroup"></path>
                <path d="M83.1863,32.3463 C84.6313,32.3463 86.5583,32.1533 88.1003,30.8053 C89.6413,29.4563 90.8933,26.8553 90.8933,21.8453 C90.8933,16.8363 89.6413,14.1383 88.1003,12.7893 C86.5583,11.4413 84.6313,11.3443 83.1863,11.3443 L83.1863,32.3463 Z M91.3743,71.8443 L85.9803,41.9793 L83.1863,41.9793 L83.1863,71.8443 L72.7813,71.8443 L72.7813,1.0363 L83.1863,1.0363 C95.6133,1.0363 100.9123,8.0693 100.9123,21.4603 C100.9123,28.4923 99.0823,34.8513 95.1323,37.5483 L101.7793,71.8443 L91.3743,71.8443 Z" id="Fill-22" fill="#FFFFFF" sketch:type="MSShapeGroup"></path>
                <path d="M124.8028,20.0152 C124.8028,17.7032 124.7068,15.1022 124.0328,13.0792 C123.3578,11.1522 122.2978,9.8032 120.6608,9.8032 C117.9638,9.9002 117.0958,12.6932 117.0958,16.8362 C117.0958,19.2442 118.1558,21.7492 119.6968,24.4462 C121.2388,27.1442 123.2618,29.9372 125.2848,32.9242 C127.6928,36.4882 130.1018,40.1492 131.9318,43.7142 C133.7618,47.2782 135.0148,50.9392 135.0148,54.7922 C135.0148,59.5132 134.2438,63.9442 132.0278,67.2202 C129.8128,70.4952 126.2478,72.6152 120.5648,72.6152 C113.9168,72.6152 110.1598,70.1102 108.0408,66.2572 C105.9218,62.4032 105.4398,57.2972 105.4398,51.9992 L115.6508,51.0352 C115.6508,54.0222 115.7468,57.0082 116.5178,59.2242 C117.1928,61.5362 118.3478,63.0772 120.5648,63.0772 C123.6468,63.0772 124.8028,59.8022 124.8028,55.2742 C124.8028,52.9622 123.6468,50.2652 122.1058,47.4712 C121.2388,46.1222 120.3718,44.6772 119.4078,43.2322 C117.3848,40.3422 115.1698,37.0672 112.8568,33.5022 C110.5448,29.9372 108.8118,26.2772 107.7518,22.5202 C107.1738,20.6892 106.8848,18.7622 106.8848,16.8362 C106.8848,12.9822 107.7518,8.8402 109.9668,5.6612 C112.1828,2.5782 115.5548,0.3622 120.4678,0.2662 C126.7298,0.1702 130.3908,2.7712 132.4138,6.5282 C134.4368,10.3812 135.0148,15.1022 135.0148,19.0512 L124.8028,20.0152 Z" id="Fill-24" fill="#FFFFFF" sketch:type="MSShapeGroup"></path>
                <path d="M151.0054,1.0368 L151.0054,25.7958 L151.3904,25.7958 L151.8724,24.6398 L160.5424,1.0368 L170.6574,1.0368 L161.1204,24.3508 L171.9104,71.8438 L161.7944,71.8438 L154.5694,41.0168 L154.2804,39.5718 L153.9914,39.5718 L153.4134,41.0168 L151.0054,46.7968 L151.0054,71.8438 L140.6004,71.8438 L140.6004,1.0368 L151.0054,1.0368 Z" id="Fill-26" fill="#FFFFFF" sketch:type="MSShapeGroup"></path>
                <g id="Group-30">
                    <mask id="mask-8" sketch:name="Clip 29" fill="white">
                        <use xlink:href="#path-7"></use>
                    </mask>
                    <g id="Clip-29"></g>
                    <path d="M188.9616,23.6758 L189.2506,24.3508 L189.4436,24.3508 L189.7326,23.6758 L194.9346,1.0368 L205.1466,1.0368 L194.5486,41.6908 L194.5486,71.8438 L184.1446,71.8438 L184.1446,41.6908 L173.5476,1.0368 L183.7596,1.0368 L188.9616,23.6758 Z" id="Fill-28" fill="#FFFFFF" sketch:type="MSShapeGroup" mask="url(#mask-8)"></path>
                </g>
            </g>
        </g>
    </g>
</svg>