<?xml version="1.0" encoding="UTF-8" standalone="no"?>
<svg width="500px" height="185px" viewBox="0 0 500 185" version="1.1" xmlns="http://www.w3.org/2000/svg" xmlns:xlink="http://www.w3.org/1999/xlink" xmlns:sketch="http://www.bohemiancoding.com/sketch/ns">
    <!-- Generator: Sketch 3.4.4 (17249) - http://www.bohemiancoding.com/sketch -->
    <title>vinti</title>
    <desc>Created with Sketch.</desc>
    <defs></defs>
    <g id="Page-1" stroke="none" stroke-width="1" fill="none" fill-rule="evenodd" sketch:type="MSPage">
        <g id="vinti" sketch:type="MSArtboardGroup" transform="translate(0.000000, -158.000000)" fill="#FFFFFF">
            <g sketch:type="MSLayerGroup" transform="translate(0.000000, 158.000000)" id="Page-1">
                <g sketch:type="MSShapeGroup">
                    <g>
                        <g id="vinti">
                            <path d="M102.142,108.120212 L102.12645,108.117511 C101.591644,103.992821 100.027118,100.284719 97.3943324,97.0087336 C94.0583891,92.8307044 88.9030247,90.2488066 81.9248587,89.2664161 C78.3833769,88.8099927 75.592381,88.4055584 73.5498425,88.0544635 C70.558717,87.4825839 68.2450571,86.5326022 66.5824943,85.2166715 C66.2031947,84.9162153 65.8448547,84.6022555 65.5338425,84.2619635 C65.2289154,83.9338248 64.9611745,83.5948832 64.7110126,83.2518905 C63.5988061,81.7273285 63.0322231,80.064354 63.0322231,78.2575657 C63.0484498,77.3649745 63.1370206,76.5277482 63.2918506,75.7431861 C63.4811623,74.7776752 63.783385,73.9006131 64.1809397,73.0978212 C64.7941745,71.854135 65.6474296,70.7927482 66.7616644,69.9339161 C66.9503,69.789427 67.147049,69.659792 67.3424457,69.526781 C69.556717,68.0143723 72.2537332,67.2493905 75.443636,67.2493905 C82.1520328,67.3891533 88.2979032,69.3593358 93.8832757,73.1545365 L99.927053,63.6013796 C94.964381,59.9155584 89.6481016,57.5213613 82.886968,56.4012336 L82.886968,49.2010876 L71.3930409,49.2010876 L71.3930409,55.9927482 C70.7169275,56.0663431 70.3525024,56.1601934 69.8075551,56.2587701 C65.1342595,57.1081496 61.3446441,58.9203394 58.385296,61.7290985 C58.3271502,61.7844635 58.2818506,61.834427 58.2237049,61.8911423 C55.6970692,64.2927664 53.9432312,67.1541898 52.8952555,70.4457044 C52.1495024,72.7825109 51.7614134,75.3306496 51.7614134,78.114427 C51.7614134,83.6975109 53.4821219,88.4386423 56.9208344,92.3364708 C58.3717737,93.987292 60.1350773,95.3666898 62.1681502,96.5063978 C64.8049923,97.9816715 67.9110571,99.0437336 71.5235308,99.6581496 C71.5498992,99.6608504 71.5749154,99.6649015 71.6012838,99.6682774 C75.1441178,100.190869 78.4043364,100.662821 81.3785591,101.079409 C84.9761583,101.718131 87.5663486,103.050942 89.1633283,105.071088 L89.1721178,105.072438 C90.4763405,106.723934 91.1152676,108.831179 91.0834903,111.403624 C90.962466,117.634883 87.068053,121.137055 79.3644174,121.922967 L79.4563688,122.185613 L79.3623891,121.922967 C78.4259721,122.018168 77.4145065,122.081635 76.3658547,122.095814 C69.5600976,122.037748 63.5345753,120.255266 58.2865834,116.757821 C57.2325227,116.054956 56.2068587,115.289974 55.2170287,114.448697 L47.8203486,123.195686 C50.375381,125.446745 53.0128992,127.332529 55.8884093,128.857091 C60.6435146,131.375522 65.984134,132.902785 71.3930409,133.440905 L71.3930409,141.701088 L82.886968,141.701088 L82.886968,133.310595 L82.886968,133.198515 L82.886968,133.058752 C95.0570085,131.023752 101.793802,123.797274 102.111575,111.335431 C102.111575,110.234208 102.277223,109.16742 102.142,108.120212" id="Fill-1"></path>
                            <g id="Group-5" transform="translate(0.000000, 30.000000)">
                                <g id="Fill-3-Clipped">
                                    <path d="M77.1462923,126.1109 C71.514268,126.1109 66.0756121,125.455297 60.8492559,124.342597 L38.1480737,137.96913 L38.4523247,115.637469 C21.0511951,105.184294 9.64313441,87.9077245 9.64313441,68.3301332 C9.64313441,36.4223595 39.8647255,10.5507172 77.1462923,10.5507172 C114.427183,10.5507172 144.64945,36.4223595 144.64945,68.3301332 C144.64945,100.239257 114.427183,126.1109 77.1462923,126.1109 M77.1462923,0.921264599 C34.541685,0.921264599 -0.000270445345,31.1012464 -0.000270445345,68.3301332 C-0.000270445345,89.6078339 11.3070494,108.549403 28.9299441,120.904568 L28.9299441,154.999932 L62.7241182,134.521648 C67.4021466,135.293381 72.2140453,135.740352 77.1462923,135.740352 C119.754956,135.740352 154.292179,105.56037 154.292179,68.3301332 C154.292179,31.1012464 119.754956,0.921264599 77.1462923,0.921264599" id="Fill-3"></path>
                                </g>
                            </g>
                            <path d="M227.541962,120.309078 L261.771553,40.8974909 L271.373039,40.8974909 L227.333043,142.403075 L183.085481,40.8974909 L192.68629,40.8974909 L227.541962,120.309078 L227.541962,120.309078 Z" id="Fill-6"></path>
                            <g id="Fill-8-Clipped" transform="translate(288.000000, 0.000000)">
                                <path d="M13.4282389,137.191679 L4.03567206,137.191679 L4.03567206,40.8971533 L13.4282389,40.8971533 L13.4282389,137.191679 L13.4282389,137.191679 Z M17.3936437,8.79965328 C17.3936437,13.5934489 13.6364818,17.3447628 8.83675304,17.3447628 C4.03567206,17.3447628 0.279186235,13.5934489 0.279186235,8.79965328 C0.279186235,4.21381387 4.03567206,0.253868613 8.83675304,0.253868613 C13.6364818,0.253868613 17.3936437,4.21381387 17.3936437,8.79965328 L17.3936437,8.79965328 L17.3936437,8.79965328 Z" id="Fill-8"></path>
                            </g>
                            <g id="Fill-10-Clipped" transform="translate(337.000000, 38.000000)">
                                <path d="M9.71850364,17.9046369 L10.1363417,17.9046369 C15.7717466,7.27456387 26.2075563,0.813067518 38.7305279,0.813067518 C63.5682283,0.813067518 70.455119,16.2369361 70.455119,41.0404398 L70.455119,99.1918814 L61.0632283,99.1918814 L61.0632283,41.0404398 C61.0632283,23.7402391 58.9760664,9.56748358 37.8955279,9.56748358 C13.6839085,9.56748358 9.71850364,32.0780675 9.71850364,51.6698376 L9.71850364,99.1918814 L0.325936842,99.1918814 L0.325936842,2.89735584 L9.71850364,2.89735584 L9.71850364,17.9046369 L9.71850364,17.9046369 Z" id="Fill-10"></path>
                            </g>
                            <g id="Fill-11-Clipped" transform="translate(429.000000, 6.000000)">
                                <path d="M21.0324789,131.191881 L11.6399121,131.191881 L11.6399121,43.6517719 L0.995183401,43.6517719 L0.995183401,34.8973558 L11.6399121,34.8973558 L11.6399121,0.506936131 L21.0324789,0.506936131 L21.0324789,34.8973558 L37.9386935,34.8973558 L37.9386935,43.6517719 L21.0324789,43.6517719 L21.0324789,131.191881 L21.0324789,131.191881 Z" id="Fill-11"></path>
                            </g>
                            <g id="Fill-12-Clipped" transform="translate(483.000000, 0.000000)">
                                <path d="M13.365919,137.191679 L3.97335223,137.191679 L3.97335223,40.8971533 L13.365919,40.8971533 L13.365919,137.191679 L13.365919,137.191679 Z M17.3313239,8.79965328 C17.3313239,13.5934489 13.5748381,17.3447628 8.7744332,17.3447628 C3.97402834,17.3447628 0.216866397,13.5934489 0.216866397,8.79965328 C0.216866397,4.21381387 3.97402834,0.253868613 8.7744332,0.253868613 C13.5748381,0.253868613 17.3313239,4.21381387 17.3313239,8.79965328 L17.3313239,8.79965328 L17.3313239,8.79965328 Z" id="Fill-12"></path>
                            </g>
                        </g>
                    </g>
                </g>
            </g>
        </g>
    </g>
</svg>